<svg width="24" height="24" viewBox="0 0 24 24" fill="none" xmlns="http://www.w3.org/2000/svg">
<path opacity="0.4" fill-rule="evenodd" clip-rule="evenodd" d="M5.91052 20.5886C5.91052 19.7486 6.59052 19.0686 7.43052 19.0686C8.26052 19.0686 8.94052 19.7486 8.94052 20.5886C8.94052 21.4186 8.26052 22.0986 7.43052 22.0986C6.59052 22.0986 5.91052 21.4186 5.91052 20.5886ZM17.1605 20.5886C17.1605 19.7486 17.8405 19.0686 18.6805 19.0686C19.5105 19.0686 20.1905 19.7486 20.1905 20.5886C20.1905 21.4186 19.5105 22.0986 18.6805 22.0986C17.8405 22.0986 17.1605 21.4186 17.1605 20.5886Z" fill="url(#paint0_linear_192_2562)"/>
<path fill-rule="evenodd" clip-rule="evenodd" d="M20.1907 6.34909C20.8007 6.34909 21.2007 6.55909 21.6007 7.01909C22.0007 7.47909 22.0707 8.13909 21.9807 8.73809L21.0307 15.2981C20.8507 16.5591 19.7707 17.4881 18.5007 17.4881H7.59074C6.26074 17.4881 5.16074 16.4681 5.05074 15.1491L4.13074 4.24809L2.62074 3.98809C2.22074 3.91809 1.94074 3.52809 2.01074 3.12809C2.08074 2.71809 2.47074 2.44809 2.88074 2.50809L5.26574 2.86809C5.60574 2.92909 5.85574 3.20809 5.88574 3.54809L6.07574 5.78809C6.10574 6.10909 6.36574 6.34909 6.68574 6.34909H20.1907ZM14.1307 11.5481H16.9007C17.3207 11.5481 17.6507 11.2081 17.6507 10.7981C17.6507 10.3781 17.3207 10.0481 16.9007 10.0481H14.1307C13.7107 10.0481 13.3807 10.3781 13.3807 10.7981C13.3807 11.2081 13.7107 11.5481 14.1307 11.5481Z" fill="url(#paint1_linear_192_2562)"/>
<defs>
<linearGradient id="paint0_linear_192_2562" x1="5.91052" y1="18.8826" x2="16.9207" y2="26.9221" gradientUnits="userSpaceOnUse">
<stop stop-color="#53E88B"/>
<stop offset="1" stop-color="#15BE77"/>
</linearGradient>
<linearGradient id="paint1_linear_192_2562" x1="2" y1="1.57942" x2="24.6895" y2="6.27392" gradientUnits="userSpaceOnUse">
<stop stop-color="#53E88B"/>
<stop offset="1" stop-color="#15BE77"/>
</linearGradient>
</defs>
</svg>
