<svg width="50" height="50" viewBox="0 0 50 50" fill="none" xmlns="http://www.w3.org/2000/svg">
<g clip-path="url(#clip0_169_22927)">
<path d="M22.3972 44.7881C17.5163 44.7881 13.5437 40.8154 13.5437 35.9345V6.28915L3.48019 8.59304C0.992829 9.24721 -0.498593 11.8116 0.159387 14.3219L8.7879 46.5377C9.36082 48.6211 11.2753 50 13.3293 50C13.7145 50 14.1063 49.952 14.4938 49.8501L35.492 44.7881H22.3972Z" fill="#B0BEC5"/>
<path d="M49.9993 5.72882V35.9345C49.9993 39.1008 47.4368 41.6633 44.2705 41.6633H22.3973C20.2517 41.6633 18.3769 40.4759 17.3978 38.7259C16.9393 37.9134 16.6685 36.9552 16.6685 35.9345V5.72882C16.6685 2.56212 19.231 0 22.3973 0H44.2705C47.4368 0 49.9993 2.56212 49.9993 5.72882Z" fill="#ECEFF1"/>
<path d="M31.2509 14.582C31.2509 16.8832 29.3856 18.7485 27.0844 18.7485C24.7836 18.7485 22.918 16.8832 22.918 14.582C22.918 12.2812 24.7836 10.416 27.0844 10.416C29.3856 10.416 31.2509 12.2812 31.2509 14.582Z" fill="#FFC107"/>
<path d="M49.9994 24.8728V35.9345C49.9994 39.1008 47.4369 41.6633 44.2706 41.6633H22.3975C20.2519 41.6633 18.3771 40.4759 17.3979 38.7259L38.0421 18.0817C39.4584 16.6654 41.7917 16.6654 43.2083 18.0817L49.9994 24.8728Z" fill="#388E3C"/>
<path d="M43.8745 41.6633H22.3973C20.2517 41.6633 18.3769 40.4759 17.3978 38.7259C16.9393 37.9134 16.6685 36.9552 16.6685 35.9345V31.1223L22.4183 25.3729C23.8345 23.9562 26.1678 23.9562 27.5844 25.3729L43.8745 41.6633Z" fill="#4CAF50"/>
</g>
<defs>
<clipPath id="clip0_169_22927">
<rect width="50" height="50" fill="white"/>
</clipPath>
</defs>
</svg>
