<svg width="34" height="34" viewBox="0 0 34 34" fill="none" xmlns="http://www.w3.org/2000/svg">
<rect opacity="0.1" width="34" height="34" rx="17" fill="#FF1D1D"/>
<g clip-path="url(#clip0_192_2666)">
<path d="M22.8933 12.0733C22.5528 11.7327 22.1485 11.4624 21.7036 11.2781C21.2586 11.0937 20.7817 10.9988 20.3 10.9988C19.8183 10.9988 19.3414 11.0937 18.8964 11.2781C18.4515 11.4624 18.0472 11.7327 17.7067 12.0733L17 12.78L16.2933 12.0733C15.6055 11.3855 14.6727 10.9991 13.7 10.9991C12.7273 10.9991 11.7945 11.3855 11.1067 12.0733C10.4189 12.7611 10.0325 13.694 10.0325 14.6667C10.0325 15.6394 10.4189 16.5722 11.1067 17.26L11.8133 17.9667L17 23.1533L22.1867 17.9667L22.8933 17.26C23.234 16.9195 23.5042 16.5152 23.6886 16.0702C23.873 15.6253 23.9679 15.1483 23.9679 14.6667C23.9679 14.185 23.873 13.7081 23.6886 13.2631C23.5042 12.8181 23.234 12.4138 22.8933 12.0733Z" fill="#FF1D1D" stroke="#FF1D1D" stroke-width="2" stroke-linecap="round" stroke-linejoin="round"/>
</g>
<defs>
<clipPath id="clip0_192_2666">
<rect width="16" height="16" fill="white" transform="translate(9 9)"/>
</clipPath>
</defs>
</svg>
