<svg width="33" height="33" viewBox="0 0 33 33" fill="none" xmlns="http://www.w3.org/2000/svg">
<circle cx="16.5" cy="16.5" r="16.5" fill="#FFE14D"/>
<mask id="mask0_182_3211" style="mask-type:alpha" maskUnits="userSpaceOnUse" x="0" y="0" width="33" height="33">
<circle cx="16.5" cy="16.5" r="16.5" fill="#FFE14D"/>
</mask>
<g mask="url(#mask0_182_3211)">
<path d="M25 35L16.5 26L21.5 18V7.5L36 24L25 35Z" fill="#F8D52B"/>
</g>
<path d="M16.5003 6.005C12.0962 6.005 8.50415 9.59707 8.50415 14.0012C8.50415 15.748 9.0577 17.4087 10.1034 18.7988L16.0082 26.754C16.0942 26.877 16.328 27 16.5003 27C16.6849 27 16.9064 26.8647 16.9924 26.7539C17.0169 26.717 22.9587 18.7127 23.008 18.6388C23.0203 18.6388 23.0203 18.6388 23.0203 18.6266C23.9798 17.2734 24.4964 15.6742 24.4964 14.0012C24.4965 9.59711 20.9044 6.005 16.5003 6.005ZM16.5003 18.3068C14.1262 18.3068 12.1947 16.3754 12.1947 14.0012C12.1947 11.6269 14.1262 9.69555 16.5003 9.69555C18.8745 9.69555 20.8059 11.6269 20.8059 14.0012C20.8059 16.3754 18.8745 18.3068 16.5003 18.3068Z" fill="#FF833D"/>
<path d="M16.5 6V9.69054C18.8741 9.69054 20.8056 11.6219 20.8056 13.9962C20.8056 16.3704 18.8741 18.3018 16.5 18.3018V26.995C16.6846 26.995 16.9061 26.8597 16.9921 26.7489C17.0166 26.712 22.9584 18.7077 23.0077 18.6338C23.02 18.6338 23.02 18.6338 23.02 18.6216C23.9795 17.2684 24.4961 15.6691 24.4961 13.9962C24.4962 9.59207 20.9041 6 16.5 6Z" fill="#E86D28"/>
</svg>
