<svg width="216" height="216" viewBox="0 0 216 216" fill="none" xmlns="http://www.w3.org/2000/svg">
<circle opacity="0.1" cx="108" cy="108" r="108" fill="url(#paint0_linear_194_6)"/>
<circle opacity="0.21" cx="108" cy="108" r="35" fill="url(#paint1_linear_194_6)"/>
<path d="M108 94.0071C101.709 94.0071 96.5771 99.1386 96.5771 105.43C96.5771 107.926 97.3679 110.298 98.8618 112.284L107.297 123.648C107.42 123.824 107.754 124 108 124C108.264 124 108.58 123.807 108.703 123.648C108.738 123.596 117.227 112.161 117.297 112.055C117.314 112.055 117.314 112.055 117.314 112.038C118.685 110.105 119.423 107.82 119.423 105.43C119.423 99.1387 114.292 94.0071 108 94.0071ZM108 111.581C104.609 111.581 101.849 108.822 101.849 105.43C101.849 102.038 104.609 99.2793 108 99.2793C111.392 99.2793 114.151 102.038 114.151 105.43C114.151 108.822 111.392 111.581 108 111.581Z" fill="#068246"/>
<path d="M108 94V99.2722C111.392 99.2722 114.151 102.031 114.151 105.423C114.151 108.815 111.392 111.574 108 111.574V123.993C108.264 123.993 108.58 123.8 108.703 123.641C108.738 123.589 117.226 112.154 117.297 112.048C117.314 112.048 117.314 112.048 117.314 112.031C118.685 110.098 119.423 107.813 119.423 105.423C119.423 99.1315 114.292 94 108 94Z" fill="#068246"/>
<defs>
<linearGradient id="paint0_linear_194_6" x1="-3.06299e-07" y1="-13.2632" x2="249.352" y2="25.3702" gradientUnits="userSpaceOnUse">
<stop stop-color="#53E88B"/>
<stop offset="1" stop-color="#15BE77"/>
</linearGradient>
<linearGradient id="paint1_linear_194_6" x1="73" y1="68.7018" x2="153.808" y2="81.2218" gradientUnits="userSpaceOnUse">
<stop stop-color="#53E88B"/>
<stop offset="1" stop-color="#15BE77"/>
</linearGradient>
</defs>
</svg>
