<svg width="310" height="305" viewBox="0 0 310 305" fill="none" xmlns="http://www.w3.org/2000/svg">
<path d="M12.5873 197.598C6.59627 121.909 70.2143 47.3062 144.807 41.402C219.4 35.4978 277.551 62.3177 283.542 138.007C289.533 213.696 247.743 247.448 173.15 253.352C98.5574 259.257 18.5783 273.287 12.5873 197.598Z" fill="#FBDF6A" fill-opacity="0.21"/>
<path d="M200.351 74.5718C199.833 68.032 205.33 61.5862 211.775 61.076C218.22 60.5659 223.245 62.8832 223.762 69.423C224.28 75.9627 220.669 78.879 214.224 79.3892C207.779 79.8993 200.869 81.1116 200.351 74.5718Z" fill="#F89945"/>
<path d="M17.9901 51.5766C8.58792 43.4492 7.85373 26.9402 16.3329 17.1311C24.812 7.32202 35.0204 3.35314 44.4225 11.4805C53.8247 19.6079 52.5603 28.6671 44.0812 38.4762C35.602 48.2853 27.3922 59.7039 17.9901 51.5766Z" fill="#FBDF6A" fill-opacity="0.21"/>
<path d="M292.897 243.128C301.685 251.916 298.376 271.278 286.138 283.517C273.9 295.755 257.654 297.549 252.351 292.477C247.047 287.405 247.299 272.927 259.538 260.688C271.776 248.45 284.109 234.34 292.897 243.128Z" fill="#FBDF6A" fill-opacity="0.21"/>
<path d="M55.0574 198.969C50.3143 203.271 42.0799 202.896 37.8671 198.251C33.6542 193.605 32.4665 188.363 37.2096 184.062C41.9528 179.76 46.3442 180.793 50.557 185.439C54.7698 190.084 59.8006 194.668 55.0574 198.969Z" fill="#FBD246"/>
<path d="M161.185 173.255C161.185 173.255 158.219 182.634 159.487 185.513C160.754 188.392 194.722 211.195 221.149 214.534C221.539 214.58 221.934 214.544 222.309 214.427C222.685 214.31 223.032 214.116 223.329 213.856C225.509 211.95 230.692 207.164 231.415 204.08C232.34 200.165 212.15 204.937 161.185 173.255Z" fill="#F89945"/>
<path d="M168.49 184.731C171.032 187.517 174.668 186.131 176.88 188.739C179.092 191.347 179.511 192.098 182.537 191.551C183.096 191.449 183.592 192.009 183.948 192.314C186.783 194.681 188.359 196.004 192.757 196.411C193.681 196.398 194.58 196.709 195.3 197.289C197.506 198.885 200.215 199.631 202.927 199.388C203.119 199.379 203.31 199.414 203.486 199.49C205.38 200.393 205.558 201.882 207.3 203.154C209.982 205.075 212.461 206.831 215.55 204.656C216.049 204.391 216.625 204.31 217.177 204.427C220.381 204.986 219.936 208.523 224.118 206.971C226.279 206.195 226.94 208.104 228.084 208.994C229.556 207.565 230.694 205.827 231.415 203.905C232.343 200.012 212.092 204.757 160.977 173.255C160.202 175.755 159.598 178.306 159.172 180.889C160.748 184.222 166.303 182.364 168.49 184.731Z" fill="#D77124"/>
<path opacity="0.55" d="M201.882 205.239C199.382 201.722 196.121 196.649 195.837 192.087C184.245 187.126 173.021 181.364 162.248 174.843C162.248 174.843 159.889 182.49 161.113 184.924C162.093 186.861 183.025 200.46 203.648 207.406C202.991 206.705 202.424 205.991 201.882 205.239Z" fill="#CD4200"/>
<path d="M199.385 170.166C199.385 170.166 169.085 160.002 166.272 162.543C163.46 165.084 161.376 171.602 162.82 174.359C164.265 177.116 193.402 190.646 198.017 193.187C215.711 202.944 229.761 201.598 230.554 201.839C231.347 202.08 238.967 196.287 236.525 189.261C234.249 182.668 204.55 172.949 199.385 170.166Z" fill="#BE5B2A"/>
<path d="M200.726 187.388C198.228 183.977 196.246 180.219 194.844 176.235C194.151 173.541 193.669 170.798 193.402 168.03C187.022 166.035 177.044 163.05 171.035 162.136C167.985 168.144 167.73 174.101 171.443 179.919C180.732 185.153 194.538 191.923 197.893 192.952C199.386 193.409 202.806 194.337 206.825 195.493C204.601 192.939 202.563 190.23 200.726 187.388V187.388Z" fill="#AE4D25"/>
<path d="M187.333 171.855C192.08 173.913 195.682 177.165 199.894 180.086C203.414 182.368 206.754 184.917 209.884 187.708C212.34 190.058 216.451 197.375 220.065 195.038C222.776 193.259 226.046 193.412 229.101 192.993C231.699 192.591 234.347 192.643 236.927 193.145C237.108 191.824 236.972 190.479 236.533 189.22C234.268 182.665 204.717 172.947 199.563 170.165C199.563 170.165 169.402 160.003 166.602 162.543C165.859 163.253 165.229 164.071 164.731 164.97C172.698 165.884 179.901 168.577 187.333 171.855Z" fill="#953E25"/>
<path d="M161.569 173.259C163.829 173.224 166.088 173.405 168.313 173.799C170.67 174.377 175.842 179.178 182.255 180.913C188.669 182.647 186.628 186.091 194.145 187.888C201.661 189.685 202.32 193.192 204.881 193.494C207.441 193.795 213.678 197.327 214.92 198.345C216.162 199.363 225.935 198.156 228.368 199.991C230.802 201.826 234.516 200.695 234.605 202.078C234.693 203.46 234.605 206.577 230.498 205.647C226.391 204.717 223.983 205.257 222.664 203.749C221.346 202.241 209.888 203.083 209.419 201.06C208.95 199.036 204.97 197.415 201.357 196.321C197.745 195.228 196.959 193.531 192.484 192.551C188.01 191.571 183.029 187.197 180.848 187.26C178.668 187.323 172.736 185.475 171.9 183.602C171.063 181.73 166.665 178.764 165.118 178.864C163.572 178.965 161.354 174.201 161.569 173.259Z" fill="#7BB027"/>
<path d="M166.216 172.195C166.216 172.093 166.216 171.978 166.355 172.119C166.771 172.021 167.198 171.986 167.624 172.017V171.902C168.144 171.991 168.727 171.902 169.222 171.902C169.216 171.872 169.216 171.842 169.222 171.813C170.276 172.212 171.351 172.552 172.443 172.832C173.419 173.355 174.421 174.769 173.128 175.508C172.532 175.839 171.859 175.61 171.606 176.425C171.552 176.739 171.566 177.061 171.647 177.369C171.728 177.677 171.874 177.963 172.075 178.209C173.29 179.171 174.67 179.9 176.146 180.363C177.275 180.758 179.583 181.637 180.331 180.197C180.636 179.828 180.103 179.254 180.23 178.77C180.326 178.503 180.497 178.27 180.722 178.098C180.947 177.927 181.216 177.824 181.498 177.802C182.124 178.052 182.781 178.215 183.451 178.286C184.229 178.679 185.045 178.991 185.886 179.216C186.577 179.565 187.247 179.957 187.89 180.388C188.22 180.809 188.537 181.331 188.892 181.662C189.247 181.994 189.349 183.153 188.74 183.663C188.372 183.969 187.827 183.765 187.472 183.841C187.031 183.974 186.606 184.153 186.203 184.377C186.15 184.593 186.142 184.819 186.182 185.038C186.221 185.258 186.306 185.467 186.432 185.651C186.546 185.765 186.622 185.778 186.711 185.995C188.372 186.568 189.716 187.957 191.428 188.352C191.522 188.45 191.638 188.523 191.766 188.565C191.894 188.607 192.031 188.617 192.164 188.594C192.532 188.827 192.934 188.999 193.356 189.104V188.976C193.396 189.036 193.454 189.08 193.521 189.104C193.533 189.083 193.54 189.058 193.54 189.034C193.54 189.009 193.533 188.985 193.521 188.964C194.789 188.964 193.128 187.256 192.976 186.836C192.43 185.383 194.244 185.562 195.17 185.765C197.503 186.39 200.712 187.715 202.018 189.958C201.91 190.387 201.642 190.759 201.269 190.996C200.896 191.233 200.447 191.317 200.014 191.232C199.748 191.359 199.19 191.461 198.848 191.64C198.848 191.64 198.721 191.92 198.67 191.996C198.787 192.192 198.927 192.372 199.089 192.532C199.38 193.079 200.357 193.309 200.75 193.5C200.823 193.552 200.905 193.59 200.991 193.615C201.2 193.761 201.425 193.881 201.663 193.971V193.844C201.993 194.01 202.678 194.099 202.931 193.615C203.946 193.054 203.109 190.85 204.999 191.627C206.077 192.06 207.269 193.271 208.423 192.582C209.26 192.71 209.894 192.672 210.503 193.283C210.883 195.144 209.336 195.22 207.966 195.832L207.827 195.908C207.827 196.061 207.713 196.214 207.662 196.367C207.611 196.52 207.725 196.533 207.738 196.622C207.751 196.589 207.751 196.553 207.738 196.52C207.878 197.055 209.006 197.921 209.437 197.794C210.439 198.954 212.431 197.425 213.47 196.889C214.154 196.476 214.887 196.151 215.652 195.921C216.502 195.73 216.996 196.189 217.706 196.15C218.564 196.755 219.204 197.622 219.533 198.622C219.774 199.451 219.533 200.788 220.623 201.018C223.401 202.98 226.736 198.469 229.59 198.38C229.777 198.359 229.966 198.375 230.146 198.428C230.326 198.481 230.495 198.569 230.641 198.687C230.787 198.806 230.909 198.952 230.998 199.118C231.088 199.284 231.144 199.467 231.162 199.654C231.264 200.381 230.731 201.005 230.82 201.706C230.848 201.877 230.912 202.041 231.005 202.187C231.099 202.333 231.222 202.458 231.365 202.555C231.509 202.652 231.671 202.718 231.841 202.749C232.011 202.781 232.186 202.777 232.355 202.738C233.154 202.572 233.407 201.744 234.054 201.4C234.423 201.186 234.851 201.097 235.274 201.148C235.696 201.199 236.091 201.387 236.399 201.683C236.707 201.979 236.91 202.368 236.979 202.79C237.048 203.212 236.978 203.646 236.781 204.025C236.279 204.716 235.638 205.294 234.9 205.72C234.161 206.146 233.341 206.411 232.494 206.497C231.612 207.128 230.545 207.446 229.463 207.402C229.179 207.353 228.91 207.239 228.678 207.068C228.445 206.898 228.255 206.675 228.123 206.418C227.99 206.162 227.918 205.878 227.913 205.588C227.908 205.299 227.97 205.013 228.093 204.751C228.423 203.796 229.298 202.496 228.499 201.668C228.299 201.525 228.074 201.424 227.835 201.369C227.596 201.315 227.349 201.308 227.107 201.349C226.866 201.391 226.635 201.48 226.428 201.611C226.22 201.742 226.041 201.913 225.899 202.114C225.292 202.735 224.768 203.433 224.339 204.191C223.861 204.829 223.278 205.381 222.614 205.822C222.424 205.822 222.412 205.822 222.335 205.911C220.091 205.911 218.696 203.655 218.975 201.349C218.62 200.419 218.163 198.406 216.831 200.075C216.446 200.664 216.151 201.309 215.956 201.986C215.594 202.549 215.272 203.136 214.992 203.745C214.41 204.153 213.727 204.392 213.018 204.437C212.309 204.482 211.601 204.331 210.972 203.999C209.361 203.271 207.964 202.139 206.914 200.712C206.026 199.629 205.252 198.801 206.241 197.514C206.521 197.131 207.256 196.494 207.243 195.934C207.218 195.614 207.073 195.315 206.838 195.098C206.603 194.881 206.295 194.76 205.975 194.761C204.441 194.01 203.883 196.036 203.084 196.966C202.54 197.515 201.839 197.879 201.078 198.004C200.318 198.13 199.537 198.012 198.848 197.667C197.77 197.272 194.485 195.794 195.259 194.277C195.588 193.602 196.616 193.564 197.021 193.003C197.205 192.636 197.262 192.218 197.184 191.814C197.106 191.411 196.897 191.045 196.59 190.773C196.184 190.302 194.345 189.193 194.345 190.429C194.181 190.748 194.345 191.296 194.257 191.703C194.099 192.119 193.968 192.545 193.863 192.977C193.318 193.207 193.001 193.869 192.595 194.175C192.084 194.567 191.473 194.805 190.832 194.863C190.689 194.845 190.544 194.845 190.401 194.863C188.554 194.097 186.909 192.91 185.595 191.397C185.129 190.884 184.764 190.287 184.517 189.639C184.352 188.811 185.036 188.225 185.011 187.409C185.011 186.02 182.589 184.134 182.094 186.135C181.853 187.154 182.399 187.868 181.891 188.9C181.562 189.55 181.181 190.174 180.369 190.174V190.251C176.463 189.703 180.458 185.37 178.201 183.765C177.478 183.255 175.575 182.644 174.751 183.128C173.483 183.867 175.043 185.396 173.483 186.033L173.178 185.931C171.517 185.587 169.374 183.892 169.653 181.917C169.767 181.153 170.642 180.643 170.655 179.917C170.509 179.22 170.1 178.608 169.513 178.209C169.337 177.986 169.103 177.816 168.836 177.719C168.57 177.622 168.281 177.602 168.004 177.661C167.154 177.802 167.142 178.286 167.18 179.063C167.281 180.911 167.078 181.854 165.366 182.797C164.641 182.704 163.942 182.464 163.312 182.092C162.682 181.72 162.134 181.222 161.701 180.63C161.117 179.611 161.701 177.878 161.701 176.808C161.561 175.992 159.837 175.355 159.164 175.202C156.336 173.507 157.528 168.742 160.953 170.437C162.14 171.259 163.104 172.367 163.755 173.66C164.39 174.552 165.975 176.209 166.977 174.705C167.776 173.533 166.19 173.036 166.267 171.966C166.343 171.978 166.038 172.221 166.216 172.195Z" fill="#9FCC29"/>
<path d="M178.557 157.67C178.557 157.67 167.43 156.275 162.349 159.505L162.679 161.553C162.679 161.553 180.564 164.871 192.06 172.209C203.556 179.548 215.458 188.822 218.646 192.316C218.646 192.316 232.06 186.032 243.251 191.826L244.153 189.928C242.18 186.918 239.511 184.415 236.366 182.627C231.501 180.013 196.061 169.508 178.557 157.67Z" fill="#FFCF08"/>
<path d="M223.727 188.764C221.187 189.186 219.104 189.646 219.104 189.646C207.672 180.294 199.212 173.037 190.002 168.668C181.165 164.427 171.892 161.171 162.349 158.959L162.679 161.041C162.679 161.041 180.564 164.414 192.06 171.875C203.556 179.336 215.458 188.764 218.646 192.316C218.646 192.316 232.06 185.928 243.251 191.817L244.153 189.888C234.715 185.826 227.068 188.189 223.727 188.764Z" fill="#EFA708"/>
<path d="M239.289 178.002C239.639 178.408 239.896 178.884 240.042 179.396C240.188 179.909 240.22 180.447 240.136 180.973C239.674 182.415 237.955 184.969 237.006 185.159C234.954 185.551 198.06 172.969 171.993 157.339C171.993 157.339 171.313 156.467 173.276 151.017C173.276 151.017 179.895 157.668 209.118 169.985C232.298 179.683 239.289 178.002 239.289 178.002Z" fill="#E72124"/>
<g style="mix-blend-mode:multiply" opacity="0.55">
<path d="M205.518 171.981C211.475 174.476 217.558 176.662 223.742 178.531C229.194 180.365 233.909 181.794 239.361 180.947C239.422 180.436 239.378 179.918 239.232 179.424C239.085 178.931 238.839 178.472 238.509 178.076C238.509 178.076 231.583 179.707 208.657 169.984C179.708 157.718 173.15 151.017 173.15 151.017C172.602 152.449 172.177 153.926 171.879 155.43C181.805 163.054 194.284 166.86 205.518 171.981Z" fill="#C42124"/>
</g>
<path d="M218.189 141.111C212.013 138.307 205.5 136.312 198.813 135.173C194.32 134.278 189.714 134.101 185.166 134.649C181.051 135.219 177.22 137.069 174.219 139.936C172.928 141.385 171.997 143.116 171.5 144.991C171.002 146.865 170.952 148.829 171.354 150.726C172.633 157.379 229.303 181.45 239.79 179.496C239.79 179.496 244.228 177.478 244.906 171.17C245.226 167.863 243.627 163.892 242.016 161.082C239.344 156.686 235.915 152.795 231.886 149.59C227.708 146.182 223.104 143.332 218.189 141.111V141.111Z" fill="#F89945"/>
<path d="M229.846 170.19C220.795 168.929 213.359 164.502 205.142 160.87C196.694 157.087 187.668 153.984 180.118 148.587C176.772 146.178 174.503 143.82 173.99 140.692C172.781 142.116 171.916 143.79 171.459 145.59C171.001 147.39 170.964 149.268 171.349 151.084C172.631 157.654 229.435 181.427 239.948 179.497C241.354 178.706 242.544 177.59 243.415 176.245C244.286 174.901 244.812 173.368 244.947 171.779C239.973 172.321 235.23 170.985 229.846 170.19Z" fill="#E8761F"/>
<g style="mix-blend-mode:screen" opacity="0.32">
<path d="M218.575 144.416C217.002 142.904 212.15 139.894 210.339 142.529C208.779 144.804 213.062 147.523 214.517 148.327C216.169 149.257 219.012 150.186 220.043 148.466C220.823 147.148 219.884 145.65 218.575 144.416Z" fill="#FDE5C1"/>
</g>
<g style="mix-blend-mode:screen" opacity="0.32">
<path d="M229.199 155.971C225.363 153.67 220.777 151.811 216.703 152.949C213.354 153.86 214.991 156.439 216.828 158.133C219.687 160.825 223.053 162.906 226.725 164.253C229.149 165.075 233.535 166.579 234.547 163.241C234.648 162.731 234.647 162.206 234.547 161.696C234.446 161.187 234.246 160.702 233.96 160.27C232.642 158.559 231.029 157.102 229.199 155.971V155.971Z" fill="#FDE5C1"/>
</g>
<path d="M200.471 142.628C200.471 143.298 199.623 143.869 198.527 143.869C197.431 143.869 196.524 143.397 196.5 142.727C196.477 142.057 197.361 141.486 198.456 141.486C199.552 141.486 200.459 141.97 200.471 142.628Z" fill="#FBD198"/>
<path d="M212.384 158.518C212.384 159.185 211.352 159.753 210.037 159.753C208.722 159.753 207.633 159.272 207.619 158.605C207.605 157.938 208.651 157.37 209.966 157.37C211.282 157.37 212.356 157.827 212.384 158.518Z" fill="#FBD198"/>
<path d="M225.886 163.277C225.886 163.947 225.038 164.518 223.93 164.518C222.823 164.518 221.939 164.034 221.915 163.377C221.892 162.719 222.776 162.136 223.871 162.136C224.967 162.136 225.874 162.62 225.886 163.277Z" fill="#FBD198"/>
<path d="M189.352 141.834C189.352 142.504 188.504 143.075 187.408 143.075C186.313 143.075 185.405 142.591 185.382 141.933C185.358 141.275 186.242 140.692 187.338 140.692C188.433 140.692 189.341 141.126 189.352 141.834Z" fill="#FBD198"/>
<path d="M240.976 164.866C240.976 165.536 239.958 166.107 238.629 166.107C237.3 166.107 236.24 165.623 236.211 164.965C236.183 164.307 237.244 163.724 238.559 163.724C239.873 163.724 240.906 164.22 240.976 164.866Z" fill="#FBD198"/>
<path d="M217.644 157.186C217.144 157.656 216.144 157.186 215.437 156.234C214.73 155.281 214.547 154.053 215.059 153.583C215.571 153.114 216.559 153.583 217.278 154.536C217.998 155.488 218.156 156.731 217.644 157.186Z" fill="#FBD198"/>
<path d="M231.425 159.02C231.238 159.635 229.986 159.914 228.733 159.659C227.481 159.403 226.516 158.718 226.703 158.103C226.891 157.488 228.143 157.21 229.395 157.465C230.648 157.72 231.598 158.417 231.425 159.02Z" fill="#FBD198"/>
<path d="M196.227 151.664C195.712 152.039 194.717 151.664 193.993 150.905C193.269 150.145 193.109 149.155 193.625 148.78C194.141 148.406 195.135 148.78 195.847 149.551C196.559 150.321 196.694 151.29 196.227 151.664Z" fill="#FBD198"/>
<path d="M206.56 152.479C206.078 152.863 205.086 152.342 204.356 151.312C203.625 150.283 203.43 149.145 203.912 148.76C204.395 148.376 205.386 148.898 206.117 149.927C206.847 150.956 207.043 152.095 206.56 152.479Z" fill="#FBD198"/>
<path d="M184.442 146.81C184.022 147.268 182.874 147.039 181.852 146.289C180.83 145.54 180.354 144.561 180.76 144.104C181.166 143.647 182.328 143.875 183.35 144.625C184.372 145.375 184.848 146.353 184.442 146.81Z" fill="#FBD198"/>
<path d="M225.572 151.682C225.049 152.019 224.056 151.682 223.35 150.829C222.644 149.975 222.5 149.1 223.023 148.763C223.546 148.426 224.539 148.763 225.245 149.616C225.951 150.469 226.094 151.345 225.572 151.682Z" fill="#FBD198"/>
<path d="M237.494 159.592C236.971 160.013 235.978 159.592 235.272 158.525C234.566 157.459 234.409 156.364 234.932 155.943C235.455 155.522 236.461 155.943 237.154 157.01C237.847 158.076 238.016 159.171 237.494 159.592Z" fill="#FBD198"/>
<path d="M206.511 142.12C205.988 142.539 204.995 142.12 204.289 141.057C203.583 139.994 203.439 138.889 203.962 138.47C204.485 138.05 205.478 138.47 206.184 139.533C206.89 140.595 207.033 141.7 206.511 142.12Z" fill="#FBD198"/>
<g style="mix-blend-mode:multiply" opacity="0.35">
<path d="M244.883 170.152C235.247 170.378 224.408 167.053 215.95 164.005C209.833 161.809 203.153 159.426 198.188 155.136C193.223 150.845 190.984 145.225 194.644 139.404C195.599 137.933 196.92 136.724 198.482 135.891C194.097 135.065 189.607 134.912 185.174 135.44C181.057 135.999 177.224 137.816 174.22 140.634C172.93 142.057 171.998 143.758 171.5 145.599C171.002 147.44 170.952 149.37 171.354 151.234C172.633 157.77 229.335 181.417 239.828 179.498C239.828 179.498 244.268 177.516 244.947 171.319C244.951 170.929 244.93 170.539 244.883 170.152Z" fill="#D48745"/>
</g>
<g style="mix-blend-mode:multiply" opacity="0.32">
<path d="M207.974 162.371L204.929 160.961C196.709 157.237 187.959 154.004 180.526 148.831C177.21 146.529 174.952 144.305 174.319 141.486C173.227 142.718 172.466 144.209 172.11 145.818C171.753 147.427 171.812 149.101 172.28 150.68C173.171 154.03 191.121 163.082 208.413 170.078C207.917 167.541 207.769 164.948 207.974 162.371V162.371Z" fill="#BA773D"/>
</g>
<path d="M150.436 207.131C150.436 207.131 121.178 182.88 105.68 189.504C90.1814 196.129 84.2481 198.809 80.7827 206.965C78.66 211.942 77.3301 228.662 76.2048 234.087C75.0795 239.511 71.0898 251.381 88.0459 249.262C105.002 247.144 133.531 207.322 150.436 207.131Z" fill="#F89945"/>
<g style="mix-blend-mode:multiply" opacity="0.35">
<path d="M119.766 189.152H119H118.897C118.795 189.427 118.603 189.659 118.352 189.809C118.1 189.958 117.806 190.017 117.517 189.975C112.623 189.474 109.339 190.605 104.649 192.263C102.374 193.059 98.63 195.244 96.1254 194.64C96.0293 194.601 95.939 194.549 95.857 194.486C95.2948 194.64 94.7325 194.781 94.1958 194.974C90.0426 196.375 89.0842 198.393 87.2185 202.261C85.9406 204.934 83.2315 211.257 80.024 213.005C80.214 214.843 80.4955 216.67 80.8674 218.48C81.3223 220.721 81.4086 223.022 81.123 225.291C80.7141 227.745 79.6279 230.149 76.8932 230.059C76.7782 230.856 76.676 231.575 76.5737 232.231C77.6284 234.089 78.2938 236.144 78.5289 238.271C78.6311 240.571 77.9155 242.859 78.1455 244.941C79.7045 245.905 80.1007 247.344 80.4968 249.066C82.9947 249.593 85.5677 249.654 88.0875 249.246C105.007 247.1 133.542 207.016 150.436 206.836C150.436 206.798 134.385 193.381 119.766 189.152Z" fill="#E09945"/>
</g>
<path d="M90.5718 204.13C90.2898 204.679 90.1238 205.283 90.0847 205.902C90.0456 206.522 90.1341 207.142 90.3447 207.724C90.5553 208.307 90.8831 208.837 91.3072 209.282C91.7312 209.727 92.2421 210.077 92.8067 210.308C93.8769 210.63 95.0076 210.683 96.1022 210.463C101.254 209.729 105.862 206.974 110.484 204.554C115.105 202.134 120.143 199.946 125.307 200.461C126.721 200.602 128.11 200.95 129.537 200.976C130.965 201.093 132.381 200.631 133.476 199.688C134.542 198.369 135.142 196.724 135.181 195.016C135.421 193.226 135.572 191.154 134.348 189.867C133.59 189.082 132.466 188.76 131.684 188C130.892 186.99 130.257 185.861 129.802 184.653C129.086 183.404 128.005 182.414 126.71 181.821C125.416 181.228 123.972 181.062 122.58 181.345C121.999 181.474 121.317 181.899 121.443 182.491C121.57 183.083 122.365 183.134 122.946 183.019C123.527 182.903 124.209 182.761 124.6 183.25C124.992 183.739 124.6 184.537 123.981 184.692C123.396 184.836 122.782 184.805 122.214 184.602C118.776 183.789 115.209 183.728 111.746 184.422C111.153 184.5 110.586 184.721 110.092 185.065C109.851 185.247 109.671 185.501 109.579 185.792C109.486 186.082 109.484 186.396 109.575 186.687C110.004 187.704 111.746 187.73 111.911 188.824C111.929 189.097 111.862 189.369 111.719 189.6C111.576 189.832 111.365 190.011 111.115 190.111C110.614 190.296 110.08 190.367 109.549 190.317L104.852 190.227C104.07 189.627 103.163 189.217 102.201 189.03C101.718 188.949 101.222 189.031 100.789 189.263C100.356 189.496 100.01 189.866 99.8018 190.317C99.4356 191.399 100.168 192.789 99.4356 193.651C99.0913 193.942 98.6581 194.101 98.2108 194.101C97.7636 194.101 97.3304 193.942 96.9861 193.651C96.3011 193.062 95.5753 192.525 94.8143 192.042C94.1441 191.779 93.4064 191.752 92.7195 191.967C92.0327 192.181 91.4364 192.625 91.0264 193.226C90.6401 193.835 90.419 194.536 90.3858 195.26C90.3525 195.984 90.5082 196.703 90.837 197.346C91.4052 198.53 92.4911 199.573 92.4279 200.886C92.3648 202.199 91.2284 202.997 90.5718 204.13Z" fill="#9FCC29"/>
<path d="M130.194 187.849C129.475 186.878 129.059 185.714 128.415 184.691C128.129 184.155 127.714 183.701 127.21 183.371C126.705 183.04 126.126 182.843 125.526 182.799C125.724 182.937 125.891 183.116 126.015 183.324C126.14 183.532 126.22 183.764 126.25 184.006C126.279 184.247 126.258 184.492 126.188 184.725C126.118 184.958 126 185.173 125.842 185.356C125.736 185.476 125.618 185.583 125.489 185.676C125.8 186.075 126.074 186.504 126.309 186.954C126.813 188.028 127.255 189.128 127.671 190.228C128.289 191.864 129.172 193.731 128.441 195.457C127.709 197.183 125.438 196.557 125.476 195.163C125.43 195.09 125.392 195.013 125.362 194.933C124.901 192.834 124.122 190.82 123.054 188.962C122.272 187.683 121.237 186.699 120.392 185.535C118.479 185.003 116.483 184.851 114.513 185.088C114.021 185.088 113.415 185.33 113.251 185.829C113.087 186.328 113.617 186.763 114.097 186.942C114.599 187.036 115.076 187.236 115.497 187.53C115.631 187.707 115.727 187.912 115.778 188.13C115.829 188.348 115.833 188.574 115.792 188.794C115.75 189.014 115.663 189.222 115.536 189.405C115.409 189.588 115.245 189.742 115.056 189.857C114.261 190.29 113.347 190.443 112.457 190.292C111.907 190.247 111.354 190.247 110.804 190.292C110.63 190.334 110.453 190.364 110.274 190.381C110.109 190.415 109.949 190.466 109.795 190.534C109.043 190.982 108.383 191.572 107.852 192.273C107.582 192.622 107.237 192.905 106.844 193.1C106.451 193.295 106.019 193.397 105.581 193.399C104.32 193.232 103.235 191.57 102.011 192.12C100.787 192.67 101.254 194.946 100.157 195.956C99.8142 196.19 99.4135 196.321 99.0006 196.335C98.5878 196.348 98.1795 196.244 97.8228 196.033C97.0785 195.687 96.4351 195.125 95.6655 194.754C95.2963 194.564 94.8785 194.492 94.4681 194.549C94.0577 194.606 93.6744 194.789 93.3695 195.074C93.1189 195.498 93.006 195.992 93.0467 196.485C93.0875 196.978 93.2798 197.446 93.5966 197.823C94.2528 198.573 94.6896 199.494 94.8581 200.482C94.8581 202.413 92.3351 203.372 91.7547 205.213C91.5889 205.98 91.6515 206.779 91.9345 207.51C92.2175 208.241 92.7081 208.87 93.3443 209.318C94.0389 209.87 94.819 210.302 95.6529 210.596L96.1449 210.532C101.292 209.803 105.897 207.067 110.514 204.663C115.131 202.26 120.165 200.086 125.324 200.597C126.737 200.738 128.125 201.083 129.551 201.109C130.978 201.226 132.393 200.766 133.487 199.83C134.551 198.52 135.151 196.885 135.19 195.189C135.339 194.276 135.381 193.349 135.316 192.427C133.89 190.65 131.557 189.665 130.194 187.849Z" fill="#73A624"/>
<path d="M85.3101 213.715C85.3101 213.715 87.2156 203.431 87.4443 201.86C87.4443 201.86 93.9104 206.13 100.338 205.161L106.754 212.205C106.754 212.205 93.2371 218.157 85.3101 213.715Z" fill="#FFCF08"/>
<g style="mix-blend-mode:multiply" opacity="0.35">
<path d="M100.01 205.831L99.3629 205.906C98.822 207.285 97.9362 208.513 96.7849 209.479C95.6336 210.445 94.2527 211.12 92.766 211.442C91.68 211.604 90.5689 211.485 89.5463 211.095C88.5237 210.706 87.6261 210.06 86.9453 209.225C86.5055 211.655 86.1045 213.834 86.1045 213.834C93.4387 217.955 105.96 212.432 105.96 212.432L100.01 205.831Z" fill="#E6B970"/>
</g>
<path d="M88.2204 202.654C87.9924 204.372 86.1045 215.015 86.1045 215.015C86.6747 215.349 86.624 215.131 87.2448 215.361C87.0421 212.066 89.3734 204.847 89.3734 204.847C97.2164 207.001 101.372 207.065 100.207 205.667C96.0381 205.588 91.941 204.558 88.2204 202.654Z" fill="#EFA708"/>
<path d="M93.2668 215.1C93.2793 215.187 93.2793 215.275 93.2668 215.361C97.9186 215.08 102.484 213.985 106.754 212.127L103.979 210.596C100.917 211.368 92.8668 212.823 93.2668 215.1Z" fill="#EFA708"/>
<path d="M100.386 222.533C100.447 220.755 100.312 218.975 99.9828 217.227C99.8693 216.443 99.7432 215.647 99.6297 214.851C99.5163 214.056 98.9363 213.752 98.2806 213.803C97.6322 213.937 96.9922 214.11 96.3642 214.321C94.952 214.624 93.5777 213.803 92.2791 213.171C89.9212 212.022 87.336 211.418 84.714 211.403C83.5211 211.328 82.3317 211.596 81.2845 212.173C80.7679 212.478 80.362 212.94 80.1261 213.493C79.8902 214.045 79.8366 214.658 79.9733 215.243C80.5533 217.088 83.2767 217.492 83.9575 219.311C84.071 219.614 84.0836 220.031 83.7936 220.195C83.5036 220.36 83.138 220.107 82.8732 219.88C81.7156 218.814 80.2668 218.119 78.7124 217.884C77.928 217.776 77.1296 217.843 76.3736 218.079C75.6176 218.314 74.9225 218.714 74.3373 219.248C73.7625 219.799 73.359 220.505 73.1756 221.28C72.9921 222.056 73.0365 222.868 73.3034 223.619C73.6057 224.353 74.1583 224.955 74.8627 225.319C75.5671 225.682 76.3774 225.783 77.149 225.603C77.9559 225.375 78.8637 224.807 79.5446 225.299C79.6717 225.432 79.7683 225.591 79.8278 225.765C79.8872 225.939 79.9081 226.124 79.8889 226.307C79.8697 226.489 79.8109 226.666 79.7166 226.824C79.6222 226.981 79.4947 227.117 79.3429 227.22C79.0169 227.414 78.6515 227.531 78.2738 227.564C77.8962 227.597 77.516 227.544 77.1616 227.409C76.4357 227.152 75.689 226.957 74.9299 226.828C74.1668 226.78 73.4077 226.971 72.7574 227.374C72.107 227.777 71.5973 228.372 71.2987 229.077C71.0273 229.791 70.9486 230.564 71.0703 231.318C71.1921 232.072 71.51 232.781 71.9922 233.372C72.4908 233.951 73.1082 234.416 73.8023 234.734C74.4964 235.053 75.2509 235.217 76.0142 235.217C77.4979 235.086 78.9617 234.785 80.3767 234.32C84.2853 233.423 88.4965 234.156 92.3169 232.892C94.5106 232.121 96.4371 230.735 97.8676 228.898C99.298 227.062 100.172 224.852 100.386 222.533V222.533Z" fill="#9FCC29"/>
<path d="M81.4312 225.668C81.7819 226.752 80.8299 227.889 79.7776 228.281C78.6915 228.492 77.582 228.541 76.4828 228.424C75.9358 228.37 75.3844 228.461 74.8804 228.689C74.3764 228.918 73.9364 229.276 73.6015 229.73C73.343 230.364 73.329 231.078 73.5624 231.723C73.7957 232.367 74.2584 232.893 74.8543 233.191C76.0862 233.725 77.4628 233.772 78.7252 233.322C81.0679 232.656 83.2226 231.311 85.6154 230.84C87.2189 230.514 88.8725 230.605 90.5011 230.396C92.1511 230.308 93.7062 229.565 94.8481 228.32C95.5842 227.277 96.0775 226.069 96.2888 224.793C97.076 221.352 97.6534 217.862 98.0176 214.345C95.9255 215.416 93.5828 216.526 91.3279 215.886C90.4331 215.588 89.588 215.147 88.8224 214.58C88.0474 214.009 87.2054 213.543 86.3169 213.195C85.8683 213.028 85.3918 212.956 84.916 212.985C84.4402 213.014 83.975 213.144 83.5483 213.365C83.1282 213.605 82.7974 213.986 82.6089 214.445C82.4204 214.904 82.3851 215.416 82.5085 215.899C82.6951 216.297 82.9655 216.646 83.2996 216.919C83.6337 217.193 84.0228 217.385 84.4378 217.479C85.2671 217.648 86.0804 217.892 86.8681 218.211C87.2516 218.387 87.5757 218.679 87.7989 219.049C88.0221 219.419 88.1342 219.851 88.1209 220.287C88.0439 220.635 87.8808 220.956 87.6478 221.217C87.4147 221.478 87.12 221.671 86.7929 221.776C85.6998 222.103 84.5287 221.992 83.5107 221.463C82.471 221.019 81.5063 220.379 80.454 219.974C79.9365 219.738 79.3778 219.616 78.8129 219.616C78.2481 219.616 77.6894 219.738 77.1718 219.974C76.6824 220.247 76.3129 220.706 76.1402 221.256C75.9675 221.806 76.005 222.404 76.2448 222.926C76.5899 223.317 77.0106 223.627 77.4792 223.837C77.9477 224.046 78.4536 224.15 78.9633 224.14C80.003 224.297 81.118 224.65 81.4312 225.668Z" fill="#73A624"/>
<path d="M86.1045 232.236C86.1023 232.572 86.1949 232.903 86.3727 233.194C86.5506 233.484 86.807 233.724 87.1154 233.888C87.7318 234.222 88.4281 234.398 89.137 234.401C91.1303 234.521 93.1219 234.142 94.9132 233.299C97.1256 232.279 98.868 230.52 99.8098 228.356C100.268 227.279 100.464 226.117 100.382 224.957C100.3 223.797 99.943 222.67 99.3372 221.661C98.7068 220.665 97.8054 219.849 96.7286 219.3C95.6517 218.752 94.4393 218.491 93.2197 218.545C92.327 218.62 91.29 219.058 91.2243 219.909C91.1587 220.76 92.1433 221.336 92.5371 222.124C92.6636 222.405 92.7095 222.713 92.6703 223.017C92.6311 223.32 92.5081 223.608 92.3139 223.851C92.1121 224.09 91.8486 224.274 91.5493 224.386C91.2501 224.498 90.9254 224.534 90.6073 224.49C89.5309 224.339 88.6382 223.238 87.5748 223.476C87.165 223.588 86.8094 223.833 86.5696 224.169C86.3298 224.506 86.221 224.911 86.2621 225.315C86.3767 226.105 86.6297 226.871 87.0103 227.581C87.3939 228.294 87.5009 229.114 87.3123 229.896C87.0891 230.734 86.2227 231.36 86.1045 232.236Z" fill="#9FCC29"/>
<path d="M98.55 221.594C97.8895 221.455 97.2667 221.178 96.7236 220.782C96.18 220.38 95.526 220.152 94.8482 220.127C94.5147 220.126 94.1934 220.251 93.9498 220.476C93.7062 220.702 93.5584 221.01 93.5366 221.339C93.5366 221.836 94.0146 222.212 94.2598 222.649C94.4283 222.949 94.5167 223.287 94.5167 223.631C94.5167 223.974 94.4283 224.312 94.2598 224.613C94.0802 224.907 93.8291 225.152 93.5294 225.326C93.2297 225.499 92.8908 225.596 92.5437 225.607C92.0465 225.561 91.5543 225.472 91.0728 225.34C90.8033 225.244 90.5096 225.235 90.235 225.317C89.9604 225.398 89.7194 225.564 89.5477 225.791C89.376 226.018 89.2826 226.294 89.2813 226.577C89.28 226.86 89.3709 227.137 89.5405 227.365C90.0319 228.442 90.9036 229.304 91.9921 229.79C93.0724 230.299 94.2679 230.52 95.4611 230.433C96.9147 230.412 98.3235 229.932 99.4816 229.063C100.055 228.595 100.509 228 100.805 227.325C101.101 226.651 101.231 225.917 101.185 225.183C101.121 224.452 100.829 223.76 100.351 223.2C99.8725 222.639 99.2306 222.24 98.5133 222.055L98.55 221.594Z" fill="#73A624"/>
<path d="M123.542 195.555L125.483 199.477L142.494 198.653L142.126 195.437C142.126 195.437 136.887 187.971 131.191 187.592C125.496 187.213 122.844 190.743 123.542 195.555Z" fill="#D12424"/>
<path d="M123.544 195.506H142.494C142.494 195.506 137.152 187.975 131.344 187.593C125.536 187.211 122.833 190.653 123.544 195.506Z" fill="#EA3333"/>
<path d="M128.037 193.358C128.633 193.606 130.628 195.168 130.861 195.207C130.336 194.301 129.752 193.431 129.113 192.603C129.113 192.603 130.317 191.302 133.841 192.721C133.841 192.721 133.193 194.113 134.203 194.868C135.214 195.623 135.188 193.241 135.123 192.903C135.058 192.564 137.52 193.476 138.815 195.402H142.494C142.494 195.402 137.144 187.969 131.328 187.592C125.511 187.214 122.804 190.716 123.555 195.506H127.286C127.364 194.608 127.623 193.176 128.037 193.358Z" fill="#C91D1D"/>
<path d="M130.162 190.495C132.094 190.364 134.026 190.748 135.762 191.61C137.497 192.472 138.975 193.78 140.045 195.402H142.494C142.494 195.402 137.144 187.969 131.328 187.592C125.511 187.214 122.804 190.716 123.555 195.506H125.33C125.123 191.393 127.558 190.612 130.162 190.495Z" fill="#FF3333"/>
<path d="M128.992 194.473C128.992 194.675 128.88 194.77 128.669 194.675C128.554 194.628 128.452 194.556 128.37 194.466C128.288 194.375 128.229 194.268 128.198 194.152C128.198 193.95 128.322 193.867 128.533 193.95C128.646 193.997 128.746 194.069 128.826 194.16C128.906 194.251 128.962 194.358 128.992 194.473V194.473Z" fill="#FF7E70"/>
<path d="M131.375 193.664C131.375 193.869 131.268 193.971 131.055 193.889C130.934 193.843 130.828 193.772 130.746 193.683C130.663 193.594 130.607 193.489 130.581 193.377C130.581 193.172 130.687 193.07 130.901 193.152C131.02 193.2 131.125 193.271 131.207 193.36C131.289 193.449 131.347 193.553 131.375 193.664V193.664Z" fill="#FF7E70"/>
<path d="M132.963 194.449C132.963 194.652 132.862 194.763 132.639 194.689C132.52 194.636 132.417 194.562 132.335 194.473C132.254 194.384 132.198 194.281 132.169 194.172C132.169 193.969 132.27 193.868 132.493 193.942C132.612 193.993 132.715 194.065 132.796 194.153C132.877 194.24 132.934 194.341 132.963 194.449V194.449Z" fill="#FF7E70"/>
<path d="M136.934 194.466C136.934 194.659 136.827 194.767 136.611 194.683C136.495 194.632 136.393 194.56 136.312 194.47C136.231 194.381 136.172 194.277 136.14 194.165C136.14 193.96 136.248 193.864 136.477 193.948C136.592 193.997 136.694 194.07 136.773 194.159C136.852 194.249 136.908 194.354 136.934 194.466V194.466Z" fill="#FF7E70"/>
<path d="M96.719 195.655L94.0469 198.188L107.595 220.127L110.644 219.633C111.742 217.444 112.314 215.025 112.314 212.571C112.314 210.118 111.742 207.698 110.644 205.51C106.83 198.125 101.16 194.73 96.719 195.655Z" fill="#D12424"/>
<path d="M96.4292 195.653L110.613 219.333C111.731 217.169 112.313 214.777 112.313 212.352C112.313 209.926 111.731 207.534 110.613 205.37C106.728 198.095 100.953 194.739 96.4292 195.653Z" fill="#EA3333"/>
<path d="M102.043 201.288C102.222 202.04 102.043 204.582 102.171 204.807C102.299 205.032 103.591 202.628 103.591 202.628C103.591 202.628 105.918 204.131 106.979 208.526C106.979 208.526 105.036 207.725 104.984 208.989C104.933 210.254 107.44 210.242 107.747 210.129C108.054 210.016 108.936 213.134 107.849 214.749L110.611 219.333C111.73 217.169 112.313 214.777 112.313 212.352C112.313 209.926 111.73 207.534 110.611 205.37C106.775 198.095 100.956 194.739 96.4292 195.653L99.217 200.274C100.202 200.449 101.915 200.762 102.043 201.288Z" fill="#C91D1D"/>
<path d="M106.57 203.88C108.949 207.637 110.944 212.157 108.782 216.29L110.611 219.333C111.73 217.169 112.313 214.777 112.313 212.352C112.313 209.926 111.73 207.534 110.611 205.37C106.775 198.095 100.956 194.739 96.4292 195.653L97.708 197.857C101.864 197.594 104.511 200.625 106.57 203.88Z" fill="#FF3333"/>
<path d="M101.708 202.654C101.505 202.654 101.29 202.424 101.227 201.984C101.183 201.814 101.184 201.624 101.228 201.454C101.273 201.283 101.358 201.145 101.467 201.066C101.67 201.066 101.885 201.295 101.961 201.736C102.001 201.909 101.997 202.098 101.951 202.268C101.904 202.437 101.817 202.575 101.708 202.654Z" fill="#FF7E70"/>
<path d="M104.083 205.036C103.968 205.043 103.853 205.014 103.764 204.953C103.674 204.893 103.616 204.806 103.602 204.711C103.564 204.621 103.57 204.522 103.619 204.436C103.668 204.35 103.756 204.283 103.865 204.251C104.072 204.206 104.28 204.35 104.346 204.566C104.385 204.657 104.379 204.757 104.33 204.845C104.281 204.933 104.193 205.001 104.083 205.036V205.036Z" fill="#FF7E70"/>
<path d="M104.884 207.414C104.774 207.438 104.663 207.386 104.574 207.27C104.486 207.155 104.427 206.983 104.41 206.793C104.385 206.703 104.372 206.604 104.372 206.504C104.371 206.403 104.384 206.304 104.409 206.214C104.434 206.123 104.47 206.043 104.515 205.98C104.56 205.917 104.613 205.872 104.669 205.849C104.726 205.826 104.784 205.825 104.841 205.846C104.897 205.868 104.95 205.911 104.996 205.973C105.042 206.034 105.079 206.113 105.105 206.203C105.13 206.293 105.144 206.391 105.145 206.492C105.179 206.674 105.171 206.872 105.122 207.044C105.074 207.216 104.988 207.349 104.884 207.414V207.414Z" fill="#FF7E70"/>
<path d="M107.268 212.185C107.064 212.185 106.847 212.082 106.783 211.865C106.741 211.775 106.744 211.675 106.792 211.586C106.84 211.497 106.928 211.427 107.038 211.391C107.155 211.387 107.27 211.419 107.359 211.48C107.449 211.541 107.507 211.627 107.523 211.721C107.561 211.81 107.556 211.907 107.509 211.993C107.461 212.08 107.375 212.148 107.268 212.185V212.185Z" fill="#FF7E70"/>
<path d="M96.0402 194.872L93.2524 197.404L107.388 219.333L110.568 218.839C111.716 216.649 112.314 214.229 112.314 211.774C112.314 209.319 111.716 206.899 110.568 204.709C106.589 197.303 100.686 193.91 96.0402 194.872Z" fill="#D12424"/>
<path d="M96.4292 194.875L110.61 219.333C111.73 217.097 112.313 214.626 112.313 212.119C112.313 209.613 111.73 207.142 110.61 204.906C106.726 197.357 100.964 193.893 96.4292 194.875Z" fill="#EA3333"/>
<path d="M102.05 200.684C102.229 201.46 102.05 204.085 102.191 204.318C102.331 204.551 103.596 202.067 103.596 202.067C103.596 202.067 105.934 203.619 106.982 208.159C106.982 208.159 105.04 207.331 104.989 208.637C104.937 209.943 107.441 209.931 107.748 209.827C108.055 209.724 108.936 212.918 107.863 214.586L110.61 219.333C111.73 217.096 112.313 214.624 112.313 212.116C112.313 209.609 111.73 207.136 110.61 204.9C106.777 197.386 100.964 193.92 96.4292 194.864L99.227 199.675C100.223 199.817 101.935 200.141 102.05 200.684Z" fill="#C91D1D"/>
<path d="M106.573 203.361C108.962 207.241 110.942 211.922 108.783 216.177L110.61 219.333C111.73 217.096 112.313 214.624 112.313 212.116C112.313 209.609 111.73 207.136 110.61 204.9C106.777 197.386 100.964 193.92 96.4292 194.864L97.7067 197.153C101.871 196.869 104.516 200.076 106.573 203.361Z" fill="#FF3333"/>
<path d="M100.926 201.86C100.72 201.86 100.488 201.744 100.424 201.532C100.359 201.32 100.424 201.098 100.668 201.07C100.913 201.041 101.093 201.176 101.171 201.397C101.248 201.619 101.132 201.821 100.926 201.86Z" fill="#FF7E70"/>
<path d="M103.813 205.034C103.582 205.05 103.352 204.993 103.17 204.874C102.988 204.756 102.869 204.585 102.836 204.396C102.756 204.212 102.767 204.01 102.867 203.833C102.967 203.656 103.147 203.518 103.369 203.448C103.597 203.452 103.817 203.518 103.994 203.635C104.171 203.753 104.295 203.916 104.346 204.099C104.397 204.281 104.372 204.472 104.275 204.642C104.179 204.811 104.016 204.949 103.813 205.034Z" fill="#FF7E70"/>
<path d="M104.088 206.621C104.033 206.628 103.978 206.626 103.924 206.614C103.871 206.602 103.821 206.581 103.777 206.552C103.733 206.524 103.696 206.487 103.668 206.446C103.641 206.405 103.623 206.359 103.616 206.312C103.591 206.266 103.577 206.217 103.577 206.167C103.577 206.117 103.59 206.067 103.614 206.022C103.639 205.977 103.675 205.937 103.72 205.905C103.765 205.874 103.818 205.851 103.874 205.84C103.93 205.828 103.988 205.828 104.045 205.839C104.101 205.849 104.154 205.871 104.2 205.902C104.245 205.932 104.282 205.972 104.308 206.017C104.334 206.061 104.347 206.111 104.348 206.161C104.366 206.206 104.374 206.254 104.371 206.301C104.367 206.349 104.353 206.396 104.329 206.438C104.305 206.481 104.271 206.519 104.23 206.551C104.188 206.582 104.14 206.606 104.088 206.621Z" fill="#FF7E70"/>
<path d="M107.266 211.39C107.061 211.39 106.844 211.286 106.78 211.066C106.741 210.976 106.746 210.877 106.794 210.79C106.841 210.703 106.928 210.633 107.036 210.596C107.241 210.596 107.458 210.701 107.522 210.92C107.561 211.01 107.556 211.109 107.508 211.197C107.461 211.284 107.374 211.353 107.266 211.39Z" fill="#FF7E70"/>
<path d="M121.976 196.451C122.497 196.168 122.937 195.751 123.253 195.243C123.398 194.853 123.457 194.434 123.424 194.019C123.39 193.603 123.267 193.2 123.061 192.839C122.64 191.906 122.031 191.074 121.274 190.396C120.695 189.833 119.982 189.435 119.206 189.239C118.819 189.139 118.416 189.125 118.024 189.199C117.631 189.274 117.259 189.433 116.934 189.668C116.615 189.912 116.376 190.249 116.248 190.634C116.121 191.019 116.11 191.434 116.219 191.825C115.745 191.096 115.094 190.503 114.329 190.105C113.564 189.706 112.711 189.515 111.853 189.551C110.8 189.605 109.807 190.071 109.083 190.85C108.726 191.232 108.467 191.697 108.331 192.206C108.196 192.714 108.186 193.248 108.304 193.761C108.449 194.264 108.74 194.711 109.138 195.042C109.537 195.374 110.025 195.575 110.538 195.619C109.901 195.382 109.208 195.344 108.55 195.51C107.891 195.676 107.296 196.039 106.841 196.551C106.386 197.063 106.091 197.702 105.995 198.386C105.898 199.069 106.004 199.767 106.3 200.388C106.604 200.963 107.034 201.458 107.557 201.837C108.079 202.215 108.68 202.467 109.312 202.572C110.612 202.777 111.941 202.597 113.142 202.052C114.299 201.51 115.402 200.858 116.436 200.103L121.976 196.451Z" fill="#FFCF08"/>
<path d="M121.322 196.406C121.558 196.064 121.719 195.675 121.795 195.266C121.87 194.856 121.859 194.435 121.76 194.03C121.661 193.625 121.478 193.246 121.223 192.919C120.968 192.591 120.646 192.321 120.279 192.129C119.913 191.936 119.51 191.824 119.097 191.8C118.684 191.777 118.27 191.842 117.885 191.992C117.499 192.142 117.149 192.373 116.858 192.669C116.568 192.966 116.343 193.322 116.2 193.712C115.813 192.983 115.216 192.388 114.489 192.005C113.761 191.621 112.936 191.467 112.121 191.563C111.77 191.584 111.43 191.694 111.131 191.882C110.833 192.069 110.586 192.329 110.413 192.637C110.288 193.011 110.279 193.415 110.387 193.794C110.494 194.174 110.714 194.511 111.016 194.762C111.632 195.252 112.341 195.61 113.1 195.812C111.695 195.725 110.309 196.176 109.221 197.076C108.952 197.263 108.732 197.512 108.579 197.803C108.426 198.093 108.345 198.417 108.342 198.745C108.39 199.012 108.504 199.261 108.673 199.471C108.842 199.681 109.06 199.845 109.309 199.947C109.808 200.148 110.34 200.251 110.878 200.25C112.869 200.338 114.862 200.151 116.803 199.694C117.895 199.463 118.937 199.034 119.878 198.429C120.82 197.816 121.483 196.852 121.723 195.748L121.322 196.406Z" fill="#EFA708"/>
<path d="M144.527 197.795C144.909 198.318 145.443 198.704 146.051 198.896C146.656 199.078 147.243 199.321 147.802 199.622C148.083 199.768 148.325 199.983 148.507 200.247C148.689 200.511 148.806 200.817 148.847 201.137C148.844 201.446 148.779 201.75 148.655 202.031C148.531 202.312 148.352 202.563 148.129 202.77C147.392 203.509 146.453 203.999 145.437 204.172C144.421 204.346 143.378 204.196 142.448 203.741C141.779 203.352 141.158 202.882 140.596 202.342L138.971 200.84L137.12 198.974C135.842 197.322 134.121 196.092 132.169 195.438C132.399 194.877 132.753 194.38 133.204 193.987C133.655 193.593 134.189 193.314 134.764 193.171C135.916 192.892 137.114 192.892 138.266 193.171C138.566 193.283 138.887 193.325 139.205 193.293C139.523 193.262 139.831 193.158 140.105 192.989C140.496 192.614 140.521 191.979 140.811 191.513C140.994 191.227 141.257 191.005 141.564 190.873C141.871 190.742 142.21 190.707 142.536 190.774C142.861 190.85 143.167 190.997 143.432 191.205C143.697 191.413 143.916 191.677 144.073 191.979C144.375 192.591 144.502 193.278 144.438 193.961C144.438 194.622 144.237 195.256 144.174 195.93C144.079 196.575 144.204 197.234 144.527 197.795V197.795Z" fill="#9FCC29"/>
<path d="M132.963 197.278C135.664 196.982 138.212 195.859 140.268 194.059C140.601 193.706 140.996 193.42 141.434 193.216C141.649 193.124 141.885 193.1 142.114 193.146C142.342 193.193 142.552 193.307 142.715 193.475C142.848 193.684 142.918 193.928 142.918 194.176C142.918 194.425 142.848 194.668 142.715 194.877C142.472 195.305 142.113 195.669 141.882 196.11C141.727 196.404 141.633 196.727 141.605 197.059C141.576 197.391 141.615 197.726 141.718 198.042C141.821 198.359 141.986 198.651 142.204 198.901C142.422 199.151 142.687 199.354 142.984 199.497C143.373 199.662 143.776 199.788 144.189 199.874C144.6 199.964 144.983 200.156 145.304 200.432C145.459 200.572 145.572 200.753 145.629 200.956C145.686 201.158 145.684 201.373 145.624 201.574C145.51 201.831 145.323 202.048 145.086 202.197C143.848 203.136 142.308 203.572 140.768 203.418C139.229 203.264 137.802 202.532 136.769 201.366C136.141 200.653 135.68 199.809 135.116 199.043C134.603 198.236 133.849 197.618 132.963 197.278Z" fill="#73A624"/>
<path d="M79.7985 247.884C82.5345 248.947 85.5846 248.996 88.3563 248.022C89.7294 247.531 90.9825 246.775 92.0377 245.799C93.0929 244.824 93.9275 243.651 94.4897 242.353C95.1261 240.628 95.5012 238.824 95.6037 236.997L96.4293 228.411C94.3318 228.769 92.1712 228.542 90.2042 227.757C89.0576 227.097 87.7819 226.669 86.456 226.5C85.7953 226.43 85.1276 226.548 84.5359 226.838C83.9441 227.129 83.4543 227.579 83.1272 228.135C82.7865 228.851 82.8389 229.706 82.4851 230.41C81.9394 231.307 81.051 231.965 80.0081 232.245C78.9752 232.514 77.9932 232.939 77.0987 233.502C76.6577 233.796 76.3342 234.225 76.1817 234.719C76.0293 235.212 76.0568 235.741 76.26 236.218C76.6793 236.96 77.6754 237.299 78.003 238.078C78.1056 238.432 78.115 238.804 78.0303 239.162C77.9457 239.519 77.7697 239.851 77.5181 240.128C77.0057 240.677 76.5411 241.265 76.1289 241.888C75.8379 242.495 75.7256 243.168 75.8041 243.833C75.8827 244.497 76.149 245.129 76.5745 245.659C77.4062 246.68 78.5248 247.452 79.7985 247.884V247.884Z" fill="#B55728"/>
<g style="mix-blend-mode:multiply" opacity="0.32">
<path d="M91.9311 231.209C89.5292 232.927 89.2764 234.873 88.3915 237.392C88.0414 238.158 87.4976 238.819 86.8144 239.308C86.1311 239.797 85.3324 240.097 84.4979 240.178C83.6227 240.316 82.7266 240.217 81.9022 239.89C81.0778 239.564 80.3548 239.022 79.8079 238.32C78.3288 236.374 78.0634 234.097 76.1418 234.619C76.0604 234.848 76.0273 235.092 76.0447 235.335C76.0621 235.578 76.1296 235.815 76.243 236.031C76.6475 236.781 77.6083 237.125 77.9243 237.913C78.0232 238.271 78.0323 238.648 77.9506 239.01C77.869 239.372 77.6992 239.707 77.4566 239.987C76.9623 240.543 76.5142 241.138 76.1166 241.768C75.8358 242.383 75.7275 243.064 75.8033 243.736C75.879 244.409 76.136 245.048 76.5464 245.584C77.3571 246.64 78.455 247.435 79.7068 247.874C82.3459 248.949 85.288 248.999 87.9617 248.014C89.2862 247.517 90.4949 246.752 91.5127 245.765C92.5305 244.778 93.3356 243.59 93.8779 242.277C94.5063 240.512 94.8768 238.666 94.9777 236.794C95.1927 234.415 95.4202 232.036 95.6351 229.657C94.3206 229.955 93.0674 230.48 91.9311 231.209V231.209Z" fill="#B55728"/>
</g>
<path d="M90.464 230.527C90.0241 230.171 89.498 229.905 88.9243 229.748C88.3482 229.597 87.7278 229.636 87.1828 229.858C86.9061 229.971 86.6651 230.141 86.4805 230.353C86.2958 230.565 86.1731 230.813 86.1228 231.075C86.0782 231.341 86.1155 231.611 86.2308 231.86C86.3461 232.109 86.5353 232.326 86.779 232.49C87.0269 232.647 87.3117 232.754 87.6129 232.803C87.914 232.852 88.224 232.843 88.5205 232.775C89.1127 232.626 89.657 232.36 90.1106 231.997C90.5649 231.657 91.0066 231.152 90.8299 230.659C90.6533 230.165 90.893 230.428 90.464 230.527Z" fill="#8D3800"/>
<path d="M87.8472 235.733C87.526 235.439 87.1285 235.261 86.7099 235.224C86.2913 235.187 85.8725 235.292 85.5115 235.526C85.1585 235.773 84.8791 236.126 84.7069 236.542C84.5348 236.959 84.4774 237.42 84.5417 237.871C84.6183 238.333 84.8105 238.763 85.0972 239.114C85.384 239.465 85.7542 239.723 86.1671 239.861C86.5666 239.994 86.9903 240.018 87.4003 239.93C87.8103 239.842 88.1938 239.645 88.5165 239.356C88.7383 239.163 88.9208 238.922 89.0525 238.649C89.1842 238.376 89.2621 238.075 89.2814 237.767C89.2692 237.447 89.1962 237.132 89.0669 236.843C88.9377 236.555 88.7549 236.298 88.5301 236.09C88.0931 235.6 88.3389 236.164 87.8472 235.733Z" fill="#8D3800"/>
<path d="M82.8773 241.147C82.3289 240.963 81.7587 240.842 81.1792 240.788C80.5932 240.733 80.006 240.88 79.5276 241.202C79.294 241.368 79.1199 241.596 79.0285 241.857C78.9371 242.118 78.9327 242.399 79.0158 242.662C79.2125 243.086 79.5807 243.419 80.0393 243.588C80.6647 243.905 81.3842 244.02 82.0864 243.915C82.4345 243.859 82.761 243.718 83.0341 243.508C83.3072 243.298 83.5176 243.025 83.6449 242.717C83.7572 242.402 83.7462 242.061 83.6141 241.753C83.482 241.445 83.2372 241.192 82.9238 241.038C82.6446 240.94 83.1564 241.147 82.8773 241.147Z" fill="#8D3800"/>
<g style="mix-blend-mode:multiply" opacity="0.55">
<path d="M150.307 206.875H150.243L150.115 206.761L149.974 206.66C149.937 206.62 149.893 206.586 149.845 206.56L149.344 206.156L149.229 206.068L148.83 205.765L148.715 205.677C148.06 205.172 147.199 204.529 146.146 203.797C146.449 203.688 146.741 203.553 147.02 203.393C146.194 203.246 145.408 202.933 144.712 202.472C144.015 202.012 143.424 201.415 142.974 200.719C141.279 198.524 139.725 195.181 136.385 195.156C134.93 195.198 133.504 194.753 132.34 193.894C129.437 191.548 125.661 192.254 121.847 193.339C119.667 193.964 117.77 195.298 116.466 197.124C115.605 198.385 114.488 199.445 113.704 200.441C112.317 202.207 110.622 204.453 108.143 204.642C106.422 204.781 104.444 204.062 104.29 202.119C104.277 202.002 104.277 201.883 104.29 201.766C101.722 204.768 99.4611 208.149 97.6374 210.394C97.5326 210.522 97.4211 210.644 97.3035 210.76C97.3035 210.912 97.3035 211.076 97.3035 211.24C97.4743 212.753 97.2408 214.284 96.626 215.682C96.0112 217.08 95.0363 218.297 93.7973 219.212C94.5679 221.912 95.0174 225.028 92.7698 226.39C92.232 226.709 91.6405 226.931 91.0231 227.046C91.0874 230.553 91.8194 232.647 90.0599 236.52C88.005 240.986 89.6874 243.206 85.4492 246.435C84.194 247.348 82.8093 248.075 81.3394 248.592H81.6219H81.8274C82.3411 248.655 82.8677 248.693 83.4456 248.718C84.0236 248.718 84.6272 248.718 85.2694 248.718H85.7061C86.3611 248.718 86.9904 248.618 87.7738 248.529C104.778 246.423 133.457 207.077 150.436 206.9L150.307 206.875Z" fill="#BD9749"/>
</g>
<path d="M95.0179 224.584C96.2959 215.822 100.613 207.789 107.213 201.892C110.528 199 114.453 196.897 118.695 195.739C122.936 194.582 127.385 194.4 131.707 195.207C138.208 196.603 143.877 200.419 149.367 204.171C153.206 206.835 154.192 208.231 158.095 210.894C158.773 211.355 163.06 212.06 163.137 212.867C163.277 214.147 161.14 216.043 159.861 216.414C145.628 220.485 132.022 226.491 119.422 234.266C113.267 238.108 107.354 242.282 100.802 245.369C94.2501 248.455 86.8789 250.35 79.751 249.147C81.5585 249.43 83.4088 249.232 85.1159 248.574C86.823 247.915 88.3269 246.819 89.4768 245.394C91.857 242.641 94.442 228.183 95.0179 224.584Z" fill="#FAD15F"/>
<path d="M139.922 201.908C132.533 198.13 122.735 194.756 114.784 199.226C108.809 202.587 104.961 207.573 101.547 213.352C98.132 219.131 98.0683 226.358 96.1954 232.817C95.0487 236.783 93.902 242.713 90.755 245.772C89.4415 247.079 87.854 248.084 86.1045 248.718C91.2961 248.345 96.3662 246.985 101.037 244.715C107.56 241.68 113.447 237.526 119.575 233.799C132.132 226.152 145.692 220.247 159.875 216.248C161.149 215.883 163.277 214.057 163.137 212.76C163.142 212.736 163.142 212.71 163.137 212.685C154.638 212.446 147.325 205.697 139.922 201.908Z" fill="#F9C22D"/>
<path d="M139.922 201.908C132.533 198.13 122.735 194.756 114.784 199.226C108.809 202.587 104.961 207.573 101.547 213.352C98.132 219.131 98.0683 226.358 96.1954 232.817C95.0487 236.783 93.902 242.713 90.755 245.772C89.4415 247.079 87.854 248.084 86.1045 248.718C91.2961 248.345 96.3662 246.985 101.037 244.715C107.56 241.68 113.447 237.526 119.575 233.799C132.132 226.152 145.692 220.247 159.875 216.248C161.149 215.883 163.277 214.057 163.137 212.76C163.142 212.736 163.142 212.71 163.137 212.685C154.638 212.446 147.325 205.697 139.922 201.908Z" fill="#F9C22D"/>
<g style="mix-blend-mode:multiply" opacity="0.55">
<path d="M150.192 209.011C144.541 208.919 139.07 210.953 134.903 214.696C129.806 218.882 124.99 223.217 118.339 224.691C110.172 226.491 104.324 221.53 100.706 215.258C98.081 220.756 97.8899 227.115 96.1954 232.938C95.0487 236.874 93.902 242.759 90.755 245.795C89.4415 247.091 87.854 248.089 86.1045 248.718C91.2961 248.348 96.3662 246.999 101.037 244.745C107.56 241.734 113.447 237.611 119.575 233.912C132.132 226.324 145.692 220.464 159.875 216.495C161.149 216.133 163.277 214.321 163.137 213.034C163.142 213.009 163.142 212.984 163.137 212.959C158.522 212.902 154.025 211.53 150.192 209.011V209.011Z" fill="#F2CC49"/>
</g>
<g style="mix-blend-mode:multiply" opacity="0.55">
<path d="M130.708 222.51C122.261 224.506 117.077 228.023 110.881 234.013C107.795 236.963 104.558 240.132 101.194 243.159L101.7 242.94C108.099 239.836 113.953 235.585 120.036 231.72C127.209 227.256 134.718 223.38 142.493 220.127C138.346 220.642 134.211 221.673 130.708 222.51Z" fill="#D68902"/>
</g>
<path d="M126.395 200.585C125.436 200.24 124.375 200.178 123.371 200.407C122.368 200.636 121.477 201.144 120.834 201.853C120.555 202.14 120.366 202.485 120.287 202.854C120.241 203.037 120.246 203.226 120.302 203.407C120.358 203.587 120.462 203.753 120.607 203.89C120.907 204.09 121.266 204.21 121.642 204.237C122.018 204.264 122.394 204.196 122.727 204.042C123.806 203.684 124.768 203.1 125.528 202.342C125.939 201.99 126.186 201.517 126.222 201.015C126.208 200.515 126.969 200.492 126.395 200.585Z" fill="#E9A000"/>
<path d="M116.799 208.543C116.252 208.235 115.621 208.139 115.014 208.271C114.407 208.403 113.863 208.755 113.473 209.266C113.27 209.494 113.143 209.788 113.114 210.101C113.085 210.414 113.155 210.729 113.313 210.995C113.524 211.18 113.775 211.305 114.044 211.36C114.312 211.414 114.589 211.396 114.849 211.307C115.435 211.23 115.995 211.001 116.478 210.641C116.719 210.454 116.9 210.194 116.998 209.895C117.095 209.596 117.105 209.273 117.026 208.968C116.826 208.387 117.226 208.103 116.799 208.543Z" fill="#E9A000"/>
<path d="M130.456 212.73C129.75 212.024 128.83 211.569 127.837 211.433C126.845 211.297 125.835 211.489 124.963 211.979C124.091 212.468 123.404 213.229 123.009 214.144C122.614 215.059 122.532 216.077 122.775 217.043C122.831 217.331 122.949 217.604 123.121 217.842C123.294 218.08 123.516 218.277 123.774 218.421C124.068 218.517 124.379 218.555 124.689 218.531C124.998 218.508 125.3 218.423 125.576 218.283C127.102 217.658 128.439 216.652 129.458 215.362C129.874 214.879 130.942 213.198 130.456 212.73Z" fill="#E9A000"/>
<path d="M142.086 203.711C141.393 204.063 140.699 204.842 140.963 205.638C141.226 206.433 142.1 206.677 142.849 206.616C143.295 206.605 143.732 206.48 144.126 206.249C144.325 206.139 144.497 205.977 144.628 205.777C144.758 205.577 144.843 205.346 144.875 205.102C144.888 204.763 144.799 204.429 144.62 204.152C144.442 203.875 144.185 203.672 143.89 203.573C143.294 203.368 142.651 203.417 142.086 203.711Z" fill="#E9A000"/>
<path d="M150.635 211.158C150.082 210.93 149.498 210.757 148.894 210.642C148.282 210.532 147.641 210.623 147.111 210.894C146.851 211.03 146.653 211.232 146.548 211.468C146.444 211.705 146.437 211.962 146.53 212.202C146.645 212.413 146.828 212.596 147.059 212.731C147.291 212.866 147.563 212.949 147.847 212.97C148.415 213.001 148.985 212.95 149.531 212.821C149.936 212.769 150.325 212.656 150.678 212.488C150.851 212.399 150.993 212.275 151.09 212.129C151.187 211.982 151.235 211.817 151.23 211.651C151.191 211.498 151.104 211.355 150.977 211.237C150.851 211.118 150.689 211.028 150.508 210.974C150.154 210.848 150.975 211.295 150.635 211.158Z" fill="#E9A000"/>
<path d="M140.635 216.703C139.754 216.296 138.781 216.111 137.805 216.165C137.318 216.2 136.848 216.357 136.443 216.621C136.038 216.884 135.712 217.244 135.498 217.666C135.306 218.095 135.295 218.579 135.468 219.015C135.641 219.451 135.983 219.806 136.423 220.005C136.971 220.167 137.557 220.167 138.105 220.005C138.8 219.871 139.455 219.589 140.022 219.18C140.3 218.97 140.514 218.691 140.64 218.374C140.766 218.057 140.8 217.713 140.739 217.378C140.556 216.69 141.273 216.402 140.635 216.703Z" fill="#E9A000"/>
<path d="M119.421 222.626C118.666 222.789 117.977 223.15 117.436 223.665C117.309 223.797 117.212 223.952 117.152 224.12C117.091 224.288 117.068 224.465 117.083 224.642C117.099 224.818 117.153 224.99 117.242 225.147C117.331 225.303 117.453 225.442 117.601 225.553C117.857 225.664 118.141 225.707 118.422 225.677C118.702 225.648 118.969 225.548 119.192 225.388C119.675 225.125 120.033 224.704 120.198 224.208C120.274 223.957 120.275 223.691 120.201 223.44C120.127 223.188 119.981 222.96 119.778 222.78C119.358 222.437 119.943 222.461 119.421 222.626Z" fill="#E9A000"/>
<path d="M105.058 228.129C104.273 228.318 103.563 228.727 103.022 229.303C102.48 229.88 102.131 230.598 102.019 231.366C101.937 231.878 102.023 232.402 102.264 232.866C102.392 233.096 102.583 233.288 102.816 233.422C103.049 233.556 103.316 233.627 103.588 233.628C104.36 233.628 104.899 232.913 105.304 232.28C105.708 231.647 106.002 231.108 106.333 230.556C106.536 230.294 106.67 229.989 106.725 229.667C106.781 229.345 106.756 229.015 106.652 228.704C106.499 228.481 106.283 228.304 106.029 228.194C105.775 228.084 105.494 228.046 105.218 228.083C104.715 228.129 105.598 228 105.058 228.129Z" fill="#E9A000"/>
<g style="mix-blend-mode:screen" opacity="0.32">
<path d="M138.179 202.71C136.561 200.681 134.241 199.326 131.672 198.909C129.126 198.513 126.526 198.638 124.031 199.277C118.063 200.678 112.626 203.757 108.367 208.145C107.012 209.307 106.152 210.938 105.96 212.707C106.037 213.721 106.415 214.689 107.045 215.49C107.675 216.29 108.529 216.887 109.5 217.205C111.452 217.8 113.522 217.904 115.524 217.509C120.331 216.739 125.032 215.416 129.532 213.568C131.418 212.936 133.215 212.067 134.881 210.984C136.493 209.865 137.688 208.248 138.281 206.384C138.567 205.453 138.6 204.463 138.376 203.515C138.152 202.567 137.68 201.694 137.008 200.987L138.179 202.71Z" fill="#FAD15F"/>
</g>
<path d="M55.9243 93.8586L65.3085 110.512L105.166 92.9509L80.0642 81.9202C80.0642 81.9202 62.0779 89.5976 55.9243 93.8586Z" fill="#EFEFEC"/>
<path d="M114.695 75.7988L102.783 93.8334L160.761 89.6004L152.115 72.3896L114.695 75.7988Z" fill="#EFEFEC"/>
<path d="M131.524 104.856L160.761 89.8623L102.262 92.5268L65.4551 110.512L131.524 104.856Z" fill="#E2B58B"/>
<path d="M71.0146 52.2468L103.494 98.5987L106.754 96.5211L76.6246 47.769C76.6246 47.769 71.0403 48.0658 71.0146 52.2468Z" fill="#716361"/>
<path d="M82.9277 53.2454L112.029 100.981L115.49 99.1959L88.9665 49.3582C88.9665 49.3582 83.2921 49.2063 82.9277 53.2454Z" fill="#716361"/>
<path d="M87.0709 165.571L128.967 166.107L149.183 152.89L160.761 89.8623L102.262 92.5644L65.4551 110.803L87.0709 165.571Z" fill="#EFEFEC"/>
<g style="mix-blend-mode:multiply">
<path d="M131.747 91.4507L102.464 92.785L65.4551 110.969L87.1899 165.573L129.316 166.107L141.7 158.076L131.747 91.4507Z" fill="#EAE6DC"/>
</g>
<path d="M128.992 166.107L149.192 152.89L160.761 89.8623L131.7 96.6175L128.992 166.107Z" fill="#EFEFEC"/>
<path d="M113.732 140.692C110.205 141.842 106.53 142.507 102.815 142.67C99.3633 143.048 95.8735 142.928 92.458 142.315L93.0182 151.811L115.49 150.835L113.836 141.022L113.732 140.692ZM99.3103 149.719L95.0895 149.922L94.7508 145.256C94.7508 144.419 98.8023 144.14 98.8804 144.99L99.3103 149.719ZM105.668 149.427L101.238 149.63L100.704 144.876C100.613 144.014 104.925 143.722 105.029 144.597L105.668 149.427ZM112.351 149.123L107.687 149.339L107.049 144.495C106.931 143.621 111.439 143.316 111.582 144.204L112.351 149.123Z" fill="#716361"/>
<path d="M97.2236 145.472L97.5194 149.428L98.8121 149.357L98.5272 145.804C98.5053 145.531 97.848 145.413 97.2236 145.472Z" fill="#716361"/>
<path d="M96.6028 145.481H96.3312H96.0983H95.9173H95.8526H95.7232H95.6456C95.6318 145.518 95.6318 145.559 95.6456 145.597L95.6586 149.428L97.2237 149.358L96.952 145.457L96.6028 145.481Z" fill="#716361"/>
<path d="M102.783 144.681L103.335 149.428L105.166 149.345L104.643 145.168C104.585 144.737 103.669 144.611 102.783 144.681Z" fill="#716361"/>
<path d="M102.871 144.691H102.625H102.412H102.244H102.132H102.065L101.998 144.761C101.986 144.806 101.986 144.855 101.998 144.901L102.334 149.093L103.577 149.428L103.174 144.663L102.871 144.691Z" fill="#716361"/>
<path d="M109.137 144.677L109.782 148.634L111.519 148.566L110.914 145.062C110.914 144.734 109.966 144.62 109.137 144.677Z" fill="#716361"/>
<path d="M108.825 144.686H108.476H108.185H107.967H107.895H107.735H107.647H107.56C107.544 144.723 107.544 144.763 107.56 144.8L108.142 148.223L109.931 148.634L109.218 144.663L108.825 144.686Z" fill="#716361"/>
<path d="M87.4867 140.141C89.8344 141.253 92.3501 141.918 94.9172 142.103H94.9808C97.5206 142.339 100.075 142.339 102.615 142.103C105.28 141.891 107.923 141.441 110.516 140.759V140.759C113.478 140.055 116.305 138.823 118.875 137.116C120.059 136.242 119.206 135.771 118.456 135.973C114.002 137.317 112.094 137.546 109.549 137.317L95.2225 138.662C92.7568 139.365 90.1713 139.462 87.6648 138.944C86.9904 138.984 86.4306 139.563 87.4867 140.141Z" fill="#716361"/>
<path d="M94.8408 132.907L95.2089 138.309L109.931 136.813L109.142 131.161C106.787 131.994 104.347 132.534 101.873 132.768C99.5409 133.085 97.1827 133.132 94.8408 132.907V132.907ZM102.912 133.641C102.912 133.087 105.619 132.754 105.685 133.322L106.132 136.439L103.319 136.73L102.912 133.641ZM97.9298 134.223C97.9298 133.669 100.559 133.35 100.559 133.918L100.874 136.979L98.2453 137.256L97.9298 134.223Z" fill="#716361"/>
<path d="M91.2964 131.65C92.9888 132.315 94.7779 132.676 96.587 132.718V132.718C98.3269 132.797 100.07 132.729 101.799 132.515C103.606 132.299 105.392 131.933 107.142 131.42C109.114 130.886 110.992 130.033 112.706 128.891C113.501 128.296 112.954 127.998 112.446 128.174C103.963 131.041 101.304 127.984 101.304 127.984C101.304 127.984 99.4278 131.623 91.3746 130.987C90.9315 130.906 90.5406 131.298 91.2964 131.65Z" fill="#716361"/>
<path d="M99.606 134.357L99.7537 136.721L100.4 136.632L100.252 134.546C100.252 134.357 99.9199 134.306 99.606 134.357Z" fill="#716361"/>
<path d="M104.372 133.564L104.56 135.927L105.166 135.827L104.994 133.75C104.977 133.551 104.642 133.514 104.372 133.564Z" fill="#716361"/>
<path d="M103.907 133.919H103.797H103.704H103.628H103.577L103.738 135.927L104.371 135.842L104.177 133.544H104.059L103.907 133.919Z" fill="#716361"/>
<g style="mix-blend-mode:multiply" opacity="0.55">
<g style="mix-blend-mode:multiply" opacity="0.55">
<path d="M79.1205 134.552L121.904 132.286C121.904 132.286 130.825 107.957 131.807 104.991C133.4 100.37 132.711 97.3523 135.018 93.0365L87.0094 100.153L65.624 110.72L65.9171 111.484C69.3454 114.73 79.1205 134.552 79.1205 134.552Z" fill="#D6C2A6"/>
</g>
</g>
<path d="M140.751 96.216C141.313 93.2736 138.944 90.586 138.614 87.5927C138.497 86.4179 138.696 85.2323 139.187 84.1683C139.679 83.1044 140.444 82.204 141.398 81.5678C141.799 81.2797 142.267 81.1083 142.753 81.071C142.995 81.0576 143.235 81.112 143.45 81.2285C143.665 81.345 143.846 81.5193 143.974 81.7334C144.401 82.5486 143.705 83.5039 143.071 84.1535C143.324 84.2518 143.594 84.2937 143.864 84.2767C144.134 84.2596 144.398 84.1839 144.638 84.0543C144.878 83.9248 145.09 83.7444 145.259 83.5246C145.429 83.3047 145.552 83.0504 145.622 82.7779C145.729 82.2156 145.658 81.6324 145.421 81.1156C145.183 80.5989 144.791 80.1765 144.304 79.9119C143.81 79.6655 143.27 79.5375 142.723 79.5375C142.175 79.5375 141.635 79.6655 141.142 79.9119C140.142 80.3955 139.274 81.1309 138.614 82.0518C137.733 83.1129 137.064 84.3465 136.644 85.6805C136.225 87.0146 136.065 88.4223 136.173 89.8217C136.31 91.2199 136.809 92.553 137.615 93.6791C138.421 94.8051 139.505 95.6819 140.751 96.216V96.216Z" fill="#FBDF6A"/>
<path d="M93.09 105.747C93.5329 102.536 93.0669 99.27 91.742 96.297C91.0555 94.8175 89.9848 93.5361 88.6346 92.5781C87.2844 91.62 85.7009 91.0182 84.039 90.8315C83.3979 90.7383 82.7429 90.8035 82.1347 91.0211C81.5265 91.2388 80.9848 91.6018 80.5598 92.0765C80.2198 92.6381 80.1027 93.3007 80.2303 93.9401C80.3579 94.5796 80.7215 95.1519 81.2531 95.55C81.8047 95.9233 82.4612 96.1235 83.1339 96.1235C83.8066 96.1235 84.4631 95.9233 85.0147 95.55C85.5522 95.1586 85.982 94.645 86.2664 94.0544C86.5507 93.4638 86.6808 92.8145 86.6452 92.1636C86.548 90.8544 85.9479 89.6282 84.9634 88.7274C84.5734 88.3159 84.0958 87.9915 83.5638 87.7765C83.0319 87.5616 82.4581 87.4612 81.8821 87.4824C81.3097 87.5256 80.7743 87.774 80.3803 88.179C79.9864 88.5841 79.762 89.1169 79.751 89.6736C80.3706 89.2477 81.1146 89.0254 81.874 89.0393C82.6334 89.0531 83.3682 89.3023 83.971 89.7504C84.5737 90.1986 85.0127 90.822 85.2236 91.5296C85.4345 92.2372 85.4063 92.9916 85.1431 93.6825C84.9375 94.2649 84.5167 94.7528 83.962 95.052C83.6802 95.1898 83.3625 95.2432 83.0494 95.2055C82.7362 95.1678 82.4416 95.0407 82.2031 94.8404C81.9451 94.5616 81.8023 94.2003 81.8023 93.8257C81.8023 93.4511 81.9451 93.0897 82.2031 92.811C82.4738 92.5417 82.8084 92.3407 83.1777 92.2257C83.5469 92.1106 83.9396 92.0851 84.3214 92.1512C85.0834 92.289 85.8006 92.6006 86.4141 93.06C88.2374 94.3536 89.6216 96.1449 90.39 98.205C91.1583 100.265 91.2759 102.501 90.7278 104.626L93.09 105.747Z" fill="#FBDF6A"/>
<g style="mix-blend-mode:multiply">
<path d="M127.404 139.027C126.129 139.838 124.778 140.585 123.516 141.206C115.676 145.006 107.249 144.55 99.2946 141.206C91.4072 137.846 84.7058 132.228 80.0453 125.068C77.6893 121.235 75.7736 117.152 74.3342 112.894L69.4263 115.301L88.3187 162.778L126.231 162.93C126.69 159.75 127.404 139.027 127.404 139.027Z" fill="#F1EAE2"/>
</g>
<path d="M157.814 92.1766C156.583 90.5893 155.188 89.1279 153.652 87.8147C152.106 86.4874 150.166 85.6716 148.111 85.4851C146.487 85.4507 144.9 85.9642 143.622 86.9381C142.344 87.912 141.453 89.286 141.102 90.8259C140.871 88.9148 139.893 87.1628 138.37 85.9312C136.847 84.6929 135.165 83.6516 133.366 82.8333C131.651 82.601 129.905 82.7097 128.235 83.1528C126.565 83.5959 125.005 84.3641 123.65 85.4108C122.39 86.2747 121.486 87.5432 121.097 88.9919C120.924 90.7485 121.232 92.5183 121.99 94.1221C122.89 96.9415 124.179 99.63 125.82 102.115C126.59 103.188 127.519 104.144 128.578 104.952L144.639 102.685C149.018 100.058 153.346 97.3191 157.571 94.469C157.945 94.2739 158.231 93.9518 158.376 93.5644C158.388 93.3077 158.345 93.0514 158.248 92.8122C158.151 92.573 158.003 92.3564 157.814 92.1766V92.1766Z" fill="#FBDF6A"/>
<path d="M155.517 92.9955L152.587 90.7304C151.389 89.6846 150.011 88.8842 148.525 88.3721C147.795 88.1179 147.008 88.0962 146.266 88.31C145.524 88.5237 144.86 88.963 144.361 89.5712C143.938 90.3462 143.614 91.1748 143.397 92.0362C143.322 92.5469 143.088 93.0181 142.73 93.3773C142.371 93.7364 141.909 93.9638 141.415 94.0243C140.92 94.0848 140.419 93.9752 139.99 93.7123C139.561 93.4495 139.228 93.0478 139.04 92.5691C138.397 91.6231 138.05 90.4906 137.446 89.5046C136.78 88.4759 135.897 87.6176 134.864 86.9944C133.831 86.3712 132.675 85.9995 131.483 85.9072C129.159 85.7771 126.859 86.4469 124.941 87.8125C123.065 89.1465 121.404 90.7787 120.018 92.6491C119.556 93.2353 119.157 94.208 119.787 94.701C120.417 95.194 120.995 94.701 121.458 94.3279C122.872 93.1421 124.17 91.8097 125.661 90.7171C127.149 89.5482 128.938 88.8621 130.802 88.7452C131.754 88.7005 132.703 88.8996 133.563 89.3248C134.424 89.7501 135.171 90.3884 135.737 91.1835C136.328 92.1028 136.598 93.1954 137.176 94.1014C137.842 95.1248 138.863 95.8428 140.027 96.1058C141.19 96.3689 142.406 96.1568 143.423 95.5137C144.261 94.771 145.004 93.9203 145.633 92.9822C145.947 92.5222 146.35 92.1361 146.818 91.849C147.285 91.562 147.806 91.3806 148.345 91.3167C148.965 91.3966 149.562 91.6097 150.097 91.9424C150.633 92.275 151.095 92.72 151.456 93.2487C152.162 94.317 153.072 95.224 154.129 95.9135C154.64 96.2016 155.239 96.2732 155.8 96.1133C156.078 96.0251 156.322 95.8494 156.5 95.6107C156.677 95.372 156.778 95.082 156.789 94.7809C156.777 93.9815 156.121 93.4485 155.517 92.9955Z" fill="#E5B348"/>
<path d="M108.342 86.8455C108.342 86.8455 113.671 78.291 121.432 80.7888C129.193 83.2865 128.991 91.1421 128.991 91.1421C128.991 91.1421 124.821 102.583 117.312 102.57C109.804 102.557 109.564 89.7833 108.342 86.8455Z" fill="#BE7139"/>
<g style="mix-blend-mode:multiply" opacity="0.55">
<path d="M126.17 83.6916C125.844 85.0787 125.129 86.3344 124.116 87.2999C122.088 89.1825 119.077 90.8428 116.418 89.1302C114.15 87.6398 113.218 84.9205 110.988 83.5086C109.989 84.446 109.1 85.5037 108.342 86.6593C109.602 89.627 109.602 102.57 117.3 102.57C124.998 102.57 128.992 90.9997 128.992 90.9997C128.843 88.3097 127.852 85.7436 126.17 83.6916V83.6916Z" fill="#C47F4C"/>
</g>
<path d="M113.394 107.747L133.009 105.089L136.934 104.25C135.601 104.032 134.285 103.717 132.996 103.308C130.109 101.76 128.97 98.9212 130.248 96.1986C131.097 94.3792 134.111 89.9017 130.768 88.4565C130.218 88.2446 129.632 88.1523 129.045 88.1855C127.76 88.2158 126.5 88.5526 125.365 89.1688C124.23 89.785 123.253 90.6636 122.512 91.734C121.093 93.8114 120.182 96.3018 117.649 97.2696C112.901 99.1406 114.357 92.6888 113.217 90.1081C112.69 89.0809 111.93 88.1963 111.001 87.5274C109.597 86.3318 107.904 85.5409 106.098 85.2368C104.292 84.9328 102.439 85.1267 100.732 85.7984C98.7066 86.7807 97.0619 88.4249 96.0593 90.4694C95.1026 92.3891 94.396 94.4279 93.9573 96.5341C93.6154 98.0696 93.1216 100.16 91.5387 100.857C89.9559 101.554 88.0312 99.3728 86.9169 98.276C84.7896 96.3018 80.9148 95.6953 78.2936 95.9534C73.4692 96.4954 69.7337 101.541 71.4305 106.276C72.5756 109.016 74.6157 111.268 77.2046 112.651L77.2806 112.573C77.6225 112.728 77.4072 112.767 77.7365 112.702C79.066 113.851 81.1934 113.734 82.8775 113.618C86.461 113.386 89.8673 113.076 93.4635 112.741C99.3263 112.199 105.1 111.205 110.875 110.728L114.028 110.496L113.394 107.747Z" fill="#FBDF6A"/>
<path d="M117.713 102.721C119.187 102.06 122.686 96.6756 124.352 98.6824C125.634 100.303 124.66 103.743 125.07 105.588L125.147 105.837L128.992 105.288C127.848 104.552 127.026 103.428 126.685 102.135C126.397 101.001 126.433 99.8112 126.788 98.6948C127.002 98.1879 127.103 97.6427 127.086 97.095C127.068 96.5472 126.931 96.0093 126.685 95.5164C126.134 95.1924 125.185 94.8434 124.686 95.3045C124.621 95.3045 123.673 96.015 122.699 96.551C121.9 97.0459 121.141 97.6002 120.43 98.2087C118.848 99.5079 116.936 100.369 114.893 100.702C112.586 100.963 111.83 99.5798 111.369 97.7226C110.984 96.2269 110.907 93.8462 109.69 92.5873C109.315 92.2117 108.864 91.9167 108.365 91.7213C107.866 91.526 107.33 91.4346 106.793 91.453C104.627 91.4293 102.519 92.1288 100.82 93.4349C98.7803 94.9582 97.2106 96.9978 96.2828 99.3305C95.8086 100.577 95.4241 101.823 94.9114 103.07C93.9244 105.401 92.0788 106.522 89.5154 104.69C87.6697 103.357 86.4649 101.686 84.2732 100.739C81.5687 99.5549 78.9669 99.2931 76.5829 100.627C71.7124 103.307 75.0833 108.766 79.5565 110.773C80.3127 111.109 80.3639 111.782 80.9792 110.773C81.5944 109.763 78.9284 108.43 78.4157 107.731C76.1599 104.977 79.8641 102.895 82.5813 103.357C85.2985 103.818 86.9519 106.398 89.6307 107.133C90.7647 107.392 91.9498 107.346 93.0586 106.999C94.1674 106.652 95.158 106.017 95.9239 105.164C97.8593 103.12 99.1538 100.402 100.743 98.109C101.769 96.6382 104.345 94.3697 106.511 96.0399C108.408 97.4609 108.498 100.452 110.241 102.135C112.368 104.154 115.419 103.768 117.713 102.721Z" fill="#E5B348"/>
<path d="M102.006 109.24C102.006 109.24 101.096 95.0881 112.525 97.2311C123.603 99.2854 124.227 106.995 124.227 106.995C124.227 106.995 106.024 113.082 102.006 109.24Z" fill="#BE7139"/>
<path d="M152.818 96.5275C152.818 96.5275 143.89 87.2994 135.892 95.9355C131.211 100.994 135.688 106.541 135.688 106.541L152.818 96.5275Z" fill="#BE7139"/>
<g style="mix-blend-mode:multiply" opacity="0.55">
<path d="M157.826 92.3095L157.086 91.388C154.915 89.9034 153.063 88.2396 150.011 89.5323C147.7 91.3752 146.18 94.7284 143.627 96.3026C141.073 97.8768 137.433 97.3265 134.841 98.4912C134.041 99.5864 133.066 100.542 131.955 101.32C131.409 102.141 130.693 102.836 129.856 103.357C129.019 103.878 128.08 104.213 127.103 104.34C125.912 104.554 124.689 104.499 123.522 104.178C122.355 103.857 121.275 103.278 120.361 102.484C120.259 102.484 116.236 101.358 116.147 101.358C110.26 101.896 114.014 105.441 102.509 104.686C101.135 105.575 99.547 106.079 97.912 106.145C94.9112 107.668 90.7995 107.847 87.3006 108.218C85.0405 108.448 81.0947 109.165 78.6174 107.988C77.8 107.608 76.897 107.452 75.9999 107.535C75.1029 107.618 74.2437 107.938 73.5097 108.461L72.603 109.114C73.7791 110.534 75.1972 111.735 76.7914 112.659L76.868 112.582C77.2128 112.736 76.9957 112.774 77.3277 112.71C78.6685 113.849 80.8138 113.734 82.5121 113.619C86.1259 113.389 89.5608 113.081 93.1874 112.749C99.0996 112.211 104.922 111.226 110.745 110.752L113.925 110.522L113.836 110.138C117.205 109.416 120.53 108.501 123.796 107.399C123.761 107.052 123.692 106.709 123.591 106.375L133.028 105.095L134.305 104.826C134.57 105.456 134.899 106.057 135.288 106.618L140.115 103.828L144.635 103.163C148.211 100.948 151.735 98.6319 155.221 96.2642C155.382 96.2542 155.541 96.2241 155.694 96.1746C155.893 96.1083 156.077 95.9996 156.231 95.8561C156.385 95.7126 156.507 95.5375 156.588 95.3427L157.571 94.6772C157.945 94.4757 158.231 94.143 158.375 93.7429C158.389 93.4787 158.348 93.2145 158.253 92.9675C158.159 92.7205 158.013 92.4963 157.826 92.3095V92.3095Z" fill="#C47F4C"/>
</g>
<path d="M65.4551 110.072L79.8213 128.779L118.941 125.568L132.169 104.952L65.4551 110.072Z" fill="#EFEFEC"/>
<g style="mix-blend-mode:multiply">
<path d="M89.6849 109.718L67.8374 111.429L81.0595 127.985L114.696 125.17C106.264 120.201 97.9875 114.94 89.6849 109.718Z" fill="#F2EBE5"/>
</g>
<g style="mix-blend-mode:multiply">
<path d="M142.357 139.565L144.245 105.747L141.141 106.208L140.622 139.859L129.094 163.327L128.992 166.107L130.335 165.223L141.433 146.277L148.628 153.143L149.122 152.823L149.642 149.966L142.357 139.565Z" fill="#EBE5DF"/>
</g>
<g style="mix-blend-mode:multiply" opacity="0.55">
<path d="M156.323 114.489L160.761 89.8623L132.169 105.022C132.169 105.022 139.13 122.317 142.375 126.396C145.11 124.909 156.323 114.489 156.323 114.489Z" fill="#DBC9B0"/>
</g>
<path d="M143.58 120.042L164.732 105.061L161.468 89.8623L132.169 105.099L143.58 120.042Z" fill="#EFEFEC"/>
<g style="mix-blend-mode:multiply">
<path d="M134.551 106.489L143.546 117.66L163.143 104.427L162.565 101.775C153.775 103.003 143.315 105.249 134.551 106.489Z" fill="#F2EBE5"/>
</g>
<circle cx="89.6787" cy="176.034" r="2.77975" fill="#73A624"/>
<path d="M149.545 180.456C148.72 181.907 146.357 181.476 145.069 180.702C143.782 179.929 142.054 178.087 143.522 175.643C144.991 173.199 147.512 174.79 148.799 175.563C150.087 176.337 150.37 179.005 149.545 180.456Z" fill="#73A624"/>
<path d="M174.08 119.835C175.514 121.091 173.941 124.196 172.417 125.83C170.892 127.464 167.852 129.571 165.47 127.349C163.089 125.128 166.167 121.937 167.692 120.303C169.216 118.668 172.645 118.578 174.08 119.835Z" fill="#BE7139"/>
<path d="M206.125 251.857C202.704 254.959 197.804 255.835 195.887 253.722C193.97 251.608 193.951 248.75 197.372 245.648C200.793 242.546 203.296 242.558 205.212 244.672C207.129 246.785 209.545 248.755 206.125 251.857Z" fill="#FF3333"/>
</svg>
