<svg width="223" height="236" viewBox="0 0 223 236" fill="none" xmlns="http://www.w3.org/2000/svg">
<path d="M180.339 185.545C135.523 211.419 70.9696 194.144 45.4697 149.977C19.9699 105.81 19.4253 62.166 64.2415 36.2914C109.058 10.4168 142.077 26.2365 167.577 70.4036C193.077 114.571 225.155 159.67 180.339 185.545Z" fill="#FBDF6A" fill-opacity="0.21"/>
<path d="M192.664 51.4854C186.255 45.9459 185.755 34.6938 191.534 28.0081C197.313 21.3225 204.271 18.6174 210.679 24.1568C217.088 29.6962 216.226 35.8708 210.447 42.5565C204.667 49.2421 199.072 57.0248 192.664 51.4854Z" fill="#FBDF6A" fill-opacity="0.21"/>
<path d="M210.602 182.042C216.592 188.032 214.337 201.229 205.995 209.571C197.654 217.912 186.581 219.135 182.966 215.678C179.352 212.221 179.524 202.353 187.865 194.011C196.206 185.67 204.612 176.053 210.602 182.042Z" fill="#FBDF6A" fill-opacity="0.21"/>
<path d="M14.688 149.64C22.87 147.448 33.1713 155.999 36.2245 167.394C39.2777 178.788 34.8003 188.989 29.9991 190.391C25.1979 191.793 16.7379 186.71 13.6848 175.315C10.6316 163.921 6.506 151.832 14.688 149.64Z" fill="#FBDF6A" fill-opacity="0.21"/>
<path d="M58.7648 67.4349L85.1713 107.368C85.1713 107.368 100.12 106.452 105.798 98.2415L91.8776 52.7211C91.8776 52.7211 69.0314 65.2969 58.7648 67.4349Z" fill="#BA5F49"/>
<g style="mix-blend-mode:multiply" opacity="0.75">
<path d="M93.6718 58.4387L91.9141 52.6928C91.9141 52.6928 69.0679 65.2686 58.8013 67.4066L64.4136 75.8959C76.4356 72.8664 83.3249 68.8464 93.6718 58.4387Z" fill="#8F5243"/>
</g>
<path d="M95.3544 77.4408C93.0485 72.5653 87.0784 70.5512 82.0197 72.9423C76.961 75.3334 74.7294 81.2241 77.0353 86.0997C79.3412 90.9752 85.3113 92.9893 90.37 90.5982C95.4287 88.2071 97.6603 82.3164 95.3544 77.4408Z" fill="#CCB1B1"/>
<path d="M93.0866 78.2675C93.9012 80.1017 93.9562 82.1835 93.2396 84.0574C92.523 85.9312 91.0931 87.4444 89.263 88.2657C88.3771 88.7297 87.4063 89.0095 86.4092 89.0882C85.4121 89.167 84.4093 89.043 83.4612 88.7239C82.513 88.4047 81.6392 87.897 80.8923 87.2312C80.1454 86.5654 79.5409 85.7554 79.1152 84.8499C78.6895 83.9444 78.4514 82.9622 78.4153 81.9625C78.3791 80.9627 78.5457 79.9661 78.905 79.0327C79.2642 78.0993 79.8087 77.2483 80.5057 76.5311C81.2026 75.8139 82.0375 75.2453 82.9602 74.8595C84.7551 73.974 86.8279 73.8355 88.7254 74.4741C90.623 75.1127 92.191 76.4766 93.0866 78.2675V78.2675Z" fill="#F0E1DD"/>
<path d="M84.0918 84.843C83.9332 84.2773 83.9435 83.6777 84.1214 83.118C84.2992 82.5583 84.6369 82.0629 85.0928 81.6929C85.635 81.1261 86.3851 80.8087 86.9231 80.2744C87.4612 79.7402 87.3345 78.9151 87.232 78.1591C87.1355 77.5217 87.0032 76.8903 86.8356 76.2678C85.1047 76.3782 83.2955 77.9562 82.4622 80.3021C81.4403 83.1606 82.2444 86.0694 84.2666 86.7886C84.5263 86.8792 84.798 86.9304 85.0728 86.9406C84.6659 86.2816 84.3367 85.5777 84.0918 84.843V84.843Z" fill="#8F4B46"/>
<path d="M87.9512 76.385C88.075 76.885 88.1829 77.4023 88.2749 77.9368C88.4186 78.4261 88.4491 78.9416 88.3641 79.4442C88.2791 79.9469 88.0807 80.4235 87.7841 80.838C86.9895 81.7029 85.0668 82.4163 84.9946 83.8352C85.0912 84.9077 85.516 85.9244 86.2112 86.747C87.0574 86.4102 87.8169 85.8872 88.4333 85.2166C89.0497 84.5461 89.5072 83.7453 89.7718 82.8737C90.7683 80.0202 89.9713 77.1205 87.9512 76.385Z" fill="#8F4B46"/>
<g style="mix-blend-mode:screen">
<path d="M100.184 100.467C100.907 99.9068 101.786 99.2259 102.683 98.5309C99.9728 91.0459 91.1704 66.6648 88.1879 58.0721C86.774 58.8609 85.315 59.5659 83.8183 60.1834C86.9191 68.4939 95.9441 92.0283 99.7187 100.755C99.9006 100.687 100.045 100.59 100.184 100.467Z" fill="#8F524D"/>
</g>
<g style="mix-blend-mode:multiply" opacity="0.55">
<path d="M81.703 83.9537C77.2625 79.7738 73.5831 74.667 69.6217 70.028C68.6961 68.9937 67.8448 67.8952 67.0742 66.7407C65.1511 67.4959 63.173 68.1029 61.1572 68.5563L85.337 105.276C85.337 105.276 98.8416 104.556 103.968 97.0516L102.406 91.9744C94.9186 92.5009 87.5756 89.4712 81.703 83.9537Z" fill="#8B4B3A"/>
</g>
<g style="mix-blend-mode:multiply" opacity="0.55">
<path d="M70.9936 65.4471C69.5698 66.067 66.5468 66.9295 65.2115 67.4367C69.346 74.4918 87.8892 104.089 88.4171 104.941C90.1212 104.646 91.8045 104.242 93.4567 103.732C91.9195 101.332 71.8806 67.3099 70.9936 65.4471Z" fill="#A75640"/>
</g>
<g style="mix-blend-mode:screen">
<path d="M92.6589 70.3625C92.8044 70.8547 92.8013 71.3788 92.6501 71.8692C92.4989 72.3595 92.2063 72.7942 91.809 73.1187C91.4116 73.4433 90.9273 73.6432 90.4167 73.6935C89.906 73.7437 89.3918 73.642 88.9386 73.4012C88.4854 73.1604 88.1132 72.7911 87.8689 72.3397C87.6246 71.8883 87.5189 71.3748 87.5652 70.8637C87.6114 70.3527 87.8075 69.8667 88.1289 69.4668C88.4503 69.0669 88.8826 68.7708 89.3717 68.6158C89.7021 68.5143 90.0493 68.479 90.3934 68.5119C90.7375 68.5448 91.0718 68.6452 91.3772 68.8074C91.6825 68.9697 91.9529 69.1905 92.1728 69.4574C92.3927 69.7242 92.5579 70.0318 92.6589 70.3625Z" fill="#B28784"/>
</g>
<g style="mix-blend-mode:screen">
<path d="M92.337 65.5996C92.4078 65.8886 92.3927 66.1919 92.2936 66.4723C92.1946 66.7528 92.0159 66.9982 91.7793 67.1785C91.5428 67.3588 91.2588 67.4662 90.9622 67.4874C90.6655 67.5087 90.369 67.4429 90.1091 67.2981C89.8491 67.1533 89.637 66.9359 89.4988 66.6724C89.3605 66.4089 89.3021 66.1109 89.3307 65.8148C89.3593 65.5187 89.4736 65.2374 89.6597 65.0054C89.8458 64.7734 90.0955 64.6008 90.3783 64.5087C90.5785 64.4504 90.7882 64.4324 90.9954 64.4558C91.2026 64.4791 91.4032 64.5434 91.5854 64.6449C91.7676 64.7464 91.9278 64.883 92.0569 65.0469C92.1859 65.2108 92.2811 65.3986 92.337 65.5996V65.5996Z" fill="#B28784"/>
</g>
<path d="M55.1912 65.0163L55.3109 71.3136C55.3109 71.3136 66.2493 71.6301 79.009 64.3357C91.7687 57.0412 96.3407 52.6773 96.3407 52.6773L91.701 47.2009C91.701 47.2009 79.5425 45.6314 55.1912 65.0163Z" fill="#F2F2F2"/>
<g style="mix-blend-mode:screen" opacity="0.9">
<path d="M60.128 68.0787C60.306 65.8538 60.6053 63.6403 61.0245 61.4482L61.1741 60.5261C59.2941 61.8805 57.2869 63.3921 55.2125 65.0437L55.3109 71.3136C56.7946 71.3122 58.2762 71.2025 59.7438 70.9852C59.8228 70.0105 59.9511 69.0404 60.128 68.0787V68.0787Z" fill="#F2F2F2"/>
</g>
<g style="mix-blend-mode:screen" opacity="0.9">
<path d="M81.7351 62.7504C92.4233 56.4311 96.322 52.6915 96.322 52.6915L91.7006 47.2009C89.5641 47.1121 87.4281 47.3849 85.3829 48.008C84.4594 52.9593 82.9297 57.8088 81.7351 62.7504Z" fill="#F2F2F2"/>
</g>
<path d="M55.1911 65.0162L55.3108 71.3135C55.3108 71.3135 66.2492 71.63 79.0089 64.3356C91.7686 57.0412 96.3405 52.6772 96.3405 52.6772L91.7009 47.2008C91.7009 47.2008 81.5839 59.3795 55.1911 65.0162Z" fill="#DEDEDE"/>
<g style="mix-blend-mode:screen" opacity="0.65">
<path d="M86.1136 52.0879C84.8781 53.0454 83.3603 54.0165 81.6189 55.0583C82.2773 56.9663 83.1377 58.9083 83.5978 60.2958C83.715 60.6739 83.8415 61.0449 83.9871 61.4597C86.4646 59.9501 88.4979 58.6234 90.1633 57.4646C88.688 55.7704 87.3347 53.9736 86.1136 52.0879V52.0879Z" fill="#C7CBC9"/>
</g>
<g style="mix-blend-mode:multiply" opacity="0.35">
<path d="M71.3018 60.137C66.965 61.8806 62.506 63.3034 57.9606 64.394C57.9856 64.6531 58.0106 64.9121 58.0194 65.1692C58.1119 67.1786 58.0094 69.1634 58.2685 71.161C64.3913 70.5019 70.3508 68.7752 75.8768 66.0593C73.7292 64.656 72.1173 62.5694 71.3018 60.137V60.137Z" fill="#8F838D"/>
</g>
<path d="M59.2239 56.3654L60.1227 62.5718C65.6908 61.3116 71.0473 59.2534 76.0262 56.461C84.3597 51.7907 86.5543 49.2545 86.5543 49.2545L83.1435 44.5698C83.1435 44.5698 76.7373 44.0532 67.6785 49.4321C64.519 51.2924 61.6669 53.6313 59.2239 56.3654V56.3654Z" fill="#F2F2F2"/>
<g style="mix-blend-mode:screen" opacity="0.9">
<path d="M82.971 46.521C83.1247 46.2846 83.2643 46.0299 83.4038 45.7752C83.4957 45.5839 83.6154 45.4071 83.759 45.2508L83.1842 44.5091C81.9247 44.4697 80.6649 44.5756 79.4298 44.8246C79.3717 45.6757 79.2952 46.5411 79.1975 47.3789C79.0998 48.2168 78.9919 49.0038 78.8576 49.87C80.2979 48.8414 81.6717 47.7228 82.971 46.521Z" fill="#F2F2F2"/>
</g>
<g style="mix-blend-mode:screen" opacity="0.9">
<path d="M72.6974 53.4129C73.3001 53.151 73.8907 52.8546 74.4721 52.5652C74.1504 52.115 73.995 51.5671 74.0326 51.0152C74.1081 49.3738 74.4011 47.7105 74.6137 46.0947C73.8881 46.3493 73.1239 46.6484 72.3647 46.973C71.8412 49.2839 71.5016 51.643 71.1385 53.9908C71.6273 53.8466 72.1659 53.6343 72.6974 53.4129Z" fill="#F2F2F2"/>
</g>
<g style="mix-blend-mode:screen" opacity="0.9">
<path d="M61.8288 56.5891C61.9282 56.2385 62.0384 55.8893 62.1594 55.5414C62.3903 54.6297 62.6304 53.7109 62.8846 52.8103C61.5677 53.8916 60.3433 55.0808 59.2239 56.3655L59.3585 57.3897C60.1715 57.0967 60.9895 56.8292 61.8288 56.5891Z" fill="#F2F2F2"/>
</g>
<path d="M73.5636 50.9392C69.0836 53.2991 64.3178 55.0714 59.384 56.2124L59.2101 56.3471L60.1231 62.5719C65.6913 61.3117 71.0478 59.2535 76.0266 56.4611C84.3601 51.7908 86.5547 49.2546 86.5547 49.2546L83.1936 44.634C80.1878 47.0321 76.9637 49.1431 73.5636 50.9392V50.9392Z" fill="#DEDEDE"/>
<g style="mix-blend-mode:screen" opacity="0.65">
<path d="M79.6885 47.2184C78.7308 47.8727 77.828 48.4844 76.8805 49.0575C77.6396 50.8875 78.6405 52.6326 79.5134 54.345C81.5985 53.0662 83.1195 52.0047 84.2045 51.1932C82.7744 49.8393 81.2132 48.543 79.6885 47.2184Z" fill="#C7CBC9"/>
</g>
<g style="mix-blend-mode:multiply" opacity="0.35">
<path d="M71.1148 54.3759C70.6961 53.8357 70.2633 53.2771 69.8762 52.6831C66.5205 54.2155 63.013 55.3913 59.4114 56.1911L59.2376 56.3258L60.1231 62.5719C64.9252 61.4894 69.5721 59.8084 73.955 57.5682C72.9186 56.5875 71.9683 55.5194 71.1148 54.3759V54.3759Z" fill="#8F838D"/>
</g>
<path d="M62.7254 54.2677C65.1957 52.2436 67.8669 50.478 70.6972 48.9983C73.2721 47.832 75.9583 46.9287 78.7149 46.3022C76.2934 48.0253 73.7628 49.5899 71.1391 50.9862C68.4186 52.2842 65.6065 53.381 62.7254 54.2677V54.2677Z" fill="#A1A8A6"/>
<g style="mix-blend-mode:multiply">
<path d="M68.0331 50.286C67.5767 50.5665 67.1605 51.0502 66.697 51.3215C65.851 52.0614 65.0646 52.8669 64.3451 53.7304C65.5016 53.3325 67.1275 52.7466 69.0667 51.9032C68.8269 49.9493 68.3024 50.1799 68.0331 50.286Z" fill="#A1A8A6"/>
</g>
<path d="M65.7157 52.8148C65.4363 52.8701 65.1564 52.6034 65.0229 52.2233C64.6336 51.0594 64.0646 49.0967 64.3403 48.8097C64.5344 48.0584 68.5361 50.16 68.5156 50.3225C68.4397 50.7917 68.2391 51.8559 67.9595 52.0432C67.2503 52.4016 66.4954 52.6613 65.7157 52.8148V52.8148Z" fill="#DEDEDE"/>
<g style="mix-blend-mode:screen" opacity="0.65">
<path d="M64.6479 48.6592C65.6938 48.8746 66.8326 50.1172 67.9408 52.0576C68.2245 51.8377 68.4302 50.799 68.4969 50.3369C68.5358 50.1602 65.2383 48.4948 64.6479 48.6592Z" fill="#DEDEDE"/>
</g>
<path d="M181.375 65.4364C178.163 61.9287 155.685 62.6361 144.799 70.7275C141.087 73.4835 138.907 77.5366 135.961 80.5579C121.451 95.7237 126.607 106.704 138.612 113.174C145.388 116.814 159.559 116.623 171.579 109.799C183.599 102.975 188.047 97.0649 189.255 90.2116C191.598 75.5027 181.375 65.4364 181.375 65.4364ZM173.582 90.919C171.785 90.5358 169.163 89.6663 166.467 89.1651C166.384 89.1723 166.3 89.1723 166.217 89.1651C164.479 89.2267 162.748 89.399 161.032 89.681C160.349 90.213 159.636 90.7051 158.896 91.1548C157.462 91.7191 156.241 92.7191 155.405 94.0141C155.11 94.5127 154.719 94.9484 154.256 95.2963C153.639 96.2629 153.093 97.2727 152.621 98.3177C150.161 103.756 147.789 95.7237 145.373 93.793C144.077 91.6412 156.303 78.2588 163.919 79.5557C164.918 79.5746 165.91 79.7334 166.865 80.0274L167.174 80.1453C169.959 80.5432 172.728 81.2359 175.468 81.8254C181.316 83.1224 179.415 92.2455 173.582 90.9632V90.919Z" fill="#EE9843"/>
<g style="mix-blend-mode:multiply" opacity="0.65">
<path d="M180.874 65.0679C176.293 62.0023 155.243 62.9603 144.799 70.7274C141.087 73.4835 138.907 77.5366 135.961 80.5579C124.619 92.3486 125.311 101.693 131.836 108.266L132.44 108.797C135.387 109.283 138.657 108.797 141.161 109.003C145.58 109.489 149.999 114.102 154.418 111.803C158.587 109.622 161.636 109.578 166.203 109.15C170.312 108.752 171.609 103.874 175.689 102.887C177.339 102.503 180.756 102.607 180.948 100.234C180.951 99.1006 181.208 97.9827 181.699 96.9617C183.614 93.7045 188.563 93.8961 187.355 89.4746C186.324 85.7753 186.928 81.7812 188.828 79.5999C187.562 71.6265 182.406 66.7776 180.874 65.0679ZM173.509 90.9632C171.712 90.58 169.09 89.7104 166.394 89.2093C166.311 89.2164 166.227 89.2164 166.144 89.2093C164.406 89.2709 162.674 89.4432 160.959 89.7252C160.275 90.2572 159.562 90.7493 158.823 91.199C157.389 91.7632 156.168 92.7633 155.331 94.0583C155.036 94.5569 154.646 94.9926 154.183 95.3405C153.566 96.3071 153.019 97.3168 152.547 98.3619C151.354 100.985 150.205 100.484 149.042 99.0398C147.451 98.0966 145.875 94.1319 144.269 92.8497C142.973 90.7126 155.199 77.3155 162.815 78.6125C163.813 78.6385 164.804 78.7971 165.761 79.0841C165.872 79.1193 165.98 79.1637 166.085 79.2167C168.869 79.5999 171.638 80.2926 174.378 80.8969C175.445 81.0942 176.398 81.6894 177.044 82.5623C180.845 85.0531 178.782 92.1128 173.582 90.9632H173.509Z" fill="#D98B43"/>
</g>
<path d="M131.483 99.3346C131.836 99.7031 132.19 100.072 132.558 100.425L133.692 99.9536C136.845 98.6567 139.673 96.6817 142.84 95.3847L145.786 94.1909C145.684 94.0764 145.571 93.9726 145.447 93.8814C144.151 91.7296 156.377 78.3472 163.993 79.6442C164.992 79.6631 165.984 79.8218 166.939 80.1158L167.248 80.2337C168.839 80.4695 170.43 80.7938 172.021 81.1327C173.347 79.4526 174.658 77.7134 176.101 76.0775C178.353 73.238 180.858 70.6087 183.584 68.2219C182.903 67.2506 182.166 66.3205 181.375 65.4364C178.164 61.9287 155.685 62.6361 144.799 70.7275C141.087 73.4835 138.907 77.5366 135.961 80.5579C129.804 86.9839 127.417 92.894 127.609 98.0524C128.31 97.8808 129.045 97.9101 129.73 98.1368C130.415 98.3636 131.022 98.7787 131.483 99.3346Z" fill="#822A00"/>
<path d="M187.533 90.4032C187.297 88.7672 185.367 85.908 185.618 84.3605C185.868 82.8129 187.871 81.4128 188.564 80.1011C189.875 77.7872 188.564 75.0753 187.754 72.7319C184.557 63.5057 177.442 57.1387 161.018 58.1115C152.518 58.5978 135.976 62.8277 127.374 78.7452C122.218 88.2661 123.647 95.0753 128.287 101.693C130.04 104.198 135.225 108.458 138.937 108.074C140.749 107.868 141.662 106.866 143.68 107.279C145.2 107.629 146.62 108.319 147.834 109.298C151.09 111.671 153.358 111.184 156.879 109.298C158.823 108.222 159.574 107.514 161.799 108.001C163.394 108.435 165.088 108.348 166.63 107.75C170.106 106.276 169.444 101.015 174.349 101.855C176.131 102.135 177.869 102.607 179.136 100.971C180.403 99.3346 178.959 97.6987 179.814 96.0627C181.626 92.6434 188.387 96.1512 187.533 90.4032ZM144.284 82.4003C150.515 69.2242 162.52 75.2227 163.655 77.625C168.147 86.9839 138.127 95.4879 144.284 82.4003Z" fill="#A73D22"/>
<g style="mix-blend-mode:screen" opacity="0.75">
<path d="M140.704 82.9899C141.218 78.8228 142.734 74.8426 145.123 71.3908C146.353 69.6733 148.009 68.3073 149.929 67.4282C151.849 66.5492 153.965 66.1878 156.068 66.3797C161.607 67.1903 165.628 72.8057 171.211 73.3068C172.355 73.4426 173.515 73.29 174.586 72.8627C175.656 72.4354 176.602 71.747 177.339 70.8602C178.039 69.9457 178.391 68.8117 178.332 67.6612C178.272 66.5108 177.805 65.4191 177.015 64.5816C176.269 63.9653 175.407 63.5043 174.481 63.2257C166.705 60.3944 158.182 60.3822 150.398 63.1912C142.614 66.0001 136.061 71.4522 131.881 78.5978C130.254 80.9606 129.499 83.8158 129.745 86.6744C130.216 89.4747 132.912 92.0392 135.637 91.4497C136.479 91.21 137.254 90.7795 137.903 90.1917C138.552 89.6038 139.057 88.8744 139.379 88.0598C140.036 86.4337 140.481 84.7297 140.704 82.9899Z" fill="#B1523A"/>
</g>
<g style="mix-blend-mode:screen" opacity="0.75">
<path d="M161.725 91.1991C156.598 93.6015 150.662 93.4393 145.02 93.9257C143.634 93.9872 142.272 94.3019 140.999 94.8542C140.366 95.1381 139.816 95.5775 139.398 96.1316C138.981 96.6856 138.711 97.3363 138.613 98.023C138.436 100.425 141.028 102.105 143.385 102.592C148.128 103.55 152.989 101.973 157.541 100.337C161.958 98.9495 166.166 96.9662 170.047 94.4416C173.949 91.8591 176.728 87.8937 177.825 83.3436C178.146 82.0136 178.064 80.6179 177.589 79.3347C177.044 78.082 175.748 76.785 174.437 77.1535C169.723 78.421 170.047 87.3082 161.725 91.1991Z" fill="#B1523A"/>
</g>
<path d="M169.664 63.9626C169.22 63.935 168.778 64.0429 168.397 64.2721L165.687 65.5544L166.467 66.9398C167.816 66.0483 169.376 65.5297 170.989 65.4364C170.695 64.8027 170.327 64.1247 169.664 63.9626Z" fill="#CC3131"/>
<path d="M184.571 75.8418C184.128 75.7997 183.683 75.9031 183.304 76.1365L180.594 77.4188L181.374 78.8042C182.714 77.8947 184.268 77.3511 185.882 77.2272C185.602 76.6376 185.234 75.9597 184.571 75.8418Z" fill="#CC3131"/>
<path d="M183.57 80.9854L180.521 79.9979C179.188 81.5202 177.767 82.9622 176.264 84.3163C177.594 84.5368 178.83 85.1472 179.814 86.0701C180.843 84.2216 182.106 82.5127 183.57 80.9854V80.9854Z" fill="#EAD4AF"/>
<path d="M134.768 89.5925L131.719 88.6198C130.39 90.141 128.968 91.5782 127.461 92.9234C128.794 93.1329 130.035 93.7329 131.026 94.6478C132.057 92.8127 133.314 91.1144 134.768 89.5925V89.5925Z" fill="#EAD4AF"/>
<path d="M165.451 95.8122C165.026 95.5874 164.546 95.4853 164.066 95.5175H161.297C161.061 96.5049 160.811 97.4777 160.561 98.4651C162.44 97.8765 164.419 97.6711 166.379 97.8609C166.384 97.4722 166.303 97.0873 166.143 96.7333C165.982 96.3793 165.746 96.0648 165.451 95.8122V95.8122Z" fill="#FFCC00"/>
<path d="M172.477 77.7871C172.025 77.5496 171.513 77.4473 171.004 77.4924H168.25L167.499 80.44C169.367 79.8701 171.331 79.6846 173.273 79.8947C173.3 79.5068 173.243 79.1176 173.106 78.7538C172.968 78.3901 172.754 78.0603 172.477 77.7871V77.7871Z" fill="#FFCC00"/>
<path d="M135.813 81.796C135.813 82.6213 135.946 83.4467 136.005 84.2868L141.691 83.0193C141.369 82.3985 141.245 81.6935 141.337 81.0001C139.531 81.4687 137.679 81.7356 135.813 81.796Z" fill="#14B661"/>
<path d="M145.241 69.9612L140.675 71.9214C140.499 72.6948 140.464 73.4937 140.571 74.2795C142.225 73.2695 144.023 72.5189 145.904 72.054C145.49 71.4331 145.26 70.7075 145.241 69.9612V69.9612Z" fill="#CC3131"/>
<path d="M153.122 70.4179L155.376 69.4452C155.003 69.2341 154.678 68.9464 154.425 68.6009C154.171 68.2554 153.993 67.86 153.903 67.4408C153.744 66.6105 153.35 65.8433 152.768 65.23L151.045 65.6132C151.752 67.2197 152.415 68.8115 153.122 70.4179Z" fill="#FFCC00"/>
<path d="M140.675 90.079L142.943 89.1063C142.566 88.8998 142.239 88.6134 141.985 88.2672C141.73 87.9209 141.555 87.5232 141.47 87.1019C141.311 86.2716 140.917 85.5044 140.336 84.8911L138.612 85.2743L140.675 90.079Z" fill="#FFCC00"/>
<path d="M164.067 70.2116L162.593 69.4452L159.309 72.0097L161.754 73.1003L164.067 70.2116Z" fill="#EAD4AF"/>
<path d="M149.16 101.973L147.687 101.206L144.402 103.756L146.862 104.847L149.16 101.973Z" fill="#EAD4AF"/>
<path d="M173.14 70.5802C173.103 70.3614 173.004 70.1578 172.856 69.9933C172.707 69.8289 172.514 69.7103 172.3 69.6516C172.085 69.5933 171.857 69.6063 171.65 69.6887C171.443 69.771 171.268 69.9183 171.152 70.1085C171.085 70.2408 171.031 70.3789 170.989 70.5212C170.607 71.9116 170.577 73.3755 170.901 74.7806C171.602 74.4464 172.388 74.3333 173.155 74.4563C172.84 73.717 172.763 72.8981 172.934 72.1129C173.109 71.6221 173.18 71.0999 173.14 70.5802V70.5802Z" fill="#14B661"/>
<path d="M162.432 99.8947C162.387 99.6768 162.284 99.4752 162.134 99.3116C161.983 99.148 161.791 99.0286 161.578 98.9661C161.363 98.915 161.138 98.9331 160.934 99.0178C160.73 99.1025 160.559 99.2495 160.444 99.4378C160.36 99.5617 160.304 99.7026 160.281 99.8504C159.899 101.241 159.868 102.705 160.193 104.11C160.889 103.758 161.677 103.634 162.447 103.756C162.132 103.012 162.055 102.188 162.226 101.398C162.392 100.915 162.462 100.404 162.432 99.8947V99.8947Z" fill="#14B661"/>
<path d="M145.006 98.1998L147.245 98.5387C147.481 97.0649 147.716 95.6648 147.967 94.2204L146.228 94.9131C145.831 95.9743 145.418 97.0944 145.006 98.1998Z" fill="#CC3131"/>
<path d="M133.118 96.269C133.245 96.3494 133.397 96.3809 133.545 96.3575L136.359 96.1364C136.197 94.4162 136.387 92.681 136.918 91.0369C136.106 91.4639 135.212 91.715 134.296 91.7738C133.913 93.0856 133.516 94.3973 133.133 95.709C133.03 95.9006 132.985 96.1364 133.118 96.269Z" fill="#FFCC00"/>
<path d="M177.619 92.3633C177.678 92.4055 177.745 92.4351 177.816 92.4504C177.887 92.4656 177.96 92.466 178.031 92.4518L180.845 92.2307C180.683 90.5135 180.859 88.7813 181.36 87.1312C180.554 87.56 179.665 87.8112 178.753 87.8681C178.37 89.1799 177.972 90.5063 177.574 91.818C177.53 91.9654 177.486 92.2307 177.619 92.3633Z" fill="#FFCC00"/>
<path d="M174.437 95.1489C174.425 93.6224 174.752 92.1122 175.394 90.7274H173.126L171.653 94.7952L174.437 95.1489Z" fill="#14B661"/>
<path d="M152.312 105.392L154.86 105.51C155.037 103.953 155.348 102.415 155.788 100.912C155.653 100.81 155.493 100.746 155.325 100.725C155.157 100.705 154.987 100.728 154.831 100.794L152.312 105.392Z" fill="#6BC3C3"/>
<path d="M129.288 83.2993L128.08 87.2787L130.334 87.4556L131.07 83.0341L129.288 83.2993Z" fill="#CC3131"/>
<path d="M135.991 75.5026C135.491 75.5687 135.018 75.7671 134.621 76.0774L132.456 77.5513L133.929 79.3641C134.936 78.0762 136.275 77.0876 137.803 76.5048C137.349 75.9513 136.701 75.5927 135.991 75.5026Z" fill="#6BC3C3"/>
<path d="M142.368 94.6184C141.869 94.6845 141.396 94.8829 140.998 95.1932L138.833 96.667L140.306 98.4799C141.34 97.1611 142.715 96.1517 144.283 95.5617C143.792 95.0103 143.105 94.672 142.368 94.6184V94.6184Z" fill="#6BC3C3"/>
<path d="M180.373 73.3213C180.614 73.4133 180.868 73.468 181.125 73.4835C181.315 73.4756 181.499 73.4174 181.66 73.3149C181.82 73.2123 181.95 73.0691 182.037 72.8998C182.124 72.7305 182.164 72.5411 182.154 72.3511C182.144 72.1611 182.083 71.9771 181.979 71.818C180.699 71.3433 179.474 70.7305 178.326 69.9905C177.722 70.639 177.118 71.2875 176.529 71.9507L180.373 73.3213Z" fill="#6BC3C3"/>
<path d="M168.913 92.6287C169.15 92.7315 169.405 92.7866 169.664 92.7908C169.856 92.7877 170.043 92.7324 170.207 92.6309C170.37 92.5293 170.502 92.3854 170.59 92.2144C170.678 92.0434 170.717 91.8517 170.705 91.6599C170.692 91.4682 170.628 91.2834 170.518 91.1254C169.239 90.6476 168.014 90.035 166.865 89.2979L165.068 91.2581L168.913 92.6287Z" fill="#6BC3C3"/>
<path d="M162.652 68.7231C162.89 68.8269 163.144 68.8868 163.404 68.8999C163.589 68.8988 163.771 68.851 163.934 68.7608C164.096 68.6707 164.233 68.5411 164.332 68.3841C164.429 68.2188 164.48 68.0305 164.48 67.8388C164.48 67.647 164.429 67.4587 164.332 67.2934C163.027 66.808 161.778 66.1855 160.605 65.4364L158.808 67.3524L162.652 68.7231Z" fill="#6BC3C3"/>
<path d="M146.522 78.0229C146.759 78.1288 147.015 78.1841 147.274 78.1851C147.466 78.1808 147.653 78.1253 147.816 78.0242C147.979 77.9232 148.112 77.7802 148.202 77.6103C148.296 77.444 148.346 77.2561 148.346 77.065C148.346 76.8738 148.296 76.6859 148.202 76.5196C146.921 76.0449 145.696 75.4321 144.549 74.6921L142.751 76.6523L146.522 78.0229Z" fill="#6BC3C3"/>
<path d="M161.282 61.7518C160.191 62.4321 158.973 62.8834 157.703 63.0783C157.791 63.7268 157.879 64.3753 157.953 65.0237C159.387 64.237 160.932 63.6706 162.534 63.3436C161.947 62.972 161.505 62.4102 161.282 61.7518V61.7518Z" fill="#14B661"/>
<path d="M151.649 92.1718C150.952 92.1264 150.272 91.9335 149.655 91.6057C149.038 91.278 148.498 90.8229 148.069 90.2705L146.375 92.0686C147.955 92.6288 149.444 93.4184 150.795 94.412C151.104 93.6751 151.384 92.9234 151.649 92.1718Z" fill="#EAD4AF"/>
<path d="M148.452 66.7186C147.755 66.6714 147.077 66.4777 146.46 66.1501C145.843 65.8224 145.302 65.3683 144.873 64.8173L143.179 66.6007C144.754 67.1784 146.241 67.972 147.598 68.9588C147.863 68.2071 148.158 67.4702 148.452 66.7186Z" fill="#EAD4AF"/>
<path d="M173.376 98.922C172.68 98.873 172.001 98.6785 171.385 98.351C170.768 98.0235 170.227 97.5704 169.797 97.0208L168.103 98.8041C169.679 99.3787 171.167 100.173 172.522 101.162L173.376 98.922Z" fill="#EAD4AF"/>
<path d="M166.821 88.3693C166.935 88.5099 167.082 88.6199 167.249 88.6894C167.416 88.7589 167.598 88.7856 167.778 88.7672C167.959 88.7427 168.13 88.6714 168.275 88.5602C168.42 88.449 168.533 88.3019 168.603 88.1334C168.515 86.8954 168.441 85.6574 168.353 84.4194C167.731 84.5927 167.133 84.8401 166.57 85.1563C166.268 86.0501 166.268 87.0185 166.57 87.9124C166.638 88.0726 166.722 88.2257 166.821 88.3693V88.3693Z" fill="#CC3131"/>
<path d="M158.086 90.1085C157.954 89.9316 157.659 89.9758 157.453 90.1085L155.862 90.4917C155.523 91.8623 155.199 93.233 154.86 94.6184H156.982C157.365 93.292 157.733 91.9508 158.101 90.6096C158.14 90.5313 158.159 90.4446 158.157 90.3572C158.154 90.2697 158.13 90.1843 158.086 90.1085V90.1085Z" fill="#14B661"/>
<path d="M135.799 102.282C137.47 102.171 139.148 102.366 140.749 102.857C140.911 101.943 141.088 101.03 141.264 100.116C139.794 100.247 138.315 100.247 136.845 100.116C136.492 100.897 136.138 101.59 135.799 102.282Z" fill="#14B661"/>
<path d="M116.621 121.564C113.942 123.385 113.695 127.459 111.579 129.912C109.464 132.364 105.88 132.962 104.316 135.686C102.752 138.411 104.177 142.234 104.376 145.571C104.276 148.805 103.705 152.008 102.682 155.078C101.945 158.183 101.665 161.642 103.378 164.186C104.423 165.549 105.83 166.591 107.439 167.193C109.048 167.795 110.793 167.933 112.477 167.591C115.899 166.831 119.151 165.447 122.072 163.508C130.731 158.807 138.989 153.403 146.763 147.349C148.582 146.085 150.112 144.449 151.252 142.549C151.788 141.608 152.043 140.533 151.986 139.452C151.929 138.371 151.564 137.329 150.932 136.449C149.773 135.177 147.897 134.856 146.589 133.74C144.216 131.734 143.966 128.384 140.998 126.737C138.432 125.645 135.663 125.108 132.874 125.162C131.139 125.085 129.425 124.749 127.789 124.164C126.182 123.504 124.825 122.304 123.13 121.567C122.132 121.021 121.013 120.735 119.876 120.734C118.739 120.734 117.619 121.019 116.621 121.564V121.564Z" fill="#D2923D"/>
<g style="mix-blend-mode:screen" opacity="0.32">
<path d="M114.916 145.042C119.753 143.153 118.553 139.96 120.518 136.13C121.572 133.897 123.243 132.013 125.335 130.702C127.498 129.24 130.11 128.595 132.705 128.882C135.648 129.416 137.885 131.529 140.743 132.183C142.18 132.479 143.672 132.336 145.027 131.771C143.888 129.951 143.155 127.882 141.029 126.691C138.462 125.6 135.694 125.063 132.905 125.116C131.169 125.04 129.455 124.704 127.82 124.119C126.212 123.459 124.855 122.259 123.161 121.522C122.16 120.988 121.043 120.714 119.909 120.724C118.775 120.734 117.662 121.027 116.671 121.578C113.992 123.398 113.745 127.473 111.63 129.925C109.514 132.378 105.93 132.976 104.366 135.7C102.802 138.424 104.006 141.672 104.355 144.781C107.711 146.223 111.493 146.316 114.916 145.042V145.042Z" fill="#A24B27"/>
</g>
<g style="mix-blend-mode:multiply" opacity="0.55">
<path d="M107.86 150.301C110.834 149.451 115.725 148.362 115.72 144.631C113.937 146.443 111.619 147.633 109.108 148.027C107.404 148.133 105.721 147.602 104.386 146.538C104.307 148.275 104.033 149.998 103.571 151.674C104.952 151.31 106.383 150.692 107.86 150.301Z" fill="#B9866E"/>
</g>
<g style="mix-blend-mode:multiply" opacity="0.55">
<path d="M119.326 132.368C120.063 131.86 120.834 131.404 121.634 131.001C123.483 130.436 125.284 129.722 127.018 128.866C128.359 127.786 129.362 126.344 129.909 124.711C129.171 124.586 128.446 124.393 127.743 124.134C127.203 123.896 126.681 123.62 126.18 123.307V123.307C125.745 124.67 125.119 125.963 124.319 127.148C122.933 129.135 119.887 130.126 119.326 132.368Z" fill="#B9866E"/>
</g>
<g style="mix-blend-mode:multiply" opacity="0.55">
<path d="M135.587 142.035C132.911 143.106 129.803 142.118 128.608 145.869C128.225 147.438 127.417 148.871 126.274 150.012C126.062 150.205 125.816 150.39 125.588 150.578C129.047 150.982 131.326 146.646 133.812 144.613C135.302 143.653 136.618 142.447 137.705 141.046C137.017 141.413 136.31 141.743 135.587 142.035V142.035Z" fill="#B9866E"/>
</g>
<g style="mix-blend-mode:multiply" opacity="0.55">
<path d="M131.685 133.446C131.649 133.556 131.619 133.667 131.596 133.78C132.919 133.282 134.293 132.93 135.693 132.729C138.536 132.222 141.124 130.766 143.035 128.6C142.481 127.813 141.76 127.158 140.924 126.681C139.744 126.075 138.469 125.675 137.155 125.499C137.043 126.965 136.503 128.367 135.6 129.528C134.473 131.013 132.511 131.882 131.685 133.446Z" fill="#B9866E"/>
</g>
<g style="mix-blend-mode:multiply" opacity="0.55">
<path d="M150.833 136.423C150.677 139.487 148.852 142.052 144.473 142.956C140.095 143.86 139.729 148.313 136.069 150.069C132.408 151.824 128.754 150.744 126.505 153.964C125.776 155.014 124.805 155.873 123.675 156.469C122.545 157.066 121.288 157.382 120.01 157.391C117.463 157.444 116.582 160.886 114.769 162.134C113.681 162.888 112.499 163.497 111.254 163.946C107.063 165.418 104.365 163.628 102.211 160.734C102.307 161.983 102.701 163.189 103.36 164.253C104.415 165.607 105.829 166.638 107.441 167.229C109.052 167.819 110.797 167.944 112.477 167.591C115.899 166.831 119.152 165.447 122.073 163.508C130.731 158.807 138.989 153.403 146.763 147.349C148.583 146.085 150.113 144.449 151.252 142.549C151.788 141.608 152.043 140.533 151.986 139.452C151.93 138.371 151.564 137.329 150.933 136.45L150.833 136.423Z" fill="#B9866E"/>
</g>
<path d="M146.687 144.42C146.433 145.709 146.329 146.77 145.123 147.412C143.835 148.11 142.325 148.272 140.919 147.863C140.725 149.596 141.038 150.696 139.191 151.471C137.903 152.011 136.51 152.25 135.116 152.171C134.783 153.42 134.928 154.083 133.718 154.743C132.207 155.602 130.448 155.921 128.733 155.646C127.469 158.718 125.023 160.6 122.394 159.757C122.159 160.722 121.553 161.555 120.706 162.074C119.072 162.985 117.18 163.323 115.332 163.034C113.484 165.754 112.3 167.116 109.265 167.128L132.283 186.983C141.472 184.795 149.919 180.21 156.762 173.694L150.231 143.169C149.248 144.016 147.983 144.462 146.687 144.42V144.42Z" fill="#BE4C1B"/>
<path d="M115.352 165.502C119.812 173.208 125.904 179.843 133.2 184.943C133.2 184.943 125.014 168.735 115.352 165.502Z" fill="#8F3300"/>
<path d="M123.1 161.926C123.1 161.926 127.421 175.301 138.433 183.178C138.433 183.178 131.723 166.114 123.1 161.926Z" fill="#8F3300"/>
<path d="M129.882 157.826C132.221 166.456 136.945 174.252 143.511 180.319C143.511 180.319 137.255 162.823 129.882 157.826Z" fill="#8F3300"/>
<path d="M136.323 154.402C136.323 154.402 138.763 168.811 147.369 177.617C147.369 177.617 143.011 160.698 136.323 154.402Z" fill="#8F3300"/>
<path d="M142.467 151.291C143.136 159.815 145.933 168.033 150.601 175.194C150.601 175.194 148.587 159.72 142.467 151.291Z" fill="#8F3300"/>
<path d="M147.672 147.484C147.879 156.273 149.871 164.927 153.525 172.921C153.525 172.921 152.882 155.314 147.672 147.484Z" fill="#8F3300"/>
<g style="mix-blend-mode:multiply" opacity="0.5">
<path d="M141.514 170.204C136.803 171.217 131.893 170.715 127.485 168.769C125.174 167.868 122.881 166.9 120.636 165.821C119.32 165.202 118.07 164.405 116.79 163.654C115.066 166.175 113.997 167.443 111.128 167.5L132.585 185.849C141.112 183.796 148.946 179.523 155.29 173.462L153.136 163.466C149.856 166.609 145.87 168.919 141.514 170.204Z" fill="#9E5838"/>
</g>
<g style="mix-blend-mode:screen" opacity="0.32">
<path d="M133.288 127.092C133.134 127.052 132.973 127.044 132.815 127.07C132.658 127.095 132.508 127.154 132.374 127.241L126.743 129.9C125.894 130.249 125.097 130.716 124.377 131.286C123.642 131.875 123.165 132.728 123.048 133.662C122.996 134.099 123.088 134.54 123.308 134.921C123.528 135.301 123.865 135.6 124.27 135.772C124.668 135.842 125.077 135.802 125.455 135.658C125.833 135.513 126.164 135.269 126.414 134.952C126.934 134.313 127.358 133.603 127.672 132.842C128.002 132.079 128.488 131.394 129.1 130.831C130.407 129.805 132.458 129.941 133.318 128.385C133.712 128.044 133.77 127.292 133.288 127.092Z" fill="#B27B60"/>
</g>
<g style="mix-blend-mode:screen" opacity="0.32">
<path d="M106.412 139.403L105.959 141.906C105.811 142.442 105.821 143.008 105.988 143.538C106.261 143.945 106.682 144.23 107.162 144.331C107.641 144.432 108.141 144.342 108.555 144.079C110.035 143.277 110.64 141.475 111.437 139.957C112.321 138.336 113.566 136.939 115.074 135.875C115.616 135.547 116.12 135.161 116.576 134.723C116.811 134.499 116.993 134.226 117.108 133.923C117.222 133.62 117.267 133.295 117.239 132.972C117.14 132.583 116.918 132.237 116.605 131.986C116.292 131.735 115.905 131.593 115.505 131.582C114.697 131.571 113.898 131.749 113.172 132.103C111.951 132.557 110.781 133.136 109.679 133.831C108.585 134.549 107.704 135.546 107.126 136.721C106.777 137.581 106.537 138.483 106.412 139.403V139.403Z" fill="#B27B60"/>
</g>
<g style="mix-blend-mode:screen" opacity="0.32">
<path d="M138.438 139.029C137.784 139.399 137.166 139.833 136.595 140.322C135.206 141.333 133.531 141.874 131.814 141.868C133.407 140.596 134.779 139.067 135.872 137.346C136.97 135.616 138.613 134.301 140.541 133.611C141.05 133.47 141.583 133.447 142.101 133.545C142.62 133.643 143.108 133.858 143.53 134.175C143.932 134.54 144.2 135.029 144.293 135.565C144.387 136.1 144.299 136.651 144.045 137.131C143.741 137.542 143.351 137.88 142.901 138.121C142.451 138.363 141.953 138.501 141.444 138.526C140.422 138.534 139.407 138.704 138.438 139.029V139.029Z" fill="#B27B60"/>
</g>
<g style="mix-blend-mode:screen" opacity="0.32">
<path d="M119.279 145.133C119.443 145.423 119.681 145.664 119.969 145.831C120.256 145.999 120.583 146.087 120.916 146.086C121.591 146.082 122.254 145.902 122.839 145.563C125.282 144.018 127.323 141.913 128.791 139.422C129.133 138.942 129.47 138.211 129.058 137.815C128.927 137.703 128.772 137.621 128.605 137.577C128.437 137.532 128.262 137.526 128.092 137.558C125.054 138.096 122.288 139.649 120.248 141.965C119.835 142.411 119.505 142.927 119.271 143.489C119.163 143.75 119.108 144.029 119.109 144.312C119.111 144.594 119.168 144.873 119.279 145.133V145.133Z" fill="#B27B60"/>
</g>
<g style="mix-blend-mode:screen" opacity="0.32">
<path d="M111.08 152.746C110.349 153.218 109.569 153.609 108.754 153.911C107.676 154.154 106.636 154.543 105.663 155.069C105.201 155.408 104.837 155.862 104.606 156.387C104.376 156.911 104.287 157.487 104.35 158.056C104.43 158.611 104.661 159.133 105.018 159.565C105.375 159.997 105.844 160.322 106.373 160.505C106.975 160.659 107.603 160.68 108.213 160.565C108.823 160.449 109.4 160.202 109.904 159.839C110.914 159.092 111.833 158.229 112.64 157.266C113.448 156.295 114.432 155.485 115.541 154.88C116.438 154.459 117.482 154.291 118.35 153.844C118.816 153.659 119.225 153.354 119.536 152.961C119.847 152.568 120.05 152.1 120.124 151.604C120.12 151.197 119.997 150.801 119.769 150.464C119.542 150.128 119.22 149.865 118.844 149.71C118.076 149.422 117.229 149.418 116.457 149.699C115.665 150.005 114.913 150.403 114.215 150.887C113.193 151.507 112.134 152.135 111.08 152.746Z" fill="#B27B60"/>
</g>
<path d="M121.928 125.012L121.595 124.923C121.424 124.773 121.221 124.664 121.002 124.605C120.782 124.547 120.552 124.54 120.329 124.586C119.888 124.706 119.478 124.919 119.128 125.212C118.481 125.697 117.924 126.292 117.483 126.969C117.29 127.204 117.162 127.487 117.114 127.787C117.065 128.088 117.097 128.396 117.205 128.68C117.301 128.82 117.429 128.935 117.578 129.016C117.728 129.096 117.894 129.139 118.064 129.14C118.399 129.151 118.733 129.088 119.041 128.954C119.914 128.648 120.71 128.153 121.371 127.505C121.824 127.098 122.128 126.55 122.231 125.95C122.223 125.376 122.483 125.071 121.928 125.012Z" fill="#652700"/>
<path d="M105.151 140.656C105.65 140.789 106.193 140.559 106.621 140.226C107.096 139.908 107.498 139.492 107.802 139.006C107.963 138.755 108.07 138.474 108.118 138.18C108.166 137.885 108.153 137.585 108.079 137.296C108.004 137.023 107.841 136.783 107.615 136.613C107.39 136.443 107.114 136.352 106.831 136.356C106.807 136.335 106.78 136.318 106.75 136.307C106.72 136.296 106.688 136.291 106.656 136.293C106.624 136.294 106.593 136.302 106.564 136.315C106.535 136.329 106.509 136.348 106.488 136.372L105.888 136.48C105.37 136.793 104.958 137.254 104.703 137.803C104.449 138.352 104.365 138.965 104.461 139.562C104.475 139.788 104.545 140.006 104.666 140.197C104.786 140.389 104.953 140.546 105.151 140.656Z" fill="#B27B60"/>
<path d="M135.495 136.014C134.991 135.757 134.431 135.629 133.865 135.64C133.299 135.651 132.744 135.801 132.25 136.078C131.878 136.274 131.566 136.567 131.346 136.926C131.097 137.254 130.987 137.667 131.04 138.075C131.123 138.405 131.313 138.697 131.579 138.907C131.846 139.117 132.175 139.233 132.515 139.236C133.197 139.229 133.865 139.037 134.447 138.679C134.768 138.56 135.059 138.372 135.3 138.127C135.541 137.883 135.725 137.589 135.84 137.266C136.087 136.404 136.07 136.399 135.495 136.014Z" fill="#652700"/>
<path d="M123.546 133.063C123.104 132.953 122.638 132.987 122.216 133.161C121.795 133.334 121.439 133.638 121.202 134.028C120.727 134.831 120.455 135.739 120.409 136.672C120.343 136.928 120.338 137.196 120.393 137.455C120.447 137.714 120.561 137.957 120.725 138.165C121.199 138.595 121.943 138.347 122.55 138.009C123.537 137.375 124.318 136.467 124.798 135.396C124.975 135.108 125.071 134.778 125.076 134.44C125.081 134.102 124.995 133.769 124.827 133.476C124.343 132.883 124.196 133.236 123.546 133.063Z" fill="#652700"/>
<path d="M107.013 156.499C107.328 155.785 107.53 155.026 107.612 154.25C107.662 154.08 107.675 153.901 107.651 153.725C107.627 153.55 107.567 153.381 107.473 153.231C107.399 153.162 107.311 153.11 107.215 153.079C107.119 153.047 107.017 153.037 106.917 153.05C106.817 153.062 106.72 153.097 106.635 153.151C106.549 153.204 106.476 153.276 106.422 153.361L106.036 153.402L105.953 153.379L105.843 153.457C105.389 153.516 104.972 153.743 104.675 154.092C104.383 154.445 104.141 154.837 103.955 155.256C103.767 155.552 103.645 155.885 103.595 156.231C103.546 156.578 103.571 156.932 103.669 157.268C103.836 157.591 104.111 157.843 104.446 157.982C104.782 158.12 105.155 158.135 105.501 158.024C105.846 157.891 106.159 157.686 106.42 157.423C106.681 157.161 106.883 156.846 107.013 156.499V156.499Z" fill="#652700"/>
<path d="M114.54 159.843C114.936 160.012 115.367 160.076 115.795 160.031C116.222 159.985 116.631 159.831 116.982 159.583C117.694 159.072 118.31 158.438 118.8 157.711C118.992 157.502 119.142 157.257 119.242 156.99C119.285 156.86 119.291 156.72 119.261 156.587C119.23 156.453 119.164 156.33 119.07 156.231C118.974 156.15 118.862 156.091 118.741 156.059C118.62 156.027 118.493 156.022 118.37 156.044C118.123 156.103 117.878 156.217 117.635 156.259C117.089 156.25 116.547 156.172 116.021 156.025C115.553 155.984 115.084 156.089 114.679 156.326C114.273 156.564 113.952 156.922 113.76 157.35C113.562 157.79 113.532 158.286 113.676 158.745C113.82 159.205 114.128 159.595 114.54 159.843V159.843Z" fill="#652700"/>
<path d="M125.327 148.475C125.595 148.097 125.818 147.689 125.99 147.259C126.057 147.137 126.093 147.001 126.096 146.862C126.099 146.723 126.068 146.585 126.007 146.461C125.781 146.169 125.324 146.279 124.975 146.382L123.26 146.996C122.836 147.125 122.432 147.312 122.06 147.551C121.686 147.799 121.423 148.184 121.328 148.623C121.289 148.933 121.356 149.247 121.518 149.514C121.68 149.781 121.928 149.985 122.221 150.092C122.527 150.195 122.852 150.226 123.172 150.185C123.492 150.143 123.799 150.03 124.069 149.853C124.577 149.484 125.006 149.015 125.327 148.475V148.475Z" fill="#652700"/>
<path d="M134.776 148.225C134.676 147.872 134.443 147.572 134.126 147.388C133.809 147.203 133.433 147.149 133.077 147.237C132.707 147.344 132.367 147.537 132.086 147.8C131.805 148.063 131.591 148.39 131.461 148.752C131.193 149.461 131.094 150.223 131.171 150.977C131.157 151.099 131.17 151.222 131.21 151.338C131.251 151.454 131.317 151.559 131.403 151.646C131.536 151.718 131.686 151.755 131.837 151.751C131.988 151.747 132.136 151.704 132.265 151.625C133.194 151.224 133.964 150.525 134.453 149.638C134.726 149.221 134.84 148.72 134.776 148.225Z" fill="#652700"/>
<path d="M145.809 140.349C146.164 140.229 146.486 140.027 146.751 139.761C147.023 139.48 147.179 139.106 147.188 138.714C147.196 138.323 147.056 137.942 146.796 137.65C146.569 137.455 146.302 137.314 146.014 137.237C145.725 137.161 145.423 137.15 145.13 137.206C144.366 137.31 143.637 137.593 143.002 138.031C142.524 138.334 142.151 138.777 141.933 139.299C141.825 139.548 141.795 139.825 141.849 140.091C141.902 140.357 142.036 140.601 142.232 140.789C142.454 140.925 142.703 141.009 142.962 141.034C143.221 141.06 143.482 141.027 143.726 140.937C144.438 140.807 145.135 140.61 145.809 140.349V140.349Z" fill="#652700"/>
<path d="M114.289 140.698C113.918 140.585 113.527 140.548 113.141 140.589C112.496 140.786 111.923 141.168 111.493 141.688C111.063 142.208 110.795 142.843 110.721 143.514C110.674 143.756 110.688 144.006 110.762 144.241C110.837 144.476 110.969 144.688 111.148 144.859C111.297 144.968 111.472 145.038 111.656 145.062C111.84 145.086 112.027 145.063 112.199 144.996C112.559 144.863 112.883 144.65 113.15 144.375C113.606 143.939 114.002 143.445 114.326 142.903C114.53 142.583 114.673 142.228 114.748 141.856C114.778 141.673 114.771 141.485 114.727 141.305C114.683 141.124 114.603 140.955 114.492 140.806C114.247 140.455 114.601 140.532 114.289 140.698Z" fill="#652700"/>
<path d="M105.816 140.833C106.613 140.613 107.339 140.192 107.925 139.61C108.208 139.306 108.411 138.938 108.518 138.537C108.625 138.136 108.632 137.715 108.538 137.311C108.423 136.966 108.21 136.662 107.924 136.437C107.639 136.212 107.293 136.075 106.931 136.044L106.781 136.004C106.4 136.127 106.054 136.34 105.773 136.626C105.492 136.912 105.284 137.261 105.167 137.644C104.937 138.415 104.826 139.216 104.838 140.019C104.812 140.167 104.82 140.319 104.862 140.463C104.904 140.608 104.979 140.74 105.08 140.851C105.273 141.063 105.534 140.954 105.816 140.833Z" fill="#652700"/>
<path d="M83.1052 124.371C81.5284 123.914 79.9522 125.179 78.3197 125.162C76.6872 125.145 75.244 123.935 73.687 124.223C72.13 124.511 71.142 126.382 69.9296 127.55C68.6377 128.626 67.1908 129.501 65.6379 130.144C64.1631 130.908 62.6806 132.032 62.21 133.646C62.0267 134.566 62.1014 135.519 62.426 136.4C62.7505 137.28 63.3122 138.053 64.0488 138.634C65.5372 139.787 67.2309 140.647 69.04 141.168C73.8868 143.026 78.8833 144.467 83.9751 145.476C85.0781 145.732 86.2249 145.734 87.329 145.483C87.8775 145.351 88.3743 145.059 88.7556 144.643C89.1368 144.227 89.3851 143.707 89.4685 143.148C89.5309 142.205 88.9934 141.348 88.9412 140.41C88.8577 138.745 89.9896 137.462 89.5343 135.731C89.0535 134.333 88.2953 133.046 87.3051 131.949C86.7393 131.233 86.2766 130.442 85.9305 129.597C85.6128 128.73 85.5876 127.804 85.319 126.924C85.1845 126.351 84.9128 125.819 84.5271 125.374C84.1414 124.929 83.6534 124.585 83.1052 124.371V124.371Z" fill="#993A12"/>
<g style="mix-blend-mode:screen" opacity="0.32">
<path d="M73.7247 131.645C76.1128 132.898 76.9072 131.354 79.0283 130.814C80.234 130.47 81.5148 130.494 82.7072 130.881C84.0064 131.258 85.1353 132.073 85.9026 133.188C86.6802 134.551 86.7193 136.192 87.4619 137.531C87.8393 138.203 88.4039 138.75 89.0869 139.107C89.359 138.01 89.859 136.989 89.5162 135.719C89.0355 134.321 88.2772 133.035 87.2871 131.937C86.7213 131.221 86.2586 130.43 85.9125 129.586C85.5948 128.718 85.5695 127.792 85.301 126.912C85.1651 126.344 84.8944 125.818 84.5119 125.377C84.1293 124.936 83.6462 124.594 83.1035 124.38C81.5267 123.924 79.9505 125.188 78.318 125.171C76.6855 125.155 75.2423 123.945 73.6853 124.232C72.1283 124.52 71.2811 126.105 70.2172 127.302C70.7993 129.139 72.0515 130.689 73.7247 131.645V131.645Z" fill="#A24B27"/>
</g>
<g style="mix-blend-mode:multiply" opacity="0.55">
<path d="M69.3032 130.618C70.6616 131.523 72.7871 133.123 74.2068 131.82C72.8635 131.722 71.5894 131.187 70.5796 130.295C69.9455 129.647 69.5738 128.787 69.5361 127.881C68.8246 128.463 68.044 128.954 67.2122 129.345C67.9259 129.788 68.6281 130.171 69.3032 130.618Z" fill="#8C3A12"/>
</g>
<g style="mix-blend-mode:multiply" opacity="0.55">
<path d="M80.0497 129.052C80.4926 129.175 80.9274 129.325 81.3516 129.502C82.1808 130.044 83.0515 130.52 83.9557 130.925C84.7977 131.081 85.6669 130.983 86.4529 130.643C86.2545 130.318 86.0816 129.978 85.9355 129.626C85.8349 129.33 85.7527 129.027 85.6892 128.72V128.72C85.0394 129.002 84.3533 129.19 83.6511 129.28C82.4792 129.379 81.0681 128.515 80.0497 129.052Z" fill="#8C3A12"/>
</g>
<g style="mix-blend-mode:multiply" opacity="0.55">
<path d="M82.0556 138.947C80.7389 138.239 80.0109 136.634 78.171 137.504C77.4397 137.906 76.6082 138.087 75.7763 138.028L75.318 137.97C76.3653 139.529 78.8199 138.908 80.4566 139.192C81.3293 139.469 82.2453 139.585 83.1596 139.534C82.7782 139.365 82.4093 139.169 82.0556 138.947V138.947Z" fill="#8C3A12"/>
</g>
<g style="mix-blend-mode:multiply" opacity="0.55">
<path d="M83.8823 134.358L83.7138 134.413C84.366 134.781 84.9765 135.219 85.5346 135.718C86.6713 136.67 88.0995 137.203 89.5815 137.229C89.6843 136.728 89.6721 136.209 89.5457 135.713C89.3617 135.031 89.0682 134.384 88.6767 133.796C88.1094 134.26 87.4093 134.531 86.6779 134.57C85.7587 134.625 84.7656 134.137 83.8823 134.358Z" fill="#8C3A12"/>
</g>
<path d="M89.4681 143.148C88.2816 144.187 86.6897 144.375 84.8224 142.911C82.9551 141.448 81.1353 142.91 79.2307 142.041C77.4312 141.242 76.4149 139.288 74.3797 139.525C73.7064 139.608 73.023 139.522 72.3908 139.276C71.7585 139.03 71.1972 138.631 70.7571 138.115C69.8562 137.05 68.1916 137.961 67.0158 137.64C66.333 137.461 65.6769 137.192 65.0643 136.842C63.0129 135.631 62.7962 133.892 63.2089 131.985C62.7389 132.468 62.3907 133.057 62.1931 133.701C62.0098 134.621 62.0846 135.574 62.4091 136.455C62.7336 137.335 63.2953 138.108 64.0319 138.689C65.5204 139.842 67.2141 140.702 69.0231 141.223C73.87 143.081 78.8665 144.522 83.9582 145.531C85.0613 145.787 86.208 145.789 87.3121 145.538C87.8715 145.406 88.3774 145.106 88.7626 144.679C89.1477 144.253 89.3938 143.719 89.4681 143.148Z" fill="#792C12"/>
<path d="M85.0395 144.346C84.4705 144.711 83.9998 145.051 83.3665 144.8C82.6354 144.511 82.0454 143.948 81.7215 143.232C81.0061 143.778 80.6905 144.318 79.7442 143.837C79.0724 143.506 78.4834 143.028 78.0206 142.439C77.4062 142.713 77.2208 143.051 76.5313 142.792C75.6552 142.476 74.9163 141.865 74.4411 141.063C72.7877 141.662 71.1932 141.346 70.6098 139.95C70.3799 140.072 70.1279 140.147 69.8688 140.169C69.6096 140.192 69.3485 140.162 69.101 140.082C68.1603 139.73 67.364 139.073 66.838 138.217C65.1092 138.435 64.1491 138.437 63.0825 137.18L63.1525 154.399C67.3006 157.483 72.234 159.335 77.3864 159.74L86.8082 145.388C86.4593 145.339 86.1236 145.222 85.8201 145.043C85.5166 144.865 85.2513 144.628 85.0395 144.346V144.346Z" fill="#BE4C1B"/>
<path d="M65.8906 139.095C64.3217 143.885 63.7799 148.952 64.3006 153.965C64.3006 153.965 67.9863 144.305 65.8906 139.095Z" fill="#8F3300"/>
<path d="M70.0212 140.998C70.0212 140.998 66.1746 147.803 66.9 155.502C66.9 155.502 71.4212 146.148 70.0212 140.998Z" fill="#8F3300"/>
<path d="M74.0072 142.311C71.3789 146.606 69.954 151.529 69.8819 156.564C69.8819 156.564 74.6569 147.233 74.0072 142.311Z" fill="#8F3300"/>
<path d="M77.6104 143.728C77.6104 143.728 72.8266 150.13 72.3872 157.196C72.3872 157.196 77.5311 148.853 77.6104 143.728Z" fill="#8F3300"/>
<path d="M80.9596 145.122C77.8255 148.698 75.6173 152.99 74.529 157.619C74.529 157.619 79.8958 150.816 80.9596 145.122Z" fill="#8F3300"/>
<path d="M84.2376 145.88C80.8655 149.358 78.2292 153.48 76.4862 158C76.4862 158 83.1667 150.955 84.2376 145.88Z" fill="#8F3300"/>
<g style="mix-blend-mode:multiply" opacity="0.5">
<path d="M73.259 151.82C71.1477 150.18 69.6031 147.919 68.8419 145.355C68.3894 144.052 67.9672 142.734 67.6047 141.395C67.3991 140.618 67.2731 139.812 67.1283 139.005C65.5247 139.211 64.6313 139.211 63.6382 138.049L63.7021 154.041C67.5583 156.904 72.1426 158.622 76.9299 158.998L80.0865 154.187C77.6468 153.99 75.2975 153.175 73.259 151.82V151.82Z" fill="#9E5838"/>
</g>
<g style="mix-blend-mode:screen" opacity="0.32">
<path d="M86.7887 132.796C86.709 132.65 86.5775 132.538 86.4198 132.483L83.5079 131.163C83.0891 130.947 82.6417 130.791 82.1791 130.7C81.9484 130.652 81.7102 130.653 81.4798 130.703C81.2494 130.752 81.0318 130.849 80.8408 130.987C80.6527 131.13 80.5172 131.331 80.4556 131.559C80.394 131.787 80.4099 132.029 80.5006 132.247C80.6096 132.424 80.7628 132.569 80.9451 132.669C81.1275 132.769 81.3326 132.819 81.5404 132.816C81.958 132.803 82.3713 132.727 82.7663 132.591C83.162 132.456 83.5837 132.415 83.9979 132.471C84.8232 132.633 85.4836 133.496 86.3188 133.355C86.5949 133.276 86.8795 133.055 86.7887 132.796Z" fill="#B27B60"/>
</g>
<g style="mix-blend-mode:screen" opacity="0.32">
<path d="M72.9849 126.312L71.874 126.979C71.6128 127.096 71.3972 127.296 71.2602 127.548C71.0489 128.015 71.4502 128.523 71.9246 128.754C72.7893 128.924 73.6848 128.839 74.5024 128.51C75.4231 128.311 76.3776 128.331 77.2891 128.569C77.589 128.67 77.8983 128.741 78.2125 128.781C78.3748 128.794 78.538 128.771 78.6902 128.713C78.8423 128.655 78.9794 128.564 79.0913 128.445C79.2012 128.267 79.2534 128.059 79.2408 127.85C79.2282 127.64 79.1514 127.44 79.0209 127.276C78.7501 126.958 78.4123 126.705 78.0317 126.533C77.4467 126.201 76.8272 125.935 76.1843 125.738C75.5397 125.542 74.853 125.53 74.2022 125.705C73.7715 125.853 73.3622 126.057 72.9849 126.312V126.312Z" fill="#B27B60"/>
</g>
<g style="mix-blend-mode:screen" opacity="0.32">
<path d="M84.1733 139.035C83.8093 138.903 83.433 138.808 83.05 138.75C82.1618 138.531 81.3683 138.031 80.7885 137.323C81.8116 137.518 82.8608 137.535 83.8897 137.373C84.9248 137.207 85.9852 137.409 86.8871 137.943C87.1209 138.1 87.3169 138.307 87.4605 138.548C87.6042 138.79 87.6919 139.062 87.7172 139.342C87.7324 139.624 87.6514 139.902 87.4876 140.132C87.3238 140.362 87.0869 140.529 86.8157 140.606C86.5518 140.628 86.2865 140.588 86.0402 140.491C85.7939 140.394 85.5731 140.242 85.3947 140.046C85.0363 139.654 84.6252 139.314 84.1733 139.035V139.035Z" fill="#B27B60"/>
</g>
<g style="mix-blend-mode:screen" opacity="0.32">
<path d="M75.2172 133.441C75.1695 133.608 75.1636 133.785 75.2 133.955C75.2364 134.126 75.314 134.285 75.426 134.418C75.6618 134.687 75.9638 134.889 76.302 135.004C77.7174 135.453 79.2225 135.539 80.6798 135.255C80.9874 135.227 81.3736 135.105 81.3835 134.802C81.3735 134.71 81.3428 134.621 81.2935 134.542C81.2442 134.463 81.1777 134.397 81.0989 134.348C79.8762 133.316 78.3322 132.744 76.7329 132.729C76.4379 132.711 76.142 132.751 75.8626 132.847C75.7197 132.896 75.5885 132.974 75.4773 133.076C75.3662 133.178 75.2776 133.302 75.2172 133.441V133.441Z" fill="#B27B60"/>
</g>
<g style="mix-blend-mode:screen" opacity="0.32">
<path d="M69.4456 132.795C68.9979 132.665 68.5648 132.489 68.1532 132.27C67.6916 131.916 67.1852 131.625 66.6473 131.404C66.3543 131.329 66.0462 131.336 65.7573 131.427C65.4685 131.517 65.2104 131.685 65.0119 131.914C64.8134 132.142 64.6822 132.421 64.6331 132.72C64.584 133.018 64.6188 133.325 64.7338 133.605C64.8772 133.9 65.0832 134.161 65.3374 134.369C65.5917 134.577 65.8882 134.727 66.2063 134.809C66.8485 134.971 67.508 135.055 68.1704 135.058C68.8344 135.04 69.4952 135.156 70.1134 135.399C70.5901 135.612 70.993 135.957 71.4791 136.171C71.7101 136.297 71.9712 136.357 72.234 136.345C72.4969 136.333 72.7514 136.25 72.9702 136.103C73.1276 135.952 73.2381 135.758 73.2887 135.545C73.3392 135.333 73.3277 135.11 73.2553 134.903C73.1026 134.491 72.8103 134.144 72.4291 133.924C72.0494 133.711 71.6468 133.542 71.229 133.42L69.4456 132.795Z" fill="#B27B60"/>
</g>
<path d="M83.6557 127.597L83.6034 127.41C83.5984 127.293 83.5665 127.179 83.5103 127.076C83.4542 126.973 83.3751 126.885 83.2793 126.818C83.0859 126.686 82.8682 126.593 82.639 126.546C82.245 126.461 81.8395 126.442 81.4392 126.489C81.1106 126.533 80.742 126.667 80.6642 126.981C80.6485 127.067 80.6518 127.156 80.6739 127.24C80.696 127.325 80.7363 127.404 80.792 127.472C80.9043 127.607 81.042 127.718 81.1972 127.799C81.61 128.024 82.0666 128.156 82.5355 128.188C82.8279 128.235 83.1275 128.171 83.3754 128.009C83.6155 127.84 83.8154 127.836 83.6557 127.597Z" fill="#652700"/>
<path d="M72.1033 126.219C72.171 126.342 72.2682 126.447 72.3862 126.523C72.5043 126.599 72.6395 126.645 72.7796 126.656C73.0618 126.735 73.3575 126.753 73.6472 126.709C73.7924 126.688 73.9314 126.636 74.0546 126.557C74.1779 126.477 74.2825 126.372 74.3614 126.248C74.4377 126.125 74.473 125.98 74.4624 125.835C74.4517 125.691 74.3956 125.553 74.302 125.442C74.3015 125.408 74.2882 125.376 74.2648 125.352C74.2413 125.328 74.2096 125.313 74.1759 125.312L73.926 125.109C73.6345 125.01 73.3195 125.002 73.0233 125.086C72.7271 125.171 72.464 125.345 72.2693 125.584C72.1937 125.669 72.1394 125.771 72.1105 125.881C72.0817 125.992 72.0792 126.107 72.1033 126.219V126.219Z" fill="#B27B60"/>
<path d="M84.2685 136.784C84.1932 136.494 84.0497 136.226 83.8499 136.002C83.6502 135.778 83.4 135.605 83.1201 135.498C82.9293 135.426 82.7243 135.4 82.5215 135.422C82.4194 135.434 82.3207 135.467 82.2311 135.517C82.1415 135.568 82.0628 135.636 81.9995 135.717C81.9148 135.867 81.877 136.038 81.8909 136.209C81.9047 136.381 81.9697 136.544 82.0773 136.678C82.311 136.95 82.6129 137.156 82.9521 137.274C83.1076 137.362 83.2815 137.413 83.4602 137.422C83.6388 137.432 83.8171 137.399 83.9811 137.328C84.3041 137.179 84.3474 137.137 84.2685 136.784Z" fill="#652700"/>
<path d="M81.2527 130.963C81.1502 130.751 80.982 130.578 80.7732 130.469C80.5644 130.36 80.3261 130.322 80.0937 130.36C79.6307 130.443 79.1965 130.644 78.8321 130.942C78.7145 131.01 78.6132 131.103 78.535 131.215C78.4569 131.327 78.4039 131.454 78.3795 131.588C78.3848 131.921 78.727 132.145 79.0473 132.243C79.6185 132.412 80.2267 132.41 80.7967 132.236C81.1232 132.135 81.4732 131.923 81.5253 131.587C81.5773 131.251 81.3808 131.303 81.2527 130.963Z" fill="#652700"/>
<path d="M66.5714 132.449C66.9544 132.31 67.3152 132.115 67.6425 131.872C67.7269 131.83 67.8015 131.771 67.8615 131.698C67.9215 131.626 67.9655 131.541 67.9906 131.45C67.9954 131.397 67.9879 131.343 67.9685 131.293C67.9492 131.243 67.9185 131.198 67.879 131.162C67.8394 131.125 67.7921 131.099 67.7406 131.084C67.689 131.069 67.6347 131.066 67.5819 131.075L67.429 130.932L67.4397 130.848L67.3742 130.84C67.1914 130.678 66.9567 130.588 66.7128 130.585C66.475 130.591 66.2394 130.631 66.0132 130.705C65.8296 130.733 65.6542 130.8 65.4987 130.902C65.3432 131.004 65.2113 131.138 65.1117 131.295C65.0504 131.474 65.0504 131.67 65.1119 131.85C65.1734 132.029 65.2928 132.184 65.4514 132.288C65.6165 132.392 65.8015 132.46 65.9944 132.488C66.1873 132.515 66.3839 132.502 66.5714 132.449Z" fill="#652700"/>
<path d="M67.8617 136.74C67.93 136.962 68.0537 137.163 68.2212 137.324C68.3887 137.485 68.5944 137.6 68.819 137.66C69.2701 137.766 69.7361 137.792 70.1964 137.739C70.3411 137.739 70.4841 137.708 70.6164 137.65C70.6835 137.623 70.7418 137.578 70.7845 137.519C70.8272 137.461 70.8526 137.391 70.8579 137.319C70.8576 137.251 70.8419 137.183 70.8118 137.122C70.7817 137.06 70.7381 137.006 70.6843 136.964C70.571 136.883 70.4448 136.829 70.3327 136.739C70.2206 136.649 70.0354 136.235 69.8674 135.986C69.7267 135.782 69.5239 135.629 69.289 135.549C69.0542 135.47 68.8 135.468 68.5643 135.545C68.323 135.626 68.119 135.792 67.9899 136.011C67.8608 136.231 67.8153 136.489 67.8617 136.74V136.74Z" fill="#652700"/>
<path d="M76.0404 137.073C76.278 137.05 76.5117 136.997 76.7353 136.913C76.8757 136.855 77.0185 136.778 77.0469 136.63C77.0752 136.481 76.8814 136.285 76.7144 136.179L75.8791 135.721C75.6882 135.595 75.4795 135.498 75.2598 135.433C75.148 135.399 75.0305 135.389 74.9145 135.402C74.7984 135.415 74.6863 135.451 74.5849 135.509C74.444 135.611 74.3423 135.757 74.2969 135.925C74.2514 136.092 74.265 136.27 74.3353 136.429C74.3985 136.583 74.4959 136.721 74.6201 136.832C74.7442 136.943 74.892 137.025 75.0522 137.071C75.3781 137.138 75.7142 137.139 76.0404 137.073V137.073Z" fill="#652700"/>
<path d="M79.4304 140.84C79.5272 140.667 79.5585 140.466 79.5185 140.272C79.4784 140.078 79.3697 139.905 79.2124 139.785C79.0486 139.674 78.8605 139.602 78.6638 139.577C78.4671 139.552 78.2672 139.574 78.0807 139.642C77.7116 139.789 77.3847 140.025 77.1287 140.329C77.076 140.371 77.0329 140.424 77.0024 140.484C76.9718 140.544 76.9544 140.61 76.9515 140.678C76.9658 140.756 77.0012 140.83 77.0538 140.89C77.1064 140.95 77.1743 140.995 77.2503 141.02C77.7236 141.261 78.2658 141.329 78.7842 141.214C78.9117 141.199 79.0348 141.158 79.1459 141.094C79.257 141.029 79.3538 140.943 79.4304 140.84Z" fill="#652700"/>
<path d="M86.2508 142.512C86.4187 142.61 86.6058 142.669 86.7989 142.687C87.0034 142.693 87.2021 142.618 87.3516 142.479C87.5011 142.339 87.5892 142.146 87.5966 141.941C87.5841 141.782 87.5387 141.628 87.4632 141.487C87.3878 141.347 87.284 141.223 87.1584 141.125C86.8584 140.856 86.4981 140.664 86.1081 140.564C85.831 140.479 85.5339 140.484 85.2602 140.58C85.1267 140.63 85.0117 140.72 84.9306 140.837C84.8495 140.954 84.8062 141.093 84.8065 141.236C84.8356 141.374 84.8929 141.505 84.9748 141.62C85.0567 141.735 85.1614 141.832 85.2824 141.905C85.5879 142.134 85.9118 142.337 86.2508 142.512V142.512Z" fill="#652700"/>
<path d="M75.1779 129.927C75.0999 129.737 74.9822 129.567 74.8327 129.427C74.5479 129.244 74.2156 129.148 73.877 129.153C73.5385 129.157 73.2087 129.261 72.9288 129.452C72.8186 129.519 72.7267 129.612 72.6612 129.723C72.5958 129.834 72.5587 129.96 72.5535 130.089C72.5667 130.187 72.6026 130.28 72.6583 130.361C72.714 130.443 72.7879 130.51 72.8742 130.557C73.0366 130.622 73.2103 130.654 73.3851 130.651C73.7037 130.687 74.0261 130.673 74.3406 130.61C74.5318 130.582 74.7152 130.515 74.8789 130.412C74.9599 130.36 75.0296 130.292 75.0838 130.212C75.138 130.132 75.1756 130.043 75.1942 129.948C75.2705 129.796 75.3743 129.952 75.1779 129.927Z" fill="#652700"/>
<path d="M72.2302 126.568C72.5909 126.793 73.0036 126.92 73.4282 126.938C73.6407 126.946 73.8515 126.899 74.0404 126.801C74.2292 126.703 74.3897 126.559 74.5062 126.381C74.5947 126.216 74.6354 126.03 74.6238 125.844C74.6121 125.658 74.5486 125.478 74.4403 125.326L74.3714 125.27C74.1973 125.161 73.9994 125.095 73.7946 125.079C73.5897 125.063 73.3841 125.097 73.1951 125.178C72.8149 125.345 72.4648 125.574 72.159 125.855C72.0419 125.954 71.913 126.071 71.9221 126.224C71.9312 126.378 72.0982 126.484 72.2302 126.568Z" fill="#652700"/>
<path d="M85.0805 199.496C81.8477 202.427 76.2353 202.172 73.364 199.006C70.4926 195.84 69.6831 192.267 72.9159 189.335C76.1487 186.403 79.1418 187.107 82.0132 190.273C84.8845 193.44 88.3134 196.564 85.0805 199.496Z" fill="#FBD246"/>
<path d="M122.538 90.1115C120.206 92.2258 116.866 92.8227 115.56 91.3822C114.254 89.9416 114.241 87.9939 116.572 85.8796C118.904 83.7652 120.609 83.7734 121.916 85.214C123.222 86.6546 124.869 87.9971 122.538 90.1115Z" fill="#D56C48"/>
<path d="M101.056 144.93C101.563 146.564 101.09 148.346 100.081 148.658C99.0716 148.971 98.1094 148.531 97.6031 146.897C97.0969 145.264 97.4924 144.426 98.5017 144.113C99.5109 143.8 100.55 143.297 101.056 144.93Z" fill="#D56C48"/>
<circle cx="106.512" cy="113.498" r="1.89461" fill="#A73D22"/>
<path d="M79.0023 108.895C78.1126 109.842 76.0347 108.698 74.9576 107.62C73.8806 106.543 72.5176 104.422 74.0871 102.853C75.6566 101.283 77.7575 103.455 78.8346 104.532C79.9117 105.61 79.8921 107.948 79.0023 108.895Z" fill="#E3AB5C"/>
<path d="M21.9298 86.2239C21.577 81.7665 25.3235 77.3731 29.7163 77.0254C34.1091 76.6777 37.5337 78.2572 37.8865 82.7145C38.2393 87.1719 35.7782 89.1596 31.3854 89.5073C26.9926 89.855 22.2826 90.6812 21.9298 86.2239Z" fill="#F89945"/>
<path d="M163.337 23.0243C163.757 24.5928 162.709 26.4091 161.164 26.8233C159.618 27.2375 158.291 26.8996 157.87 25.331C157.45 23.7625 158.198 22.8902 159.743 22.476C161.289 22.0618 162.917 21.4558 163.337 23.0243Z" fill="#FFCC00"/>
</svg>
