<svg width="86" height="23" viewBox="0 0 86 23" fill="none" xmlns="http://www.w3.org/2000/svg">
<g clip-path="url(#clip0_169_25932)">
<path d="M32.181 5.65601H27.4282C27.2708 5.65591 27.1186 5.71231 26.999 5.81505C26.8793 5.91779 26.8001 6.06011 26.7756 6.21638L24.8534 18.4698C24.8445 18.5267 24.8481 18.5848 24.8637 18.6401C24.8794 18.6955 24.9067 18.7468 24.944 18.7905C24.9812 18.8342 25.0275 18.8692 25.0795 18.8932C25.1315 18.9173 25.1881 18.9296 25.2453 18.9296H27.5144C27.6718 18.9296 27.8241 18.8731 27.9437 18.7703C28.0634 18.6674 28.1425 18.5249 28.1669 18.3685L28.6853 15.0636C28.7097 14.9073 28.7887 14.7649 28.9083 14.662C29.0278 14.5591 29.1799 14.5026 29.3372 14.5025H30.8418C33.9725 14.5025 35.7794 12.9793 36.2513 9.96081C36.4639 8.64023 36.2603 7.60264 35.6453 6.87597C34.9698 6.07803 33.7717 5.65601 32.181 5.65601ZM32.7293 10.1313C32.4694 11.846 31.1663 11.846 29.9064 11.846H29.1892L29.6923 8.64373C29.7071 8.55004 29.7546 8.46472 29.8263 8.40311C29.898 8.3415 29.9893 8.30764 30.0836 8.30764H30.4123C31.2706 8.30764 32.0802 8.30764 32.4985 8.79954C32.748 9.093 32.8245 9.529 32.7293 10.1313ZM46.3878 10.0761H44.1119C44.0175 10.0761 43.9263 10.11 43.8546 10.1716C43.7829 10.2332 43.7354 10.3185 43.7206 10.4122L43.6199 11.0522L43.4607 10.8202C42.968 10.1013 41.8693 9.86089 40.7726 9.86089C38.2576 9.86089 36.1095 11.7761 35.6912 14.4627C35.4736 15.8028 35.7829 17.0842 36.539 17.9779C37.2326 18.7996 38.2249 19.142 39.4057 19.142C41.4321 19.142 42.5559 17.8319 42.5559 17.8319L42.4544 18.4677C42.4454 18.5246 42.4487 18.5827 42.4642 18.6381C42.4796 18.6936 42.5069 18.745 42.544 18.7888C42.5811 18.8326 42.6272 18.8679 42.6792 18.892C42.7312 18.9162 42.7877 18.9288 42.845 18.9289H44.8951C45.0525 18.9289 45.2048 18.8724 45.3245 18.7696C45.4441 18.6667 45.5233 18.5242 45.5476 18.3678L46.7777 10.5359C46.7868 10.4791 46.7835 10.4211 46.768 10.3658C46.7526 10.3105 46.7254 10.2592 46.6883 10.2155C46.6513 10.1718 46.6052 10.1367 46.5533 10.1126C46.5014 10.0885 46.445 10.0761 46.3878 10.0761ZM43.2154 14.5297C42.9958 15.837 41.9638 16.7146 40.6475 16.7146C39.9866 16.7146 39.4585 16.5015 39.1193 16.0977C38.783 15.6966 38.6551 15.1257 38.7621 14.4899C38.9672 13.1938 40.0165 12.2875 41.3126 12.2875C41.9589 12.2875 42.4843 12.5034 42.8304 12.9108C43.1772 13.3223 43.3148 13.8967 43.2154 14.5297ZM58.5092 10.0761H56.2221C56.1142 10.0763 56.0081 10.1029 55.9127 10.1537C55.8174 10.2044 55.7359 10.2778 55.6752 10.3675L52.5208 15.0391L51.1837 10.5498C51.1427 10.4129 51.0589 10.2929 50.9447 10.2076C50.8306 10.1223 50.6921 10.0762 50.5499 10.0761H48.3024C48.2393 10.0759 48.1771 10.0909 48.121 10.1198C48.0648 10.1487 48.0163 10.1907 47.9795 10.2422C47.9428 10.2937 47.9188 10.3533 47.9095 10.4161C47.9003 10.4788 47.9061 10.5429 47.9265 10.6029L50.4457 18.0359L48.0773 21.3974C48.0352 21.457 48.0102 21.5271 48.0051 21.6C48 21.673 48.015 21.7459 48.0483 21.8108C48.0817 21.8758 48.1322 21.9302 48.1943 21.9682C48.2564 22.0062 48.3277 22.0263 48.4004 22.0263H50.6847C50.7914 22.0264 50.8965 22.0006 50.991 21.9509C51.0855 21.9013 51.1667 21.8293 51.2275 21.7412L58.8344 10.7015C58.8757 10.6417 58.8998 10.5718 58.9044 10.4992C58.9089 10.4267 58.8935 10.3542 58.86 10.2898C58.8265 10.2254 58.7761 10.1714 58.7143 10.1337C58.6524 10.0961 58.5815 10.0761 58.5092 10.0761Z" fill="#253B80"/>
<path d="M66.0815 5.65597H61.328C61.1708 5.65604 61.0187 5.71252 60.8992 5.81524C60.7797 5.91797 60.7006 6.0602 60.6761 6.21634L58.7539 18.4698C58.7449 18.5265 58.7484 18.5846 58.7639 18.6399C58.7794 18.6952 58.8066 18.7465 58.8438 18.7902C58.8809 18.8339 58.927 18.8689 58.9789 18.893C59.0308 18.9171 59.0873 18.9295 59.1445 18.9295H61.5837C61.6938 18.9294 61.8002 18.8897 61.8837 18.8177C61.9673 18.7458 62.0226 18.6462 62.0396 18.5368L62.5852 15.0635C62.6095 14.9072 62.6886 14.7648 62.8081 14.662C62.9276 14.5591 63.0797 14.5025 63.237 14.5024H64.7409C67.8724 14.5024 69.6785 12.9792 70.1511 9.96078C70.3645 8.6402 70.1594 7.6026 69.5444 6.87593C68.8696 6.078 67.6722 5.65597 66.0815 5.65597ZM66.6298 10.1313C66.3706 11.8459 65.0675 11.8459 63.8069 11.8459H63.0904L63.5942 8.64369C63.6087 8.55 63.656 8.46461 63.7276 8.40296C63.7993 8.34132 63.8905 8.30749 63.9848 8.30761H64.3135C65.1711 8.30761 65.9814 8.30761 66.3998 8.79951C66.6492 9.09297 66.725 9.52897 66.6298 10.1313ZM80.2877 10.0761H78.0131C77.9188 10.0758 77.8275 10.1096 77.7558 10.1713C77.6841 10.2329 77.6368 10.3184 77.6225 10.4121L77.5218 11.0522L77.3619 10.8202C76.8692 10.1012 75.7712 9.86086 74.6745 9.86086C72.1595 9.86086 70.0121 11.776 69.5938 14.4626C69.3769 15.8028 69.6848 17.0842 70.4409 17.9779C71.1359 18.7996 72.1269 19.1419 73.3076 19.1419C75.3341 19.1419 76.4578 17.8318 76.4578 17.8318L76.3563 18.4677C76.3473 18.5246 76.3506 18.5829 76.3662 18.6384C76.3817 18.694 76.4091 18.7454 76.4463 18.7893C76.4836 18.8332 76.5299 18.8683 76.5821 18.8924C76.6342 18.9165 76.6909 18.9289 76.7483 18.9288H78.7977C78.955 18.9287 79.1071 18.8722 79.2267 18.7693C79.3462 18.6664 79.4252 18.524 79.4496 18.3678L80.6803 10.5358C80.689 10.4789 80.6854 10.4208 80.6697 10.3654C80.654 10.3101 80.6265 10.2588 80.5892 10.2151C80.5519 10.1714 80.5056 10.1364 80.4536 10.1124C80.4015 10.0884 80.3449 10.076 80.2877 10.0761ZM77.1152 14.5297C76.897 15.837 75.8636 16.7146 74.5474 16.7146C73.8879 16.7146 73.3583 16.5015 73.0192 16.0976C72.6828 15.6966 72.5563 15.1257 72.662 14.4899C72.8684 13.1937 73.9164 12.2875 75.2124 12.2875C75.8587 12.2875 76.3841 12.5034 76.7302 12.9108C77.0784 13.3223 77.216 13.8967 77.1152 14.5297ZM82.9709 5.99206L81.0202 18.4698C81.0112 18.5265 81.0146 18.5846 81.0301 18.6399C81.0457 18.6952 81.0729 18.7465 81.11 18.7902C81.1472 18.8339 81.1933 18.8689 81.2452 18.893C81.2971 18.9171 81.3536 18.9295 81.4107 18.9295H83.3719C83.6978 18.9295 83.9744 18.692 84.0244 18.3685L85.9481 6.11573C85.957 6.05893 85.9536 6.00087 85.9381 5.94552C85.9226 5.89017 85.8953 5.83886 85.8582 5.79511C85.8211 5.75136 85.775 5.7162 85.7231 5.69207C85.6712 5.66793 85.6147 5.65538 85.5575 5.65527H83.3615C83.2672 5.65561 83.1761 5.68968 83.1045 5.7514C83.033 5.81311 82.9856 5.89842 82.9709 5.99206Z" fill="#179BD7"/>
<path d="M5.11589 21.311L5.47934 18.9898L4.66973 18.9709H0.803711L3.49039 1.84327C3.49839 1.79093 3.52483 1.74323 3.56488 1.70886C3.60494 1.67449 3.65595 1.65573 3.70861 1.65601H10.2273C12.3913 1.65601 13.8848 2.10878 14.6645 3.00244C15.0301 3.42167 15.2629 3.85977 15.3755 4.34188C15.4936 4.84775 15.4957 5.45215 15.3803 6.18929L15.372 6.2431V6.71543L15.7375 6.92365C16.0166 7.06579 16.2674 7.25808 16.4776 7.49101C16.7904 7.84945 16.9926 8.30501 17.0781 8.84512C17.1663 9.4006 17.1372 10.0616 16.9926 10.8099C16.8258 11.6707 16.5562 12.4205 16.192 13.0339C15.8707 13.5835 15.4387 14.0595 14.9237 14.4314C14.44 14.7765 13.8653 15.0386 13.2155 15.2063C12.5859 15.3712 11.868 15.4543 11.0807 15.4543H10.5733C10.2106 15.4543 9.85823 15.5857 9.58164 15.8211C9.30545 16.0591 9.12222 16.3879 9.0646 16.749L9.02638 16.9579L8.38424 21.0489L8.35505 21.1992C8.34741 21.2467 8.33421 21.2704 8.31475 21.2865C8.2959 21.302 8.27238 21.3106 8.24803 21.311H5.11589Z" fill="#253B80"/>
<path d="M16.0838 6.29736C16.0644 6.42243 16.0421 6.5503 16.0171 6.68166C15.1575 11.1192 12.2164 12.6522 8.46021 12.6522H6.5477C6.08834 12.6522 5.70125 12.9876 5.62967 13.4432L4.65048 19.6869L4.3732 21.4568C4.36215 21.527 4.36637 21.5988 4.38556 21.6672C4.40475 21.7356 4.43845 21.799 4.48436 21.853C4.53026 21.9071 4.58727 21.9505 4.65146 21.9803C4.71565 22.0101 4.78549 22.0255 4.85619 22.0255H8.24825C8.64993 22.0255 8.99115 21.7321 9.05439 21.3338L9.08775 21.1605L9.72641 17.0856L9.76741 16.862C9.82996 16.4623 10.1719 16.1689 10.5736 16.1689H11.0809C14.3673 16.1689 16.94 14.8273 17.6919 10.9452C18.0061 9.32352 17.8434 7.9694 17.0123 7.01704C16.7488 6.72244 16.4342 6.47856 16.0838 6.29736Z" fill="#179BD7"/>
<path d="M15.1843 5.93695C14.9098 5.85711 14.6306 5.7948 14.3483 5.75039C13.7904 5.66419 13.2267 5.62284 12.6623 5.62671H7.55302C7.35858 5.62656 7.1705 5.69636 7.02277 5.82348C6.87505 5.9506 6.77744 6.12666 6.74757 6.31984L5.66067 13.2413L5.62939 13.4433C5.66325 13.2229 5.77443 13.0221 5.94282 12.877C6.1112 12.7319 6.32567 12.6522 6.54743 12.6523H8.45993C12.2161 12.6523 15.1572 11.1186 16.0168 6.68178C16.0426 6.55042 16.0641 6.42255 16.0836 6.29748C15.8567 6.17788 15.6203 6.07762 15.3768 5.99773C15.3129 5.97644 15.2488 5.95617 15.1843 5.93695Z" fill="#222D65"/>
<path d="M6.74712 6.31986C6.77673 6.12663 6.87429 5.95048 7.02209 5.82343C7.16989 5.69637 7.35811 5.62683 7.55257 5.62743H12.6619C13.2672 5.62743 13.8322 5.66726 14.3478 5.75111C14.6967 5.80624 15.0409 5.88871 15.377 5.99775C15.6307 6.0823 15.8663 6.18221 16.0838 6.2975C16.3395 4.65761 16.0817 3.54106 15.1998 2.53001C14.2276 1.41696 12.4728 0.94043 10.2274 0.94043H3.70879C3.25012 0.94043 2.85887 1.27581 2.78798 1.73208L0.0728047 19.0358C0.0601579 19.1162 0.0649696 19.1983 0.0869088 19.2766C0.108848 19.3549 0.147394 19.4275 0.199896 19.4894C0.252397 19.5512 0.317608 19.601 0.391042 19.6351C0.464477 19.6692 0.544392 19.6869 0.625291 19.687H4.64976L5.66022 13.2414L6.74712 6.31986Z" fill="#253B80"/>
</g>
<defs>
<clipPath id="clip0_169_25932">
<rect width="86" height="23" fill="white"/>
</clipPath>
</defs>
</svg>
