<svg width="86" height="23" viewBox="0 0 86 23" fill="none" xmlns="http://www.w3.org/2000/svg">
<g clip-path="url(#clip0_169_22480)">
<path d="M32.181 5.65607H27.4282C27.2708 5.65597 27.1186 5.71237 26.999 5.81511C26.8793 5.91785 26.8001 6.06018 26.7756 6.21644L24.8534 18.4699C24.8445 18.5267 24.8481 18.5848 24.8637 18.6402C24.8794 18.6956 24.9067 18.7468 24.944 18.7905C24.9812 18.8342 25.0275 18.8693 25.0795 18.8933C25.1315 18.9173 25.1881 18.9297 25.2453 18.9296H27.5144C27.6718 18.9297 27.8241 18.8732 27.9437 18.7703C28.0634 18.6674 28.1425 18.5249 28.1669 18.3686L28.6853 15.0636C28.7097 14.9073 28.7887 14.7649 28.9083 14.6621C29.0278 14.5592 29.1799 14.5026 29.3372 14.5025H30.8418C33.9725 14.5025 35.7794 12.9793 36.2513 9.96087C36.4639 8.64029 36.2603 7.6027 35.6453 6.87603C34.9698 6.07809 33.7717 5.65607 32.181 5.65607ZM32.7293 10.1314C32.4694 11.846 31.1663 11.846 29.9064 11.846H29.1892L29.6923 8.64379C29.7071 8.5501 29.7546 8.46478 29.8263 8.40317C29.898 8.34156 29.9893 8.3077 30.0836 8.3077H30.4123C31.2706 8.3077 32.0802 8.3077 32.4985 8.7996C32.748 9.09306 32.8245 9.52906 32.7293 10.1314ZM46.3878 10.0762H44.1119C44.0175 10.0762 43.9263 10.11 43.8546 10.1716C43.7829 10.2332 43.7354 10.3186 43.7206 10.4122L43.6199 11.0523L43.4607 10.8203C42.968 10.1013 41.8693 9.86095 40.7726 9.86095C38.2576 9.86095 36.1095 11.7761 35.6912 14.4627C35.4736 15.8029 35.7829 17.0843 36.539 17.978C37.2326 18.7997 38.2249 19.142 39.4057 19.142C41.4321 19.142 42.5559 17.8319 42.5559 17.8319L42.4544 18.4678C42.4454 18.5246 42.4487 18.5828 42.4642 18.6382C42.4796 18.6936 42.5069 18.745 42.544 18.7889C42.5811 18.8327 42.6272 18.8679 42.6792 18.8921C42.7312 18.9163 42.7877 18.9288 42.845 18.9289H44.8951C45.0525 18.929 45.2048 18.8725 45.3245 18.7696C45.4441 18.6667 45.5233 18.5242 45.5476 18.3679L46.7777 10.5359C46.7868 10.4792 46.7835 10.4212 46.768 10.3659C46.7526 10.3105 46.7254 10.2593 46.6883 10.2155C46.6513 10.1718 46.6052 10.1367 46.5533 10.1127C46.5014 10.0886 46.445 10.0761 46.3878 10.0762ZM43.2154 14.5298C42.9958 15.8371 41.9638 16.7147 40.6475 16.7147C39.9866 16.7147 39.4585 16.5016 39.1193 16.0977C38.783 15.6967 38.6551 15.1258 38.7621 14.49C38.9672 13.1938 40.0165 12.2876 41.3126 12.2876C41.9589 12.2876 42.4843 12.5035 42.8304 12.9109C43.1772 13.3224 43.3148 13.8968 43.2154 14.5298ZM58.5092 10.0762H56.2221C56.1142 10.0763 56.0081 10.103 55.9127 10.1537C55.8174 10.2045 55.7359 10.2779 55.6752 10.3675L52.5208 15.0392L51.1837 10.5499C51.1427 10.413 51.0589 10.293 50.9447 10.2077C50.8306 10.1223 50.6921 10.0762 50.5499 10.0762H48.3024C48.2393 10.076 48.1771 10.091 48.121 10.1199C48.0648 10.1488 48.0163 10.1907 47.9795 10.2422C47.9428 10.2938 47.9188 10.3534 47.9095 10.4162C47.9003 10.4789 47.9061 10.543 47.9265 10.603L50.4457 18.036L48.0773 21.3975C48.0352 21.4571 48.0102 21.5272 48.0051 21.6001C48 21.673 48.015 21.7459 48.0483 21.8109C48.0817 21.8758 48.1322 21.9303 48.1943 21.9683C48.2564 22.0063 48.3277 22.0264 48.4004 22.0263H50.6847C50.7914 22.0265 50.8965 22.0006 50.991 21.951C51.0855 21.9013 51.1667 21.8294 51.2275 21.7413L58.8344 10.7015C58.8757 10.6418 58.8998 10.5719 58.9044 10.4993C58.9089 10.4267 58.8935 10.3543 58.86 10.2899C58.8265 10.2255 58.7761 10.1715 58.7143 10.1338C58.6524 10.0961 58.5815 10.0762 58.5092 10.0762Z" fill="#253B80"/>
<path d="M66.0815 5.65603H61.328C61.1708 5.6561 61.0187 5.71258 60.8992 5.8153C60.7797 5.91803 60.7006 6.06026 60.6761 6.21641L58.7539 18.4698C58.7449 18.5266 58.7484 18.5846 58.7639 18.6399C58.7794 18.6953 58.8066 18.7465 58.8438 18.7902C58.8809 18.8339 58.927 18.869 58.9789 18.8931C59.0308 18.9171 59.0873 18.9296 59.1445 18.9296H61.5837C61.6938 18.9294 61.8002 18.8898 61.8837 18.8178C61.9673 18.7458 62.0226 18.6462 62.0396 18.5369L62.5852 15.0636C62.6095 14.9073 62.6886 14.7649 62.8081 14.662C62.9276 14.5592 63.0797 14.5026 63.237 14.5025H64.7409C67.8724 14.5025 69.6785 12.9793 70.1511 9.96084C70.3645 8.64026 70.1594 7.60266 69.5444 6.876C68.8696 6.07806 67.6722 5.65603 66.0815 5.65603ZM66.6298 10.1313C66.3706 11.846 65.0675 11.846 63.8069 11.846H63.0904L63.5942 8.64375C63.6087 8.55007 63.656 8.46467 63.7276 8.40302C63.7993 8.34138 63.8905 8.30755 63.9848 8.30767H64.3135C65.1711 8.30767 65.9814 8.30767 66.3998 8.79957C66.6492 9.09303 66.725 9.52903 66.6298 10.1313ZM80.2877 10.0761H78.0131C77.9188 10.0759 77.8275 10.1096 77.7558 10.1713C77.6841 10.233 77.6368 10.3185 77.6225 10.4122L77.5218 11.0522L77.3619 10.8203C76.8692 10.1013 75.7712 9.86092 74.6745 9.86092C72.1595 9.86092 70.0121 11.7761 69.5938 14.4627C69.3769 15.8028 69.6848 17.0843 70.4409 17.9779C71.1359 18.7996 72.1269 19.142 73.3076 19.142C75.3341 19.142 76.4578 17.8319 76.4578 17.8319L76.3563 18.4677C76.3473 18.5247 76.3506 18.583 76.3662 18.6385C76.3817 18.694 76.4091 18.7455 76.4463 18.7894C76.4836 18.8332 76.5299 18.8684 76.5821 18.8925C76.6342 18.9166 76.6909 18.929 76.7483 18.9289H78.7977C78.955 18.9288 79.1071 18.8722 79.2267 18.7694C79.3462 18.6665 79.4252 18.5241 79.4496 18.3678L80.6803 10.5359C80.689 10.479 80.6854 10.4209 80.6697 10.3655C80.654 10.3101 80.6265 10.2589 80.5892 10.2152C80.5519 10.1715 80.5056 10.1365 80.4536 10.1125C80.4015 10.0885 80.3449 10.0761 80.2877 10.0761ZM77.1152 14.5298C76.897 15.8371 75.8636 16.7147 74.5474 16.7147C73.8879 16.7147 73.3583 16.5015 73.0192 16.0977C72.6828 15.6966 72.5563 15.1258 72.662 14.4899C72.8684 13.1938 73.9164 12.2876 75.2124 12.2876C75.8587 12.2876 76.3841 12.5035 76.7302 12.9108C77.0784 13.3224 77.216 13.8967 77.1152 14.5298ZM82.9709 5.99212L81.0202 18.4698C81.0112 18.5266 81.0146 18.5846 81.0301 18.6399C81.0457 18.6953 81.0729 18.7465 81.11 18.7902C81.1472 18.8339 81.1933 18.869 81.2452 18.8931C81.2971 18.9171 81.3536 18.9296 81.4107 18.9296H83.3719C83.6978 18.9296 83.9744 18.692 84.0244 18.3685L85.9481 6.11579C85.957 6.05899 85.9536 6.00093 85.9381 5.94558C85.9226 5.89024 85.8953 5.83892 85.8582 5.79517C85.8211 5.75142 85.775 5.71627 85.7231 5.69213C85.6712 5.66799 85.6147 5.65544 85.5575 5.65533H83.3615C83.2672 5.65567 83.1761 5.68975 83.1045 5.75146C83.033 5.81317 82.9856 5.89848 82.9709 5.99212Z" fill="#179BD7"/>
<path d="M5.11589 21.3109L5.47934 18.9897L4.66973 18.9709H0.803711L3.49039 1.84317C3.49839 1.79084 3.52483 1.74314 3.56488 1.70877C3.60494 1.67439 3.65595 1.65564 3.70861 1.65592H10.2273C12.3913 1.65592 13.8848 2.10869 14.6645 3.00235C15.0301 3.42158 15.2629 3.85968 15.3755 4.34179C15.4936 4.84766 15.4957 5.45205 15.3803 6.1892L15.372 6.243V6.71534L15.7375 6.92356C16.0166 7.0657 16.2674 7.25799 16.4776 7.49092C16.7904 7.84936 16.9926 8.30492 17.0781 8.84503C17.1663 9.40051 17.1372 10.0615 16.9926 10.8098C16.8258 11.6706 16.5562 12.4204 16.192 13.0338C15.8707 13.5834 15.4387 14.0594 14.9237 14.4313C14.44 14.7765 13.8653 15.0385 13.2155 15.2062C12.5859 15.3711 11.868 15.4542 11.0807 15.4542H10.5733C10.2106 15.4542 9.85823 15.5856 9.58164 15.821C9.30545 16.059 9.12222 16.3878 9.0646 16.7489L9.02638 16.9579L8.38424 21.0488L8.35505 21.1991C8.34741 21.2466 8.33421 21.2703 8.31475 21.2864C8.2959 21.3019 8.27238 21.3105 8.24803 21.3109H5.11589Z" fill="#253B80"/>
<path d="M16.0838 6.29742C16.0644 6.4225 16.0421 6.55036 16.0171 6.68172C15.1575 11.1193 12.2164 12.6523 8.46021 12.6523H6.5477C6.08834 12.6523 5.70125 12.9877 5.62967 13.4432L4.65048 19.687L4.3732 21.4568C4.36215 21.527 4.36637 21.5988 4.38556 21.6672C4.40475 21.7356 4.43845 21.799 4.48436 21.8531C4.53026 21.9071 4.58727 21.9506 4.65146 21.9803C4.71565 22.0101 4.78549 22.0256 4.85619 22.0256H8.24825C8.64993 22.0256 8.99115 21.7321 9.05439 21.3339L9.08775 21.1606L9.72641 17.0856L9.76741 16.8621C9.82996 16.4624 10.1719 16.1689 10.5736 16.1689H11.0809C14.3673 16.1689 16.94 14.8274 17.6919 10.9453C18.0061 9.32358 17.8434 7.96946 17.0123 7.0171C16.7488 6.7225 16.4342 6.47862 16.0838 6.29742Z" fill="#179BD7"/>
<path d="M15.1843 5.93691C14.9098 5.85708 14.6306 5.79477 14.3483 5.75036C13.7904 5.66416 13.2267 5.62281 12.6623 5.62668H7.55302C7.35858 5.62653 7.1705 5.69633 7.02277 5.82345C6.87505 5.95057 6.77744 6.12663 6.74757 6.31981L5.66067 13.2413L5.62939 13.4432C5.66325 13.2229 5.77443 13.022 5.94282 12.877C6.1112 12.7319 6.32567 12.6522 6.54743 12.6523H8.45993C12.2161 12.6523 15.1572 11.1186 16.0168 6.68175C16.0426 6.55039 16.0641 6.42252 16.0836 6.29745C15.8567 6.17785 15.6203 6.07758 15.3768 5.9977C15.3129 5.97641 15.2488 5.95614 15.1843 5.93691Z" fill="#222D65"/>
<path d="M6.74712 6.3198C6.77673 6.12657 6.87429 5.95042 7.02209 5.82336C7.16989 5.69631 7.35811 5.62676 7.55257 5.62737H12.6619C13.2672 5.62737 13.8322 5.6672 14.3478 5.75104C14.6967 5.80618 15.0409 5.88865 15.377 5.99769C15.6307 6.08224 15.8663 6.18215 16.0838 6.29744C16.3395 4.65755 16.0817 3.541 15.1998 2.52995C14.2276 1.41689 12.4728 0.940369 10.2274 0.940369H3.70879C3.25012 0.940369 2.85887 1.27575 2.78798 1.73202L0.0728047 19.0358C0.0601579 19.1161 0.0649696 19.1983 0.0869088 19.2765C0.108848 19.3548 0.147394 19.4274 0.199896 19.4893C0.252397 19.5512 0.317608 19.6009 0.391042 19.635C0.464477 19.6691 0.544392 19.6869 0.625291 19.687H4.64976L5.66022 13.2413L6.74712 6.3198Z" fill="#253B80"/>
</g>
<defs>
<clipPath id="clip0_169_22480">
<rect width="86" height="23" fill="white"/>
</clipPath>
</defs>
</svg>
