<svg width="24" height="24" viewBox="0 0 24 24" fill="none" xmlns="http://www.w3.org/2000/svg">
<path d="M11.9968 15.1746C7.68376 15.1746 3.99976 15.8546 3.99976 18.5746C3.99976 21.2956 7.66076 21.9996 11.9968 21.9996C16.3098 21.9996 19.9938 21.3206 19.9938 18.5996C19.9938 15.8786 16.3338 15.1746 11.9968 15.1746Z" fill="url(#paint0_linear_192_2556)"/>
<path opacity="0.4" d="M11.9967 12.5838C14.9347 12.5838 17.2887 10.2288 17.2887 7.29176C17.2887 4.35476 14.9347 1.99976 11.9967 1.99976C9.05971 1.99976 6.70471 4.35476 6.70471 7.29176C6.70471 10.2288 9.05971 12.5838 11.9967 12.5838Z" fill="url(#paint1_linear_192_2556)"/>
<defs>
<linearGradient id="paint0_linear_192_2556" x1="3.99976" y1="14.7555" x2="20.7044" y2="20.8206" gradientUnits="userSpaceOnUse">
<stop stop-color="#53E88B"/>
<stop offset="1" stop-color="#15BE77"/>
</linearGradient>
<linearGradient id="paint1_linear_192_2556" x1="6.70471" y1="1.34986" x2="18.9229" y2="3.2429" gradientUnits="userSpaceOnUse">
<stop stop-color="#53E88B"/>
<stop offset="1" stop-color="#15BE77"/>
</linearGradient>
</defs>
</svg>
