<svg width="20" height="20" viewBox="0 0 20 20" fill="none" xmlns="http://www.w3.org/2000/svg">
<path d="M17.2409 15.8249L17.2409 15.8242L16.4524 5.69575C16.4524 5.6957 16.4524 5.69564 16.4524 5.69559C16.3937 4.91674 15.7474 4.30075 14.9706 4.30075H13.659C13.5672 2.33087 11.9655 0.75 10 0.75C8.03455 0.75 6.43292 2.33087 6.34113 4.30075H5.02951C4.25296 4.30075 3.60648 4.91642 3.54784 5.69408C3.54783 5.69419 3.54782 5.6943 3.54782 5.69441L2.7591 15.8256L2.75905 15.8262C2.69291 16.7052 2.9917 17.5806 3.58066 18.2288C4.1698 18.8773 5.00552 19.25 5.87494 19.25H14.1251C14.9945 19.25 15.8302 18.8773 16.4194 18.2288L16.2344 18.0607L16.4194 18.2288C17.0084 17.5806 17.3071 16.7052 17.2409 15.8249ZM5.0743 5.85508H6.33698V6.90358C6.33698 7.32822 6.67593 7.68075 7.1041 7.68075C7.53226 7.68075 7.87122 7.32822 7.87122 6.90358V5.85508H12.1289V6.90358C12.1289 7.32822 12.4678 7.68075 12.896 7.68075C13.3242 7.68075 13.6631 7.32822 13.6631 6.90358V5.85508H14.9258L15.7112 15.9443C15.7112 15.9444 15.7113 15.9445 15.7113 15.9446C15.7457 16.4037 15.5962 16.8397 15.2905 17.1762C14.985 17.5125 14.5723 17.6957 14.1251 17.6957H5.87497C5.42775 17.6957 5.0151 17.5125 4.70953 17.1762C4.40382 16.8397 4.2544 16.4037 4.28878 15.9461C4.28879 15.946 4.2888 15.9459 4.28881 15.9458L5.0743 5.85508ZM7.87832 4.30075C7.96767 3.18106 8.8894 2.30434 10 2.30434C11.1107 2.30434 12.0324 3.18109 12.1218 4.30075H7.87832Z" fill="#3FDA85" stroke="#3FDA85" stroke-width="0.5"/>
<path d="M11.6338 9.75626C11.9601 9.42989 12.4893 9.42987 12.8156 9.75626L11.6338 9.75626ZM11.6338 9.75626V9.75626L11.6338 9.75628L9.19508 12.195L8.36617 11.366C8.36616 11.366 8.36616 11.366 8.36615 11.366C8.0398 11.0396 7.51061 11.0397 7.18424 11.366C6.85786 11.6924 6.85786 12.2216 7.18424 12.5479L8.60412 13.9678C8.76723 14.1309 8.98155 14.2126 9.19504 14.2126C9.40844 14.2126 9.62283 14.131 9.78596 13.9678C9.78598 13.9678 9.786 13.9678 9.78602 13.9678L12.8156 10.9382C13.142 10.6118 13.142 10.0827 12.8156 9.75629L11.6338 9.75626Z" fill="#3FDA85" stroke="white" stroke-width="0.5"/>
</svg>
