<svg width="26" height="26" viewBox="0 0 26 26" fill="none" xmlns="http://www.w3.org/2000/svg">
<path d="M10.2841 1.79232C11.3635 -0.509415 14.6372 -0.509415 15.7165 1.79232L17.2137 4.98516C17.6382 5.8903 18.4856 6.52454 19.4737 6.67657L23.0718 7.23016C25.4835 7.60123 26.467 10.5431 24.7632 12.29L21.9737 15.1499C21.3091 15.8313 21.0073 16.7876 21.1604 17.7271L21.7913 21.5992C22.1941 24.0715 19.5689 25.9195 17.3774 24.7063L14.4533 23.0876C13.5493 22.5872 12.4514 22.5872 11.5474 23.0876L8.62326 24.7063C6.43177 25.9195 3.80654 24.0715 4.20936 21.5992L4.84028 17.7271C4.99334 16.7876 4.69153 15.8313 4.02694 15.1499L1.23745 12.29C-0.466328 10.5431 0.517105 7.60123 2.92886 7.23016L6.52694 6.67657C7.51503 6.52454 8.36247 5.8903 8.78692 4.98516L10.2841 1.79232Z" fill="#FEAD1D"/>
</svg>
