<svg width="32" height="34" viewBox="0 0 32 34" fill="none" xmlns="http://www.w3.org/2000/svg">
<path d="M13.2841 5.79232C14.3635 3.49059 17.6372 3.49059 18.7165 5.79232L20.2137 8.98516C20.6382 9.8903 21.4856 10.5245 22.4737 10.6766L26.0718 11.2302C28.4835 11.6012 29.467 14.5431 27.7632 16.29L24.9737 19.1499C24.3091 19.8313 24.0073 20.7876 24.1604 21.7271L24.7913 25.5992C25.1941 28.0715 22.5689 29.9195 20.3774 28.7063L17.4533 27.0876C16.5493 26.5872 15.4514 26.5872 14.5474 27.0876L11.6233 28.7063C9.43177 29.9195 6.80654 28.0715 7.20936 25.5992L7.84028 21.7271C7.99334 20.7876 7.69153 19.8313 7.02694 19.1499L4.23745 16.29C2.53367 14.5431 3.51711 11.6012 5.92886 11.2302L9.52694 10.6766C10.515 10.5245 11.3625 9.8903 11.7869 8.98516L13.2841 5.79232Z" fill="#FEAD1D"/>
<circle cx="28.5" cy="2.5" r="1.5" fill="#FEAD1D"/>
<circle opacity="0.5" cx="12" cy="32.6666" r="1" fill="#FEAD1D"/>
<circle cx="2" cy="22.6666" r="2" fill="#FEAD1D"/>
<circle opacity="0.6" cx="27.5" cy="27.1666" r="0.5" fill="#FEAD1D"/>
<circle cx="8.5" cy="7.5" r="0.5" fill="#FEAD1D"/>
</svg>
