<svg width="60" height="60" viewBox="0 0 60 60" fill="none" xmlns="http://www.w3.org/2000/svg">
<path d="M26.6426 37.9185H22.5223L25.0975 22.0925H29.2182L26.6426 37.9185ZM19.0561 22.0925L15.1279 32.9777L14.6631 30.6337L14.6635 30.6346L13.2771 23.5175C13.2771 23.5175 13.1095 22.0925 11.3226 22.0925H4.82864L4.75244 22.3605C4.75244 22.3605 6.7383 22.7737 9.06241 24.1694L12.6421 37.9189H16.9352L23.4905 22.0925H19.0561V22.0925ZM51.4644 37.9185H55.2477L51.9491 22.0921H48.637C47.1075 22.0921 46.7349 23.2715 46.7349 23.2715L40.5898 37.9185H44.8849L45.7439 35.5677H50.9818L51.4644 37.9185ZM46.9305 32.3203L49.0954 26.3978L50.3134 32.3203H46.9305ZM40.912 25.8983L41.5 22.4998C41.5 22.4998 39.6856 21.8098 37.7941 21.8098C35.7494 21.8098 30.8938 22.7034 30.8938 27.0489C30.8938 31.1375 36.5927 31.1883 36.5927 33.3359C36.5927 35.4834 31.4809 35.0986 29.7939 33.7444L29.1814 37.2979C29.1814 37.2979 31.0212 38.1915 33.8321 38.1915C36.6439 38.1915 40.8857 36.7357 40.8857 32.7733C40.8857 28.6585 35.1356 28.2753 35.1356 26.4863C35.136 24.6969 39.1488 24.9268 40.912 25.8983V25.8983Z" fill="#2566AF"/>
<path d="M14.6635 30.6341L13.2771 23.517C13.2771 23.517 13.1095 22.0921 11.3226 22.0921H4.82864L4.75244 22.3601C4.75244 22.3601 7.87368 23.0069 10.8675 25.4305C13.7301 27.747 14.6635 30.6341 14.6635 30.6341Z" fill="#E6A540"/>
</svg>
