<svg width="52" height="18" viewBox="0 0 52 18" fill="none" xmlns="http://www.w3.org/2000/svg">
<path d="M22.6426 16.9185H18.5223L21.0975 1.0926H25.2182L22.6426 16.9185ZM15.0561 1.0926L11.1279 11.9778L10.6631 9.63379L10.6635 9.63464L9.27712 2.51754C9.27712 2.51754 9.10948 1.0926 7.32259 1.0926H0.828642L0.752441 1.36057C0.752441 1.36057 2.7383 1.77375 5.06241 3.16948L8.64212 16.9189H12.9352L19.4905 1.0926H15.0561V1.0926ZM47.4644 16.9185H51.2477L47.9491 1.09218H44.637C43.1075 1.09218 42.7349 2.27159 42.7349 2.27159L36.5898 16.9185H40.8849L41.7439 14.5678H46.9818L47.4644 16.9185ZM42.9305 11.3204L45.0954 5.39791L46.3134 11.3204H42.9305ZM36.912 4.89837L37.5 1.49985C37.5 1.49985 35.6856 0.809814 33.7941 0.809814C31.7494 0.809814 26.8938 1.70347 26.8938 6.049C26.8938 10.1376 32.5927 10.1884 32.5927 12.3359C32.5927 14.4835 27.4809 14.0987 25.7939 12.7445L25.1814 16.2979C25.1814 16.2979 27.0212 17.1916 29.8321 17.1916C32.6439 17.1916 36.8857 15.7357 36.8857 11.7733C36.8857 7.65851 31.1356 7.2754 31.1356 5.48639C31.136 3.69695 35.1488 3.92682 36.912 4.89837V4.89837Z" fill="#2566AF"/>
</svg>
